<svg viewBox="0 0 3167 1150" xmlns="http://www.w3.org/2000/svg" fill-rule="evenodd" clip-rule="evenodd" stroke-linejoin="round" stroke-miterlimit="2"><path d="M1306.001 675.878c.361 0 .656.167.656.373 0 .2-.295.366-.656.366-.361 0 6.211-70.944 6.211-71.144 0-.206-6.572 70.405-6.211 70.405z" fill="#ebebeb"/><path fill="none" d="M-.003 0h3161.264v1148.068H-.003z"/><path d="M1082.166 178.393c0-64.528-52.389-116.91-116.914-116.91H217.98c-64.525 0-116.91 52.382-116.91 116.91v808.045c0 64.523 52.385 116.91 116.91 116.91h747.273c64.525 0 116.914-52.387 116.914-116.91V178.393z" fill="#4d8d51"/><g fill="#fefefe" fill-rule="nonzero"><path d="M543.021 136.82c-18.33 44.076-24.44 94.26-13.96 118.267 7.85 18.761 51.493 84.225 55.86 84.225 5.236 0 18.33-19.637 29.674-44.507 13.094-28.375 13.094-71.143.432-93.839-15.27-27.055-32.732-50.62-49.31-66.332l-15.71-14.834-6.986 17.02zM781.305 220.614c-25.314 3.924-74.624 31.412-97.32 54.11-29.24 29.238-41.026 54.122-46.692 97.763-5.244 41.46-1.31 123.945 6.542 123.945 8.294 0 81.61-51.506 103.429-72.885 24.883-24.437 37.978-52.812 45.396-99.504 6.543-37.965 8.282-101.257 3.049-103.43-2.183-.875-8.295-.875-14.404 0zM353.613 291.744c.433 89.904 40.593 140.53 137.472 173.263 38.841 13.094 49.318 14.836 51.503 8.294 2.183-6.552-14.403-68.958-24.88-92.53-14.837-33.597-17.455-37.524-34.041-54.543-17.898-18.339-89.904-55.863-114.774-59.798l-15.28-2.618v27.932zM582.739 388.2c-11.353 42.323-17.465 73.315-27.056 132.237-6.552 41.016-7.861 71.563-6.985 210.354 1.309 169.77-.443 192.024-18.328 229.992-9.17 19.204-43.645 54.985-53.245 54.985-3.494 0-5.68 2.628-4.37 5.246 1.308 4.357 15.712 5.233 58.921 3.924 84.66-2.185 143.582 7.418 236.544 39.717 45.817 16.146 56.73 18.761 56.73 13.528 0-2.185-5.667-6.985-12.22-10.91-28.364-16.588-88.594-82.485-111.726-121.326-38.84-65.034-61.096-123.945-86.41-224.759-13.96-57.17-21.822-144.888-22.255-245.712 0-89.028-2.615-112.592-9.6-87.276z"/><path d="M814.037 427.474c-6.975 2.616-19.637 6.986-27.93 10.034-23.13 8.294-65.465 44.088-92.088 77.252-13.085 17.02-26.18 32.732-28.362 35.35-2.618 3.048-11.345 14.401-19.207 25.747-16.576 23.128-14.834 30.99 7.419 35.35 6.552 1.306 23.574 5.243 37.978 9.167 30.98 7.852 96.876 9.16 114.341 2.185 39.274-16.156 60.664-28.807 82.483-48.444 35.783-32.732 111.283-141.407 103.432-149.259-4.8-4.367-164.095-2.182-178.066 2.618zM322.19 490.753c-11.346 1.752-128.302 59.357-136.164 66.775-7.418 7.416 10.034 20.511 59.788 44.951 64.154 31.856 91.653 39.718 132.236 37.1 46.26-3.059 79.435-20.514 136.607-71.574 17.885-16.156 15.713-22.265-13.528-34.484-10.477-3.924-24.004-10.466-30.99-13.96-6.542-3.492-29.24-12.219-49.754-19.204-36.225-12.22-63.714-14.837-98.195-9.604zM477.998 664.019c-85.544 46.692-115.658 79.867-132.68 145.32-2.615 10.478-6.542 26.19-9.157 34.918-2.185 9.168-5.247 30.114-6.986 46.703l-2.618 30.103 11.786-3.048c6.542-1.752 20.946-7.418 32.289-12.652 106.925-49.753 151.443-112.602 148.382-210.365-.866-31.855-4.8-45.816-12.219-45.816-1.309 0-14.403 6.542-28.797 14.837zM628.565 677.98c0 14.833 30.98 71.14 48.878 88.592 28.364 27.931 72.439 44.52 116.083 43.644 32.732-.433 81.617-10.47 80.308-16.589-1.316-6.542-41.023-58.478-59.354-78.115-30.557-32.732-65.907-44.075-138.79-44.508-41.015 0-47.125.866-47.125 6.975z"/></g><g><path d="M1708.856 544.15c7.439 1.593 12.752 4.781 15.94 9.563 3.718 4.25 5.312 9.032 5.312 14.345 0 4.781-1.594 9.032-4.25 13.282-3.188 4.25-7.97 7.438-13.814 9.564V679.1c0 8.5-2.656 15.939-8.5 21.783-5.845 5.844-11.158 11.157-15.94 16.47-12.75 12.22-27.627 21.252-44.629 27.097-17.002 5.844-34.003 8.5-51.536 8.5-28.69 0-53.661-5.844-75.445-18.064-21.252-11.689-39.316-26.565-53.661-45.16-14.345-18.065-24.971-37.723-32.41-59.506-6.906-21.252-10.625-41.973-10.625-61.63 0-11.158 1.062-23.378 4.25-36.66 2.656-13.814 6.907-26.566 12.22-39.848 5.844-12.751 12.751-24.971 21.783-36.129 8.501-11.157 18.596-20.72 30.284-28.159 21.252-13.813 43.036-24.97 64.819-34.003 22.315-8.5 44.63-12.751 68.006-12.751 6.376 0 14.346.531 23.909 1.594 9.563 1.594 18.595 3.719 27.096 6.907 9.032 2.656 16.47 6.907 22.846 11.688 6.376 5.313 9.564 11.689 9.564 19.127 0 5.845-2.126 11.158-6.376 15.408-4.782 4.782-10.095 6.907-16.47 6.907-3.72 0-7.97-1.063-12.752-2.657-4.25-1.594-9.563-3.187-14.876-4.781-5.313-2.126-10.626-3.72-16.47-5.313-5.313-1.594-11.158-2.126-16.47-2.126-4.251 0-7.97 0-11.158.532-3.719.531-6.907 1.062-10.626 2.125-15.408 4.782-30.815 10.626-46.223 17.002-15.939 6.375-30.284 14.876-43.035 25.502-12.22 10.626-22.846 23.377-30.816 39.316-7.438 15.408-11.688 34.535-11.688 57.38 0 19.127 3.719 36.66 10.094 53.13 6.907 17.002 15.408 31.347 26.565 43.567 11.158 11.689 23.378 21.252 38.254 28.69 14.345 6.907 29.222 10.627 45.16 10.627 13.814 0 27.097-3.188 40.38-8.501 13.282-5.313 25.502-13.814 36.66-24.44v-80.226c-14.877.53-29.754 1.062-44.63 1.062H1575.5c-9.032-1.594-14.877-4.25-19.127-9.032-4.25-4.782-6.376-9.563-6.376-15.408 0-5.313 2.126-10.626 6.907-15.939 4.25-5.313 11.158-7.97 20.19-7.97 3.719 0 12.22 0 24.97-.53h40.911c14.345 0 28.159 0 40.91-.532h24.971zM1794.974 536.711c-5.845-2.656-10.095-6.376-12.751-11.157-3.188-4.25-4.25-8.501-4.25-12.751 0-5.845 2.124-11.158 6.375-15.408 4.25-4.782 10.094-6.907 17.533-6.907 5.313 0 12.22 2.125 20.72 5.844 7.97 4.25 14.346 8.501 19.127 13.283 12.22-10.626 24.971-18.596 37.723-25.503 12.75-6.907 26.033-10.094 39.316-10.094 3.719 0 9.563 1.062 17.001 3.187 7.439 1.594 14.877 4.782 22.315 8.501 6.907 4.25 13.283 9.032 18.596 15.408 5.844 6.376 8.5 13.282 8.5 21.783 0 6.376-2.125 12.22-6.375 15.94-4.25 4.25-9.564 6.375-15.94 6.375-4.25 0-7.969-1.063-11.688-3.72-3.188-2.656-6.375-5.312-9.563-8.5-3.72-2.657-6.907-5.313-10.626-7.97-3.72-2.125-7.97-3.187-12.752-3.187-5.313 0-11.688 1.594-18.064 4.781-6.375 3.188-12.75 7.439-19.127 12.22-6.375 4.782-12.75 9.564-18.595 15.408-5.844 5.313-11.157 10.095-15.408 14.345v156.202c-.531 9.032-2.656 15.94-7.97 20.19-4.781 4.782-10.094 6.907-15.938 6.907-5.313 0-10.626-2.125-15.408-6.376-4.782-3.719-7.438-10.095-8.5-19.127V566.464l-.532-5.313.531-5.313v-17.002c-1.594-1.062-3.188-1.594-4.25-2.125z" fill="#4d8d51" fill-rule="nonzero"/><g><path d="M2085.642 722.666c-.531 9.032-3.188 15.408-7.97 20.19-4.781 4.25-10.626 6.375-16.47 6.375-5.313 0-10.095-1.594-14.876-5.844-4.782-4.25-7.97-10.626-9.032-19.127-.532-36.66-.532-74.382-1.063-112.636 0-38.253 0-75.976-.531-112.635 2.125-7.97 4.781-13.814 9.563-18.065 4.25-3.719 9.032-5.844 14.345-5.844 5.313 0 10.095 2.125 14.345 5.313 4.782 3.72 7.97 9.032 9.564 16.47.531 37.192 1.062 74.383 1.062 112.636 0 38.785.532 75.976 1.063 113.167zm-54.193-319.311c0-9.032 2.657-15.94 8.501-22.315 5.313-5.844 11.689-9.032 19.658-9.032 7.97 0 14.877 3.188 20.19 9.032 5.844 6.376 8.5 13.283 8.5 22.315 0 7.97-2.656 14.876-8.5 21.252-5.313 5.844-12.22 9.032-20.19 9.032-7.97 0-14.345-3.188-19.658-9.032-5.844-6.376-8.5-13.283-8.5-21.252zM2315.074 495.27c3.72-6.907 8.5-11.158 13.814-13.283 5.313-2.125 10.095-2.656 15.408-1.063 4.781 1.594 9.032 4.25 12.22 9.564 3.187 4.782 4.781 10.626 4.25 18.064-5.313 21.252-11.689 41.973-19.127 62.162-6.907 20.19-14.345 40.38-21.252 60.569-6.907 19.126-13.282 37.722-19.658 55.786-6.376 18.064-13.814 36.128-21.252 54.193-7.438 8.5-14.876 12.22-23.909 11.157-8.5-1.063-14.876-6.907-19.658-16.47-14.345-37.191-28.69-73.851-43.035-110.51-14.876-36.13-31.347-72.258-49.411-107.323-3.72-7.97-4.782-14.877-2.656-20.721 1.593-6.376 5.313-10.626 10.094-13.814 4.25-2.657 10.095-3.72 16.47-2.657 6.376 1.594 12.22 5.314 17.533 12.752 13.283 27.096 26.565 55.255 38.785 83.414 11.689 28.159 23.909 56.318 35.066 85.54l7.97-22.315 7.97-22.315 20.72-60.568c7.438-20.19 13.814-40.91 19.658-62.162zM2604.345 672.724c8.501-3.188 15.408-3.72 21.252-1.063 5.844 2.126 10.095 5.845 12.751 11.158 2.657 4.781 2.657 10.626 1.063 17.001-1.594 5.845-6.376 11.158-13.814 15.408-12.751 7.438-26.565 14.345-41.441 20.72-14.877 6.376-30.284 10.627-45.692 12.752a128.951 128.951 0 01-45.16 0c-14.877-2.657-28.69-8.5-42.505-18.064-16.47-11.158-29.221-26.565-37.722-46.223-8.5-19.127-13.282-39.317-13.282-60.037-.532-21.252 3.187-41.442 11.157-60.569 7.97-19.658 20.72-35.065 37.722-46.754 18.064-12.22 37.722-21.252 58.974-27.096 21.253-6.376 42.505-6.907 63.757-2.126 10.626 2.126 20.189 6.907 29.221 14.877 8.5 7.438 15.408 16.47 20.72 26.565 5.314 9.563 7.97 20.19 8.502 31.347.53 11.157-2.657 21.783-8.501 31.346-6.376 11.158-15.94 20.19-28.69 28.16-12.22 7.437-26.034 13.813-40.91 19.126-14.346 5.313-29.222 10.095-44.099 13.283-14.345 3.719-27.096 6.906-38.253 10.094-4.782 1.063-9.032 1.594-13.283.532 5.845 12.75 14.345 22.845 26.034 30.815 11.689 7.97 26.034 11.689 43.035 10.095 13.814-.532 27.628-4.25 41.442-11.158a775.75 775.75 0 0037.722-20.19zm-114.23-125.387c-14.345 7.438-25.502 18.064-32.409 31.347-6.907 13.814-10.626 28.159-10.626 43.035 2.657-2.125 5.845-3.719 9.032-4.782 6.907-2.125 13.814-4.25 21.252-6.375 7.439-2.125 14.345-4.25 21.784-5.845 4.781-1.593 11.157-3.187 19.127-5.313 7.969-2.656 16.47-5.313 24.97-8.5 9.033-3.188 16.47-6.907 23.91-10.626 6.906-4.25 11.688-9.032 13.813-13.814 1.063-13.283-2.125-21.783-9.563-26.565-6.907-4.782-15.408-6.907-24.972-6.907-10.094 0-20.189 1.594-30.815 4.782-10.095 3.187-19.127 6.375-25.502 9.563zM2697.73 534.586c-8.5-1.063-14.876-4.25-19.126-9.032-3.72-4.25-5.844-9.564-5.844-14.877 0-5.844 2.125-11.157 6.375-16.47 4.782-5.313 11.689-7.97 20.19-7.97h32.94v-92.446c2.126-7.97 5.313-13.814 9.564-17.533 4.25-4.25 9.032-5.844 14.876-5.844 4.782 0 9.564 1.594 14.345 5.313 4.25 3.188 7.438 9.032 9.564 16.47v94.04h56.317c7.439 2.126 12.752 5.314 16.47 10.095 3.72 4.25 5.314 9.032 5.314 14.345 0 5.313-2.125 10.095-5.844 14.345-3.72 4.25-10.095 7.439-17.533 9.564h-54.724c-.532 30.284-.532 61.1 0 92.977.53 31.878.53 63.225.53 92.978 0 9.032-2.656 15.939-7.969 20.19-5.313 4.781-10.626 6.906-15.939 6.906-5.844 0-10.626-2.125-15.407-5.844-4.782-4.25-7.438-10.626-9.032-19.127v-94.04c0-32.41-.532-63.225-.532-94.04h-34.534zM3096.452 489.957c3.188-5.313 6.907-9.564 10.626-11.689 3.72-2.125 7.97-3.72 12.22-3.72 6.907 0 12.22 2.657 16.47 7.97 4.25 4.782 6.376 12.22 6.376 20.721-7.97 31.878-18.596 62.694-30.816 92.446a1319.829 1319.829 0 01-41.441 87.665c-14.876 28.159-30.284 56.85-46.754 84.477-16.47 28.159-32.41 56.318-48.349 85.008-3.188 4.25-6.375 7.438-10.626 9.032-3.719 1.594-7.438 2.656-11.157 2.656-5.844 0-10.626-2.125-14.877-6.375-4.25-4.25-6.906-10.626-6.906-18.064v-4.25c0-1.063.53-2.657 1.062-4.251a1497.165 1497.165 0 0139.848-70.132 2347.55 2347.55 0 0039.847-70.132c-15.939-12.22-29.753-25.502-42.504-38.253-12.22-13.283-23.377-27.096-33.472-41.973-10.094-14.345-18.595-30.284-26.033-47.286-7.439-17.001-14.346-35.597-19.659-55.786 0-10.095 2.126-17.533 6.376-22.846 3.72-5.313 9.563-7.97 16.47-7.97 5.313 0 10.095 1.594 14.345 4.782 4.782 3.188 7.97 9.032 10.095 16.47 4.25 15.94 9.032 31.347 15.408 45.16 5.844 13.815 13.282 27.097 21.252 38.786 7.97 12.22 17.002 23.377 26.565 34.003 10.095 10.626 21.252 21.252 33.472 31.347 12.751-25.503 24.44-51.005 35.597-76.507 10.626-26.034 19.658-53.13 26.565-81.29z" fill="#4d8d51" fill-rule="nonzero"/></g></g></svg>