<svg viewBox="0 0 498 154" xmlns="http://www.w3.org/2000/svg" fill-rule="evenodd" clip-rule="evenodd" stroke-linejoin="round" stroke-miterlimit="2"><path fill="none" d="M-.00013.000003h497.617808v153.164H-.000129z"/><path d="M104.46631 80.21909l53.960327-71.129575-71.129523 53.960368 4.905484-22.074696-36.791132 36.79116-2.452742-19.621952-30.16873 40.225001c-4.297817 5.73053-6.622403 12.703988-6.622403 19.867227 0 18.164715 14.947317 33.112044 33.11202 33.112044h1.994692c7.444072 0 14.675063-2.510384 20.517801-7.123075l37.57969-29.668085-19.621938-2.452744 36.791133-36.79116-22.07468 4.905488z" fill="#f98500" fill-rule="nonzero"/><circle cx="136" cy="376" r="72" fill="#ffba40" transform="matrix(.3066 0 0 .3066 8.809365 1.731283)"/><path fill="#fca61b" d="M60.31695 114.557507h4.905484v4.905488H60.31695zM52.958724 124.368483h4.905484v4.905488h-4.905484z"/><path fill="#ffba40" d="M63.235838 51.835016l29.449036-41.698234 4.007781 2.830467-29.449037 41.698234zM152.097392 72.05076l4.90754-3.539967 2.86953 3.978102-4.907541 3.539967zM112.831694 100.378668l34.352038-24.779233 2.86953 3.978102-34.35204 24.779233zM63.249618 15.100886l4.808977-7.35853 4.105633 2.683134-4.808976 7.35853zM26.378342 71.506423l34.32276-52.51951 4.105634 2.683135-34.32276 52.51951zM117.95016 122.523502l36.778798-19.916633 2.33501 4.311924-36.778797 19.916633zM95.875467 134.468868l17.1636-9.294517 2.335011 4.311924-17.1636 9.294517zM110.043003 26.183144l17.176193-18.72613 3.615342 3.31611-17.176193 18.72613zM100.227172 36.88972l6.747864-7.356775 3.615342 3.31611-6.747864 7.356774zM144.497073 47.915526l12.261206-11.24638 3.316315 3.61557-12.261206 11.24638zM127.334187 63.656716L140.71005 51.38794l3.316314 3.61557-13.375861 12.268778z"/><g><path fill="#f07800" d="M72.7738 74.094194l7.867993-7.868 3.468178 3.46818-7.867994 7.868z"/></g><g><path fill="#f07800" d="M58.567717 88.296608l10.831335-10.831343 3.468178 3.46818-10.831335 10.831343z"/></g><g><path fill="#f07800" d="M105.170094 58.872338l7.357088-7.357094 3.468177 3.46818-7.357088 7.357094z"/></g><g><path fill="#f07800" d="M73.284589 90.751692l28.304446-28.304467 3.468178 3.46818-28.304447 28.304467z"/></g><g><path fill="#f07800" d="M83.910219 97.292894l13.89677-13.89678 3.468178 3.46818-13.89677 13.89678z"/></g><g><path fill="#f07800" d="M75.732928 105.466573l4.496059-4.496062 3.468177 3.46818-4.496058 4.496062z"/></g><g fill-rule="nonzero"><path d="M6.994 0v-67.453h13.435l15.966 47.76c1.473 4.448 2.546 7.776 3.221 9.985.767-2.454 1.963-6.059 3.589-10.813l16.15-46.932h12.009V0H62.76v-56.456L43.159 0h-8.052L15.598-57.423V0H6.994z" fill="url(#_Linear1)" transform="matrix(.92448 0 0 .92449 174.273252 121.99999)"/><path d="M118.158-15.736l8.558 1.058c-1.349 5-3.849 8.881-7.5 11.641-3.65 2.761-8.312 4.141-13.987 4.141-7.147 0-12.814-2.201-17.002-6.602-4.187-4.402-6.28-10.575-6.28-18.52 0-8.221 2.116-14.601 6.349-19.141 4.234-4.54 9.724-6.81 16.473-6.81 6.533 0 11.871 2.224 16.012 6.672 4.141 4.448 6.211 10.705 6.211 18.773 0 .491-.015 1.227-.046 2.208H90.505c.307 5.368 1.825 9.479 4.555 12.331 2.73 2.853 6.135 4.28 10.215 4.28 3.037 0 5.629-.798 7.776-2.393 2.147-1.595 3.849-4.141 5.107-7.638zM90.965-29.125h27.285c-.368-4.111-1.411-7.194-3.129-9.249-2.638-3.19-6.058-4.785-10.26-4.785-3.804 0-7.002 1.273-9.594 3.819-2.592 2.546-4.026 5.951-4.302 10.215z" fill="url(#_Linear2)" transform="matrix(.92448 0 0 .92449 174.273252 121.99999)"/><path d="M168.817 0v-6.166c-3.098 4.847-7.653 7.27-13.665 7.27-3.896 0-7.477-1.073-10.744-3.221-3.267-2.147-5.798-5.145-7.592-8.995-1.795-3.849-2.692-8.274-2.692-13.274 0-4.877.813-9.302 2.439-13.275 1.626-3.972 4.064-7.016 7.316-9.133 3.251-2.116 6.886-3.175 10.904-3.175 2.945 0 5.568.621 7.868 1.864 2.301 1.242 4.172 2.86 5.614 4.854v-24.202h8.236V0h-7.684zm-26.181-24.386c0 6.257 1.319 10.935 3.957 14.033 2.638 3.098 5.752 4.648 9.341 4.648 3.619 0 6.694-1.48 9.225-4.441 2.531-2.96 3.796-7.476 3.796-13.55 0-6.687-1.288-11.595-3.865-14.724-2.577-3.129-5.751-4.693-9.524-4.693-3.681 0-6.756 1.503-9.226 4.509-2.469 3.006-3.704 7.745-3.704 14.218z" fill="url(#_Linear3)" transform="matrix(.92448 0 0 .92449 174.273252 121.99999)"/><path d="M189.568-57.929v-9.524h8.282v9.524h-8.282zm0 57.929v-48.864h8.282V0h-8.282z" fill="url(#_Linear4)" transform="matrix(.92448 0 0 .92449 174.273252 121.99999)"/><path d="M242.344-6.028c-3.068 2.608-6.02 4.448-8.858 5.522-2.837 1.073-5.881 1.61-9.133 1.61-5.368 0-9.494-1.311-12.377-3.934-2.883-2.622-4.325-5.974-4.325-10.053 0-2.393.544-4.578 1.633-6.557 1.089-1.978 2.516-3.566 4.279-4.762 1.764-1.196 3.75-2.101 5.959-2.715 1.626-.429 4.08-.843 7.362-1.242 6.687-.798 11.61-1.749 14.77-2.853.03-1.135.046-1.856.046-2.162 0-3.375-.783-5.752-2.347-7.132-2.117-1.871-5.261-2.807-9.432-2.807-3.896 0-6.772.683-8.628 2.048-1.855 1.365-3.228 3.78-4.118 7.246l-8.098-1.104c.736-3.466 1.948-6.265 3.635-8.397 1.687-2.132 4.126-3.773 7.316-4.923 3.19-1.151 6.886-1.726 11.089-1.726 4.172 0 7.561.491 10.168 1.473 2.608.981 4.525 2.216 5.752 3.704 1.227 1.487 2.086 3.366 2.577 5.636.276 1.411.414 3.957.414 7.638v11.043c0 7.699.176 12.569.529 14.609.353 2.039 1.05 3.995 2.093 5.866H244c-.859-1.718-1.411-3.727-1.656-6.028zm-.69-18.496c-3.007 1.227-7.516 2.27-13.528 3.129-3.405.49-5.813 1.042-7.224 1.656-1.411.613-2.5 1.511-3.267 2.692-.766 1.181-1.15 2.492-1.15 3.934 0 2.208.836 4.049 2.508 5.521 1.672 1.472 4.118 2.209 7.339 2.209 3.19 0 6.027-.698 8.512-2.094 2.484-1.396 4.31-3.305 5.475-5.728.89-1.872 1.335-4.632 1.335-8.282v-3.037z" fill="url(#_Linear5)" transform="matrix(.92448 0 0 .92449 174.273252 121.99999)"/><path d="M259.782-24.432c0-9.049 2.515-15.752 7.546-20.107 4.202-3.62 9.325-5.43 15.368-5.43 6.718 0 12.208 2.201 16.472 6.603 4.264 4.402 6.396 10.483 6.396 18.244 0 6.288-.943 11.234-2.83 14.838-1.886 3.605-4.632 6.404-8.236 8.398-3.604 1.993-7.538 2.99-11.802 2.99-6.84 0-12.369-2.193-16.587-6.579-4.218-4.387-6.327-10.706-6.327-18.957zm8.512 0c0 6.257 1.365 10.943 4.095 14.056 2.73 3.114 6.166 4.671 10.307 4.671 4.11 0 7.531-1.565 10.261-4.694 2.73-3.128 4.095-7.898 4.095-14.309 0-6.043-1.373-10.621-4.118-13.735-2.746-3.113-6.158-4.67-10.238-4.67-4.141 0-7.577 1.549-10.307 4.647-2.73 3.098-4.095 7.776-4.095 14.034z" fill="url(#_Linear6)" transform="matrix(.92448 0 0 .92449 174.273252 121.99999)"/><path d="M315.18 0v-48.864h7.454v7.407c1.902-3.466 3.658-5.751 5.269-6.855 1.61-1.105 3.381-1.657 5.314-1.657 2.791 0 5.629.89 8.512 2.669l-2.853 7.684c-2.024-1.196-4.049-1.795-6.073-1.795-1.81 0-3.436.545-4.877 1.634-1.442 1.089-2.47 2.6-3.083 4.532-.921 2.945-1.381 6.166-1.381 9.662V0h-8.282z" fill="url(#_Linear7)" transform="matrix(.92448 0 0 .92449 174.273252 121.99999)"/></g><defs><linearGradient id="_Linear1" x1="0" y1="0" x2="1" y2="0" gradientUnits="userSpaceOnUse" gradientTransform="translate(177.217 264.038) scale(288.032)"><stop offset="0" stop-color="#f07800"/><stop offset="1" stop-color="#ffba40"/></linearGradient><linearGradient id="_Linear2" x1="0" y1="0" x2="1" y2="0" gradientUnits="userSpaceOnUse" gradientTransform="translate(177.217 264.038) scale(288.032)"><stop offset="0" stop-color="#f07800"/><stop offset="1" stop-color="#ffba40"/></linearGradient><linearGradient id="_Linear3" x1="0" y1="0" x2="1" y2="0" gradientUnits="userSpaceOnUse" gradientTransform="translate(177.217 264.038) scale(288.032)"><stop offset="0" stop-color="#f07800"/><stop offset="1" stop-color="#ffba40"/></linearGradient><linearGradient id="_Linear4" x1="0" y1="0" x2="1" y2="0" gradientUnits="userSpaceOnUse" gradientTransform="translate(177.217 264.038) scale(288.032)"><stop offset="0" stop-color="#f07800"/><stop offset="1" stop-color="#ffba40"/></linearGradient><linearGradient id="_Linear5" x1="0" y1="0" x2="1" y2="0" gradientUnits="userSpaceOnUse" gradientTransform="translate(177.217 264.038) scale(288.032)"><stop offset="0" stop-color="#f07800"/><stop offset="1" stop-color="#ffba40"/></linearGradient><linearGradient id="_Linear6" x1="0" y1="0" x2="1" y2="0" gradientUnits="userSpaceOnUse" gradientTransform="translate(177.217 264.038) scale(288.032)"><stop offset="0" stop-color="#f07800"/><stop offset="1" stop-color="#ffba40"/></linearGradient><linearGradient id="_Linear7" x1="0" y1="0" x2="1" y2="0" gradientUnits="userSpaceOnUse" gradientTransform="translate(177.217 264.038) scale(288.032)"><stop offset="0" stop-color="#f07800"/><stop offset="1" stop-color="#ffba40"/></linearGradient></defs></svg>