<svg id="api" viewBox="0 0 501.796 501.796"><path d="m343.973 400.1v-9.23-173.46c0-17.52-14.2-31.73-31.73-31.73h-277.11c-17.52 0-31.73 14.21-31.73 31.73v173.46 9.23z" fill="#edf5fa"></path><path d="m312.243 185.68h-23.511c17.53 0 31.73 14.21 31.73 31.73v173.46 9.23h23.511v-9.23-173.46c0-17.52-14.2-31.73-31.73-31.73z" fill="#d0e7f2"></path><path d="m230.043 412.378 4.26 70.852h-122.66l4.26-70.852h28.34v18.752c0 16.26 13.18 29.45 29.45 29.45 16.26 0 29.45-13.19 29.45-29.45v-18.752z" fill="#07b2cd"></path><g fill="#0199b1"><path d="m153.694 460.58c3.51 0 6.875-.617 9.997-1.745-11.343-4.095-19.449-14.955-19.449-27.705v-18.752h-19.999v18.752c.001 16.26 13.181 29.45 29.451 29.45z"></path><path d="m230.043 412.378h-19.999l4.26 70.852h19.999z"></path></g><path d="m3.403 390.875v9.945c0 12.539 10.165 22.704 22.704 22.704h295.164c12.539 0 22.704-10.165 22.704-22.704v-9.945z" fill="#30dde5"></path><path d="m320.463 390.875v9.945c0 12.539-10.165 22.704-22.704 22.704h23.512c12.539 0 22.704-10.165 22.704-22.704v-9.945z" fill="#02c7dd"></path><g><path d="m171.64 286.206h-36.375c-4.142 0-7.5-3.357-7.5-7.5s3.358-7.5 7.5-7.5h36.375c4.142 0 7.5 3.357 7.5 7.5s-3.358 7.5-7.5 7.5z" fill="#bd80e1"></path></g><g><path d="m171.64 315.656h-36.375c-4.142 0-7.5-3.357-7.5-7.5s3.358-7.5 7.5-7.5h36.375c4.142 0 7.5 3.357 7.5 7.5s-3.358 7.5-7.5 7.5z" fill="#bd80e1"></path></g><g><path d="m401.677 301.36h-193.399c-4.142 0-7.5-3.357-7.5-7.5s3.358-7.5 7.5-7.5h193.399c9.028 0 16.374-7.346 16.374-16.374v-118.551c0-4.143 3.357-7.5 7.5-7.5s7.5 3.357 7.5 7.5v118.551c0 17.3-14.074 31.374-31.374 31.374z" fill="#017297"></path></g><g><circle cx="51.806" cy="265.267" fill="#d0e7f2" r="7.518"></circle><g><path d="m102.546 272.767h-15.74c-4.142 0-7.5-3.357-7.5-7.5s3.358-7.5 7.5-7.5h15.74c4.142 0 7.5 3.357 7.5 7.5s-3.358 7.5-7.5 7.5z" fill="#d0e7f2"></path></g></g><g><circle cx="103.028" cy="293.512" fill="#d0e7f2" r="7.518"></circle><g><path d="m68.028 301.012h-18.74c-4.142 0-7.5-3.357-7.5-7.5s3.358-7.5 7.5-7.5h18.74c4.142 0 7.5 3.357 7.5 7.5s-3.358 7.5-7.5 7.5z" fill="#d0e7f2"></path></g></g><path d="m183.589 326.332h-9.221c-6.229 0-11.278-5.049-11.278-11.278v-44.009c0-6.229 5.049-11.278 11.278-11.278h9.221c18.382 0 33.283 14.901 33.283 33.283 0 18.381-14.902 33.282-33.283 33.282z" fill="#6cf5c2"></path><path d="m183.589 259.767h-9.221c-1.671 0-3.253.373-4.679 1.026 14.405 3.661 25.061 16.714 25.061 32.257 0 15.544-10.656 28.596-25.061 32.257 1.427.653 3.008 1.026 4.679 1.026h9.221c18.382 0 33.283-14.901 33.283-33.283 0-18.382-14.902-33.283-33.283-33.283z" fill="#00f2a6"></path><g><path d="m102.114 329.257h-52.826c-4.142 0-7.5-3.357-7.5-7.5s3.358-7.5 7.5-7.5h52.826c4.142 0 7.5 3.357 7.5 7.5s-3.357 7.5-7.5 7.5z" fill="#d0e7f2"></path></g><g><path d="m68.104 501.794c-1.241 0-2.498-.308-3.658-.957-3.614-2.023-4.903-6.595-2.879-10.208 5.146-9.188 14.883-14.896 25.414-14.896h173.416c10.53 0 20.268 5.708 25.414 14.896 2.023 3.614.734 8.185-2.879 10.209-3.614 2.026-8.185.734-10.209-2.879-2.496-4.457-7.219-7.226-12.326-7.226h-173.416c-5.107 0-9.831 2.769-12.326 7.225-1.375 2.455-3.924 3.836-6.551 3.836z" fill="#30dde5"></path></g><g><path d="m498.392 49.12v88.58c0 13.123-10.634 23.768-23.758 23.768h-136.446c-13.123 0-23.768-10.644-23.768-23.768v-88.58c0-13.123 10.644-23.768 23.768-23.768h136.446c13.123 0 23.758 10.645 23.758 23.768z" fill="#bd80e1"></path><path d="m474.634 25.352h-21.134c13.123 0 23.758 10.644 23.758 23.768v88.58c0 13.124-10.634 23.768-23.758 23.768h21.134c13.123 0 23.758-10.644 23.758-23.768v-88.58c0-13.123-10.635-23.768-23.758-23.768z" fill="#af66da"></path></g><path d="m498.393 23.77v25.35h-183.97v-25.35c0-13.12 10.64-23.77 23.77-23.77h136.44c13.12 0 23.76 10.65 23.76 23.77z" fill="#30dde5"></path><circle cx="281.25" cy="293.86" fill="#02c7dd" r="15.036"></circle><path d="m498.393 23.77v25.35h-21.14v-25.35c0-13.12-10.63-23.77-23.75-23.77h21.13c13.12 0 23.76 10.65 23.76 23.77z" fill="#02c7dd"></path><circle cx="469.695" cy="24.558" fill="#bd80e1" r="7.518"></circle><g fill="#edf5fa"><path d="m460.614 73.999c-3.278 0-5.935 2.657-5.935 5.935v35.803c0 3.278 2.657 5.935 5.935 5.935s5.935-2.657 5.935-5.935v-35.803c0-3.278-2.657-5.935-5.935-5.935z"></path><path d="m382.67 74.841c-2.743 0-5.045 1.863-5.725 4.392-2.914-1.492-6.211-2.34-9.703-2.34-11.781 0-21.365 9.584-21.365 21.365 0 11.78 9.584 21.364 21.365 21.364 3.493 0 6.789-.848 9.703-2.34.68 2.529 2.982 4.392 5.726 4.392 3.278 0 5.935-2.657 5.935-5.935v-34.963c-.001-3.278-2.658-5.935-5.936-5.935zm-15.429 32.909c-5.235 0-9.494-4.259-9.494-9.494s4.259-9.494 9.494-9.494c5.234 0 9.494 4.259 9.494 9.494-.001 5.235-4.26 9.494-9.494 9.494z"></path><path d="m422.142 75.619c-3.789 0-7.348.996-10.437 2.733-1.056-1.642-2.895-2.733-4.992-2.733-3.278 0-5.935 2.657-5.935 5.935v50.211c0 3.278 2.657 5.935 5.935 5.935s5.935-2.657 5.935-5.935v-15.649c2.862 1.426 6.085 2.233 9.494 2.233 11.78 0 21.364-9.584 21.364-21.365.001-11.781-9.583-21.365-21.364-21.365zm0 30.859c-5.235 0-9.494-4.259-9.494-9.494 0-5.234 4.259-9.494 9.494-9.494 5.234 0 9.494 4.259 9.494 9.494 0 5.234-4.259 9.494-9.494 9.494z"></path></g></svg>