<svg id="cleanSoils" viewBox="0 0 675 112.499997"><g id="surface1"><path style=" stroke:none;fill-rule:nonzero;fill:rgb(28.239441%,69.40918%,86.268616%);fill-opacity:1;" d="M 44.175781 94.171875 C 36.035156 94.171875 26.457031 92.445312 19.765625 86.050781 C 12.964844 79.464844 9.257812 69.050781 9.257812 58.835938 C 9.257812 37.445312 23.679688 23.5 43.65625 23.5 C 65.289062 23.5 72.703125 39.734375 72.703125 43.082031 C 72.703125 44.800781 71.46875 47.089844 68.683594 47.089844 C 65.699219 47.089844 63.949219 43.9375 62.507812 41.457031 C 60.652344 38.113281 57.765625 35.339844 54.574219 33.53125 C 52.414062 32.289062 49.117188 30.855469 44.070312 30.855469 C 33.773438 30.855469 19.351562 36.773438 19.351562 59.214844 C 19.351562 81.660156 33.5625 86.816406 43.246094 86.816406 C 53.957031 86.816406 61.0625 81.371094 64.671875 71.824219 C 65.394531 70.007812 66.214844 67.910156 69.09375 67.910156 C 71.058594 67.910156 73.320312 69.242188 73.320312 71.730469 C 73.320312 77.554688 65.289062 94.171875 44.175781 94.171875 "></path><path style=" stroke:none;fill-rule:nonzero;fill:rgb(28.239441%,69.40918%,86.268616%);fill-opacity:1;" d="M 128.4375 85.667969 C 131.527344 85.667969 135.339844 85.574219 135.339844 89.394531 C 135.339844 93.214844 131.632812 93.023438 128.4375 93.023438 L 95.582031 93.023438 C 88.164062 93.023438 87.34375 92.261719 87.34375 85.382812 L 87.34375 31.050781 C 87.34375 27.800781 87.34375 26.082031 88.578125 24.933594 C 89.300781 24.265625 90.535156 23.5 92.1875 23.5 C 93.527344 23.5 94.964844 23.980469 95.894531 24.933594 C 97.234375 26.082031 97.234375 27.898438 97.234375 31.050781 L 97.234375 85.667969 Z M 128.4375 85.667969 "></path><path style=" stroke:none;fill-rule:nonzero;fill:rgb(28.239441%,69.40918%,86.268616%);fill-opacity:1;" d="M 156.566406 53.96875 L 188.089844 53.96875 C 191.074219 53.96875 194.675781 53.96875 194.675781 57.597656 C 194.675781 61.316406 191.171875 61.316406 188.089844 61.316406 L 156.566406 61.316406 L 156.566406 85.667969 L 192.308594 85.667969 C 195.300781 85.667969 199.105469 85.574219 199.105469 89.296875 C 199.105469 93.117188 195.398438 93.023438 192.308594 93.023438 L 154.921875 93.023438 C 150.492188 93.023438 149.667969 93.023438 148.125 91.683594 C 146.675781 90.445312 146.675781 89.203125 146.675781 85.382812 L 146.675781 32.289062 C 146.675781 28.945312 146.578125 27.515625 148.015625 26.082031 C 149.355469 24.742188 150.597656 24.648438 154.921875 24.648438 L 190.867188 24.648438 C 193.851562 24.648438 197.667969 24.554688 197.667969 28.277344 C 197.667969 32.097656 193.960938 32.003906 190.867188 32.003906 L 156.566406 32.003906 Z M 156.566406 53.96875 "></path><path style=" stroke:none;fill-rule:nonzero;fill:rgb(28.239441%,69.40918%,86.268616%);fill-opacity:1;" d="M 251.753906 65.902344 L 237.949219 33.914062 L 224.664062 65.902344 Z M 221.886719 73.257812 L 215.496094 88.53125 C 213.953125 92.160156 213.226562 94.171875 209.832031 94.171875 C 207.152344 94.171875 205.097656 92.070312 205.097656 90.15625 C 205.097656 88.726562 205.605469 87.578125 206.535156 85.382812 L 229.917969 31.621094 C 232.179688 26.273438 233.3125 23.5 238.054688 23.5 C 239.90625 23.5 241.96875 24.265625 243 25.410156 C 244.027344 26.464844 245.367188 29.425781 246.296875 31.527344 L 270.5 84.996094 C 271.527344 87.386719 272.046875 88.53125 272.046875 89.964844 C 272.046875 91.785156 270.082031 94.171875 267.097656 94.171875 C 263.699219 94.171875 262.976562 92.160156 261.332031 88.339844 L 254.738281 73.257812 Z M 221.886719 73.257812 "></path><path style=" stroke:none;fill-rule:nonzero;fill:rgb(28.239441%,69.40918%,86.268616%);fill-opacity:1;" d="M 331.28125 30.855469 C 331.171875 27.898438 331.171875 26.9375 331.898438 25.695312 C 332.414062 24.648438 333.960938 23.5 335.917969 23.5 C 337.257812 23.5 338.488281 23.980469 339.410156 24.839844 C 340.75 25.988281 340.75 27.707031 340.75 30.855469 L 340.75 84.90625 C 340.75 89.585938 340.75 91.207031 338.695312 92.832031 C 337.5625 93.695312 336.222656 94.171875 334.675781 94.171875 C 331.484375 94.171875 330.457031 92.730469 327.464844 88.625 L 291.519531 38.875 L 291.929688 86.816406 C 291.929688 89.871094 291.929688 90.730469 291.316406 91.976562 C 290.796875 93.023438 289.152344 94.171875 287.195312 94.171875 C 285.960938 94.171875 284.621094 93.695312 283.691406 92.832031 C 282.351562 91.683594 282.351562 89.964844 282.351562 86.816406 L 282.351562 32.382812 C 282.351562 27.707031 282.351562 26.464844 284.308594 24.839844 C 284.722656 24.457031 285.960938 23.5 288.222656 23.5 C 291.207031 23.5 292.242188 24.933594 295.023438 28.847656 L 331.589844 79.464844 Z M 331.28125 30.855469 "></path><path style=" stroke:none;fill-rule:nonzero;fill:rgb(28.239441%,69.40918%,86.268616%);fill-opacity:1;" d="M 406.269531 93.15625 C 399.261719 93.15625 390.8125 91.71875 385.253906 86.46875 C 381.136719 82.550781 378.660156 77.019531 378.660156 72.90625 C 378.660156 70.902344 380.519531 68.992188 382.984375 68.992188 C 385.765625 68.992188 386.386719 70.523438 388.140625 75.007812 C 389.375 78.160156 392.359375 86.179688 405.644531 86.179688 C 414.8125 86.179688 423.980469 81.785156 423.980469 73.382812 C 423.980469 64.507812 414.300781 62.40625 409.148438 61.351562 C 395.554688 58.585938 392.054688 57.722656 387.515625 54.476562 C 384.941406 52.566406 380.617188 48.460938 380.617188 41.105469 C 380.617188 28.503906 392.464844 22.394531 405.75 22.394531 C 413.371094 22.394531 423.253906 24.203125 428.203125 32.132812 C 429.542969 34.328125 430.570312 37.097656 430.570312 39.195312 C 430.570312 41.207031 428.921875 43.6875 426.140625 43.6875 C 423.058594 43.6875 422.128906 41.296875 421.304688 39.101562 C 420.269531 36.335938 419.347656 34.234375 416.257812 32.132812 C 413.683594 30.414062 409.664062 29.363281 405.4375 29.363281 C 395.859375 29.363281 390.097656 34.519531 390.097656 40.15625 C 390.097656 48.175781 399.261719 50.179688 406.46875 51.804688 C 418.527344 54.476562 422.949219 56.101562 426.765625 58.777344 C 431.296875 61.925781 433.457031 67.945312 433.457031 72.140625 C 433.457031 83.503906 424.191406 93.15625 406.269531 93.15625 "></path><path style=" stroke:none;fill-rule:nonzero;fill:rgb(28.239441%,69.40918%,86.268616%);fill-opacity:1;" d="M 536.9375 85.972656 C 536.9375 89.214844 536.9375 90.933594 535.597656 92.082031 C 534.878906 92.75 533.640625 93.515625 531.992188 93.515625 C 530.761719 93.515625 529.3125 93.035156 528.390625 92.179688 C 527.046875 90.933594 527.046875 89.214844 527.046875 85.972656 L 527.046875 30.394531 C 527.046875 27.148438 527.046875 25.429688 528.390625 24.285156 C 529.109375 23.613281 530.242188 22.851562 531.992188 22.851562 C 533.226562 22.851562 534.671875 23.328125 535.597656 24.285156 C 536.9375 25.429688 536.9375 27.242188 536.9375 30.394531 Z M 536.9375 85.972656 "></path><path style=" stroke:none;fill-rule:nonzero;fill:rgb(28.239441%,69.40918%,86.268616%);fill-opacity:1;" d="M 596.785156 85.015625 C 599.878906 85.015625 603.6875 84.925781 603.6875 88.738281 C 603.6875 92.558594 599.976562 92.375 596.785156 92.375 L 563.925781 92.375 C 556.515625 92.375 555.6875 91.605469 555.6875 84.730469 L 555.6875 30.394531 C 555.6875 27.148438 555.6875 25.429688 556.921875 24.285156 C 557.644531 23.613281 558.878906 22.851562 560.53125 22.851562 C 561.871094 22.851562 563.308594 23.328125 564.238281 24.285156 C 565.578125 25.429688 565.578125 27.242188 565.578125 30.394531 L 565.578125 85.015625 Z M 596.785156 85.015625 "></path><path style=" stroke:none;fill-rule:nonzero;fill:rgb(28.239441%,69.40918%,86.268616%);fill-opacity:1;" d="M 639.234375 93.613281 C 632.226562 93.613281 623.777344 92.179688 618.21875 86.929688 C 614.101562 83.015625 611.625 77.476562 611.625 73.371094 C 611.625 71.359375 613.484375 69.457031 615.949219 69.457031 C 618.730469 69.457031 619.351562 70.980469 621.105469 75.464844 C 622.339844 78.617188 625.324219 86.640625 638.609375 86.640625 C 647.777344 86.640625 656.945312 82.25 656.945312 73.847656 C 656.945312 64.964844 647.265625 62.863281 642.113281 61.816406 C 628.519531 59.042969 625.019531 58.1875 620.480469 54.9375 C 617.90625 53.027344 613.582031 48.917969 613.582031 41.570312 C 613.582031 28.960938 625.429688 22.851562 638.714844 22.851562 C 646.335938 22.851562 656.21875 24.667969 661.167969 32.589844 C 662.507812 34.785156 663.535156 37.558594 663.535156 39.660156 C 663.535156 41.664062 661.886719 44.144531 659.105469 44.144531 C 656.023438 44.144531 655.09375 41.753906 654.269531 39.558594 C 653.242188 36.792969 652.3125 34.691406 649.222656 32.589844 C 646.648438 30.871094 642.628906 29.824219 638.402344 29.824219 C 628.832031 29.824219 623.0625 34.976562 623.0625 40.613281 C 623.0625 48.632812 632.226562 50.636719 639.4375 52.261719 C 651.492188 54.9375 655.914062 56.5625 659.730469 59.234375 C 664.261719 62.386719 666.421875 68.402344 666.421875 72.601562 C 666.421875 83.96875 657.15625 93.613281 639.234375 93.613281 "></path><path style=" stroke:none;fill-rule:nonzero;fill:rgb(45.489502%,76.469421%,17.248535%);fill-opacity:1;" d="M 439.480469 19.699219 C 439.480469 19.699219 458.332031 23.757812 485.316406 24.988281 C 511.4375 26.175781 523.523438 62.789062 511.019531 81.980469 C 511.019531 81.980469 482.230469 48.933594 464.601562 41.734375 C 464.601562 41.734375 503.824219 79.632812 505.296875 86.683594 C 505.296875 86.683594 443.453125 125.023438 439.480469 19.699219 "></path></g></svg>