<svg id="construction" viewBox="0 0 512 512"><g><path d="m168 200h16v16h-16z"></path><path d="m224 368h16v16h-16z"></path><path d="m272 368h16v16h-16z"></path><path d="m248 336h16v16h-16z"></path><path d="m64 312h16v16h-16z"></path><path d="m64 360h16v16h-16z"></path><path d="m88 336h16v16h-16z"></path><path d="m64 408h16v16h-16z"></path><path d="m64 448h16v16h-16z"></path><path d="m88 384h16v16h-16z"></path><path d="m462.246 480-6.485-25.94a8 8 0 0 0 -7.761-6.06h-16v-136h-16v9.186l-32 34.448v-36.208l32-34.448v11.022h16v-160h40a8 8 0 0 0 7.155-4.422l16-32a8 8 0 0 0 -1.5-9.235l-53.655-53.657v-12.686a8 8 0 0 0 -8-8h-24a8 8 0 0 0 -7.311 4.751l-5.2 11.71-348.389 39.59a8 8 0 0 0 -7.1 7.949v8h-16a8 8 0 0 0 -7.155 11.578l16 32a8 8 0 0 0 7.155 4.422h40v-16h-35.056l-8-16h99.056v16h-40v16h72v32h-8a8 8 0 0 0 -7.311 4.751l-16 36a8 8 0 0 0 .365 7.218l16 28a8 8 0 0 0 6.946 4.031h8v12.687l-21.657 21.656a8 8 0 0 0 -1.932 8.187l8 24a8 8 0 0 0 7.589 5.47h32a8 8 0 0 0 8-8v-24h-16v16h-18.234l-4.613-13.839 20.5-20.5a8 8 0 0 0 2.347-5.661v-16h8a8 8 0 0 0 6.946-4.031l16-28a8 8 0 0 0 .365-7.218l-16-36a8 8 0 0 0 -7.311-4.751h-8v-32h99.056l29.789 59.578a8 8 0 0 0 7.155 4.422h48v248h-16a8 8 0 0 0 -7.761 6.06l-6.485 25.94h-17.754v-120a8 8 0 0 0 -1.685-4.911l-14.847-19.089h.532v-24h-16v4.113l-25.685-33.024a8 8 0 0 0 -12.336-.357l-56 64a8 8 0 0 0 -1.979 5.268v52.686l-26.343-26.343a8 8 0 0 0 -11.314 0l-18.343 18.343v-76.686a8 8 0 0 0 -3.088-6.314l-72-56a8 8 0 0 0 -4.912-1.686v-32h-16v32a8 8 0 0 0 -8 8v96h16v-88h5.255l66.745 51.913v88.773l-13.657 13.657a8 8 0 0 0 -2.343 5.657v48h-56v-104h-16v104h-16v16h480v-16zm-263.2-268.452-11.689 20.452h-22.714l-11.687-20.452 12.244-27.548h21.6zm216.954 133.146v40.492l-32 34.448v-40.492zm0-208.694v1.186l-32 34.448v-35.634zm-32 59.142 32-34.448v36.776l-32 34.448zm0 100.776v-40.492l32-34.448v40.492zm83.056-175.918h-251.056v-16h259.056zm1.63-32h-28.686v-28.686zm-55.486-56h10.8v56h-35.69zm-357.2 55.143 331.947-37.722-17.147 38.579h-314.8zm96 32.857v-16h48v16zm172.944 64-8-16h19.056v-16h-27.056l-8-16h67.056v48zm59.056 259.142 32-34.448v39.306h-32zm-152 4.858v32h-16v-48a8 8 0 0 0 -2.343-5.657l-5.657-5.657v-4.686h96v24h-64a8 8 0 0 0 -8 8zm23.637-147.437 48.363 62.182v37.255h-96v-44.994zm-87.637 179.437v-32h-16v32h-32v-44.687l40-40 40 40v44.687zm80 0v-24h56v24zm106.246 0 4-16h83.508l4 16z"></path></g></svg>