<svg id="dashboard" viewBox="0 0 502.545 502.545"><path d="m433.676 107.592v345.281c0 18.29-14.83 33.13-33.13 33.13h-291.385c-18.3 0-33.13-14.84-33.13-33.13l-.09-7.931-52.922-35.938v-301.412c0-17.53 14.21-31.73 31.73-31.73h347.197c17.52 0 31.73 14.2 31.73 31.73z" fill="#edf5fa"></path><path d="m401.946 75.862h-21.028c17.52 0 31.73 14.2 31.73 31.73v345.281c0 18.29-14.83 33.13-33.13 33.13h21.028c18.3 0 33.13-14.84 33.13-33.13v-345.281c0-17.53-14.21-31.73-31.73-31.73z" fill="#d0e7f2"></path><path d="m474.024 145.777h-72.193c-15.752 0-28.521-12.769-28.521-28.521v-72.194c0-15.752 12.769-28.521 28.521-28.521h72.193c15.752 0 28.521 12.769 28.521 28.521v72.193c0 15.752-12.769 28.522-28.521 28.522z" fill="#017297"></path><path d="m474.024 16.541h-23.2c15.752 0 28.521 12.769 28.521 28.521v72.193c0 15.752-12.769 28.521-28.521 28.521h23.2c15.752 0 28.521-12.769 28.521-28.521v-72.193c0-15.752-12.769-28.521-28.521-28.521z" fill="#025f80"></path><path d="m274.906 208.727h-94.483c-6.814 0-12.338-5.524-12.338-12.338v-18.458c0-6.814 5.524-12.338 12.338-12.338h94.483c6.814 0 12.338 5.524 12.338 12.338v18.458c-.001 6.814-5.524 12.338-12.338 12.338z" fill="#00f2a6"></path><path d="m274.906 165.593h-22.899c6.814 0 12.338 5.524 12.338 12.338v18.458c0 6.814-5.524 12.338-12.338 12.338h22.899c6.814 0 12.338-5.524 12.338-12.338v-18.458c-.001-6.814-5.524-12.338-12.338-12.338z" fill="#05e39c"></path><path d="m385.085 276.855h-47.266c-6.814 0-12.338-5.524-12.338-12.338v-86.586c0-6.814 5.524-12.338 12.338-12.338h47.266c6.814 0 12.338 5.524 12.338 12.338v86.586c0 6.815-5.524 12.338-12.338 12.338z" fill="#af66da"></path><path d="m385.085 165.593h-22.899c6.814 0 12.338 5.524 12.338 12.338v86.586c0 6.814-5.524 12.338-12.338 12.338h22.899c6.814 0 12.338-5.524 12.338-12.338v-86.586c0-6.814-5.524-12.338-12.338-12.338z" fill="#9857bd"></path><path d="m274.906 276.855h-94.483c-6.814 0-12.338-5.524-12.338-12.338v-18.457c0-6.814 5.524-12.338 12.338-12.338h94.483c6.814 0 12.338 5.524 12.338 12.338v18.458c-.001 6.814-5.524 12.337-12.338 12.337z" fill="#fe5ca7"></path><path d="m274.906 233.722h-22.899c6.814 0 12.338 5.524 12.338 12.338v18.458c0 6.814-5.524 12.338-12.338 12.338h22.899c6.814 0 12.338-5.524 12.338-12.338v-18.458c-.001-6.814-5.524-12.338-12.338-12.338z" fill="#fe3d97"></path><path d="m31.505 312.885c0-11.679 9.468-21.147 21.147-21.147h72.99v-215.876h-93.912c-17.52 0-31.73 14.2-31.73 31.73v304.22c0 18.297 14.833 33.13 33.13 33.13h92.512v-110.911h-72.99c-11.679 0-21.147-9.467-21.147-21.146z" fill="#30dde5"></path><g fill="#02c7dd"><path d="m52.652 291.738h-22.06c-11.679 0-21.146 9.468-21.146 21.147s9.468 21.147 21.146 21.147h22.06c-11.679 0-21.147-9.468-21.147-21.147s9.468-21.147 21.147-21.147z"></path><path d="m103.582 75.862h22.06v215.876h-22.06z"></path><path d="m103.582 334.031h22.06v110.911h-22.06z"></path></g><circle cx="437.927" cy="59.013" fill="#d0e7f2" r="19.402"></circle><path d="m437.927 39.61c-2.817 0-5.487.614-7.902 1.693 6.773 3.027 11.5 9.811 11.5 17.709s-4.727 14.682-11.5 17.709c2.416 1.08 5.085 1.693 7.902 1.693 10.716 0 19.402-8.687 19.402-19.402s-8.686-19.402-19.402-19.402z" fill="#b7d9eb"></path><path d="m405.15 117.337c-3.536 0-6.176-3.201-5.572-6.685 3.17-18.31 19.133-32.236 38.35-32.236 19.216 0 35.18 13.926 38.35 32.236.603 3.484-2.037 6.685-5.572 6.685z" fill="#d0e7f2"></path><path d="m476.277 110.651c-3.17-18.31-19.133-32.236-38.35-32.236-3.063 0-6.042.357-8.901 1.026 15.078 3.528 26.784 15.818 29.448 31.21.603 3.484-2.037 6.685-5.572 6.685h17.802c3.536.001 6.176-3.2 5.573-6.685z" fill="#b7d9eb"></path><g><path d="m272.668 415.119c-4.142 0-7.5-3.358-7.5-7.5v-37.884c0-4.142 3.358-7.5 7.5-7.5s7.5 3.358 7.5 7.5v37.884c0 4.142-3.357 7.5-7.5 7.5z" fill="#025f80"></path></g><g><path d="m243.684 415.119c-4.142 0-7.5-3.358-7.5-7.5v-61.789c0-4.142 3.358-7.5 7.5-7.5s7.5 3.358 7.5 7.5v61.789c0 4.142-3.358 7.5-7.5 7.5z" fill="#017297"></path></g><g><path d="m214.698 415.119c-4.142 0-7.5-3.358-7.5-7.5v-24.718c0-4.142 3.358-7.5 7.5-7.5s7.5 3.358 7.5 7.5v24.718c0 4.142-3.358 7.5-7.5 7.5z" fill="#30dde5"></path></g><g><path d="m185.713 415.119c-4.142 0-7.5-3.358-7.5-7.5v-78.833c0-4.142 3.358-7.5 7.5-7.5s7.5 3.358 7.5 7.5v78.833c0 4.142-3.358 7.5-7.5 7.5z" fill="#02c7dd"></path></g><g><path d="m320.038 400.379c-.833 0-1.68-.139-2.512-.431-3.908-1.374-5.947-5.697-4.574-9.604.294-.837 7.478-20.505 31.034-20.505h.32.318c8.481 0 17.21-.033 23.21-2.756 3.911-1.774 8.399-5.329 8.399-17.161 0-4.142 3.358-7.5 7.5-7.5s7.5 3.358 7.5 7.5c0 15.272-5.788 25.642-17.202 30.821-9.029 4.097-20.003 4.102-29.728 4.096h-.319c-12.539 0-16.502 9.481-16.913 10.563-1.078 3.075-3.952 4.977-7.033 4.977z" fill="#fe5ca7"></path></g><g><path d="m392.422 444.995h-71.941c-4.142 0-7.5-3.358-7.5-7.5s3.358-7.5 7.5-7.5h71.941c4.142 0 7.5 3.358 7.5 7.5s-3.358 7.5-7.5 7.5z" fill="#30dde5"></path></g><g><path d="m287.244 444.995h-111.266c-4.142 0-7.5-3.358-7.5-7.5s3.358-7.5 7.5-7.5h111.266c4.142 0 7.5 3.358 7.5 7.5s-3.358 7.5-7.5 7.5z" fill="#30dde5"></path></g><g><circle cx="31.505" cy="114.541" fill="#02c7dd" r="7.379"></circle><g><path d="m96.596 122.041h-36.655c-4.142 0-7.5-3.358-7.5-7.5s3.358-7.5 7.5-7.5h36.654c4.142 0 7.5 3.358 7.5 7.5s-3.357 7.5-7.499 7.5z" fill="#edf5fa"></path></g></g><g><circle cx="31.505" cy="158.247" fill="#02c7dd" r="7.379"></circle><g><path d="m96.596 165.747h-36.655c-4.142 0-7.5-3.358-7.5-7.5s3.358-7.5 7.5-7.5h36.654c4.142 0 7.5 3.358 7.5 7.5s-3.357 7.5-7.499 7.5z" fill="#edf5fa"></path></g></g><g><circle cx="31.505" cy="201.952" fill="#02c7dd" r="7.379"></circle><g><path d="m96.596 209.452h-36.655c-4.142 0-7.5-3.358-7.5-7.5s3.358-7.5 7.5-7.5h36.654c4.142 0 7.5 3.358 7.5 7.5s-3.357 7.5-7.499 7.5z" fill="#edf5fa"></path></g></g><g><circle cx="31.505" cy="245.657" fill="#02c7dd" r="7.379"></circle><g><path d="m96.596 253.157h-36.655c-4.142 0-7.5-3.358-7.5-7.5s3.358-7.5 7.5-7.5h36.654c4.142 0 7.5 3.358 7.5 7.5s-3.357 7.5-7.499 7.5z" fill="#edf5fa"></path></g></g><g><circle cx="31.505" cy="371.362" fill="#02c7dd" r="7.379"></circle><g><path d="m96.596 378.862h-36.655c-4.142 0-7.5-3.358-7.5-7.5s3.358-7.5 7.5-7.5h36.654c4.142 0 7.5 3.358 7.5 7.5s-3.357 7.5-7.499 7.5z" fill="#edf5fa"></path></g></g><g><path d="m211.613 122.041h-34.799c-4.142 0-7.5-3.358-7.5-7.5s3.358-7.5 7.5-7.5h34.799c4.142 0 7.5 3.358 7.5 7.5s-3.358 7.5-7.5 7.5z" fill="#30dde5"></path></g><circle cx="214.698" cy="349.83" fill="#30dde5" r="7.379"></circle></svg>