<svg id="ecommerce" viewBox="0 0 497 497"><g><path d="m496.997 110.472v216.368c0 22.002-17.833 39.856-39.856 39.856h-308.813l-48.848-8.243-48.848 8.243h-10.776c-22.012 0-39.856-17.854-39.856-39.856v-216.368c0-21.086 17.098-38.174 38.174-38.174h420.649c21.086 0 38.174 17.088 38.174 38.174z" fill="#edf5fa"></path><path d="m458.823 72.298h-22.938c21.086 0 38.174 17.088 38.174 38.174v216.368c0 22.002-17.833 39.856-39.856 39.856h22.938c22.022 0 39.856-17.854 39.856-39.856v-216.368c0-21.086-17.088-38.174-38.174-38.174z" fill="#d0e7f2"></path></g><g><path d="m299.81 282.05c-4.143 0-7.5-3.357-7.5-7.5v-76.552c0-9.028-7.346-16.374-16.374-16.374h-57.375c-4.142 0-7.5-3.357-7.5-7.5s3.358-7.5 7.5-7.5h57.375c17.3 0 31.374 14.074 31.374 31.374v76.552c0 4.143-3.358 7.5-7.5 7.5z" fill="#017297"></path></g><path d="m497 92.942v17.53h-497v-17.53c0-21.09 17.1-38.17 38.18-38.17h420.65c4.28 0 8.39.7 12.24 2 7.576 3.005 13.925 6.795 19.41 14.83 3.268 4.529 6.554 12.963 6.52 21.34z" fill="#30dde5"></path><path d="m497 92.942v17.53h-22.94v-17.53c0-20.76-16.56-37.64-37.18-38.17-.33-.01-.66-.01-.99-.01h22.93c4.29 0 8.41.71 12.25 2.01 7.599 2.993 13.923 6.8 19.41 14.83 3.271 4.534 6.552 12.96 6.52 21.34z" fill="#02c7dd"></path><g><path d="m464.015 322.832-110.676-8.177-110.676 8.177 15.893 98.811c1.909 11.869 12.152 20.596 24.173 20.596h141.221c12.021 0 22.264-8.727 24.173-20.596z" fill="#fe5ca7"></path><path d="m441.676 322.832-15.893 98.811c-1.909 11.869-12.152 20.596-24.173 20.596h22.339c12.021 0 22.264-8.727 24.173-20.596l15.893-98.811z" fill="#fe3d97"></path><path d="m476.838 322.832h-246.998c-11.134 0-20.16-9.026-20.16-20.16v-25.478c0-11.134 9.026-20.16 20.16-20.16h246.997c11.134 0 20.16 9.026 20.16 20.16v25.478c0 11.134-9.026 20.16-20.159 20.16z" fill="#f6c2e0"></path><path d="m476.838 257.035h-22.339c11.134 0 20.16 9.026 20.16 20.16v25.478c0 11.134-9.026 20.16-20.16 20.16h22.339c11.134 0 20.16-9.026 20.16-20.16v-25.478c-.001-11.134-9.027-20.16-20.16-20.16z" fill="#f6a6d2"></path><path d="m340.43 296.083-1.09-1.09c-6.677-6.677-6.677-17.502 0-24.179l93.788-93.788c6.677-6.677 17.502-6.677 24.179 0l1.09 1.09c6.677 6.677 6.677 17.502 0 24.179l-93.788 93.788c-6.677 6.677-17.502 6.677-24.179 0z" fill="#fe5ca7"></path><path d="m458.4 178.112-1.09-1.09c-6.68-6.67-17.51-6.67-24.18 0l-1.22 1.22-6.215 6.216c3.742-3.742 10.293-1.667 10.96 3.583.643 5.066-.981 10.364-4.875 14.252l-86.355 86.355c-3.671 3.671-10.031 1.736-10.902-3.294.501 3.469 2.05 6.816 4.686 9.509l.13.13 1.09 1.09c6.68 6.68 17.5 6.68 24.18 0l93.79-93.79c6.671-6.671 6.671-17.501.001-24.181z" fill="#fe3d97"></path></g><circle cx="209.681" cy="174.124" fill="#02c7dd" r="15.036"></circle><path d="m148.328 344.844v21.851h-97.696v-21.851c0-8.871 7.19-16.061 16.051-16.061h65.594c8.871 0 16.051 7.19 16.051 16.061z" fill="#30dde5"></path><path d="m132.277 328.783h-23.249c8.871 0 16.051 7.19 16.051 16.061v21.851h23.249v-21.851c0-8.871-7.18-16.061-16.051-16.061z" fill="#02c7dd"></path><path d="m148.75 203.522h-12.12c-4.26 0-7.71 3.45-7.71 7.71v38.29c0 4.25-3.45 7.71-7.71 7.71h-42.7c-4.26 0-7.71-3.46-7.71-7.71v-38.29c0-4.26-3.45-7.71-7.71-7.71h-12.12c-5.62 0-9.35-5.8-7.02-10.91l10.9-23.87c1.25-2.75 3.99-4.51 7.01-4.51h30.12l7.88 2.492 7.12-2.492h30.88c3.02 0 5.76 1.76 7.01 4.51l10.9 23.87c2.33 5.11-1.4 10.91-7.02 10.91z" fill="#bd80e1"></path><path d="m155.767 192.614-10.895-23.871c-1.253-2.746-3.995-4.508-7.013-4.508h-20.848c3.019 0 5.76 1.762 7.013 4.508l10.895 23.871c2.33 5.105-1.401 10.91-7.013 10.91h-12.122c-4.258 0-7.709 3.452-7.709 7.709v38.285c0 4.258-3.452 7.709-7.709 7.709h20.848c4.258 0 7.709-3.452 7.709-7.709v-38.285c0-4.258 3.452-7.709 7.709-7.709h12.122c5.612 0 9.343-5.805 7.013-10.91z" fill="#af66da"></path><g><g><path d="m304.23 412.437c-3.696 0-6.915-2.733-7.423-6.498l-7.465-55.308c-.554-4.104 2.324-7.882 6.43-8.436 4.103-.551 7.882 2.325 8.436 6.43l7.465 55.308c.554 4.104-2.324 7.882-6.43 8.436-.34.045-.679.068-1.013.068z" fill="#f6c2e0"></path></g><g><path d="m401.784 412.437c-.335 0-.673-.022-1.013-.068-4.105-.554-6.983-4.331-6.43-8.436l7.465-55.308c.554-4.105 4.348-6.982 8.436-6.43 4.105.554 6.983 4.331 6.43 8.436l-7.465 55.308c-.508 3.764-3.727 6.498-7.423 6.498z" fill="#f6c2e0"></path></g><g><path d="m354.172 412.436c-4.143 0-7.5-3.357-7.5-7.5v-55.308c0-4.143 3.357-7.5 7.5-7.5s7.5 3.357 7.5 7.5v55.308c0 4.142-3.358 7.5-7.5 7.5z" fill="#f6c2e0"></path></g></g><g><path d="m86.105 90.722h-34.96c-4.142 0-7.5-3.357-7.5-7.5s3.358-7.5 7.5-7.5h34.96c4.142 0 7.5 3.357 7.5 7.5s-3.357 7.5-7.5 7.5z" fill="#02c7dd"></path></g><circle cx="452.778" cy="83.636" fill="#af66da" r="7.43"></circle><circle cx="429.356" cy="83.636" fill="#02c7dd" r="7.43"></circle><g><path d="m106.98 164.232v19.21c0 4.14-3.36 7.5-7.5 7.5s-7.5-3.36-7.5-7.5v-19.21z" fill="#30dde5"></path></g></svg>