<svg viewBox="0 0 512.213 512.213" id="icon-utilities"><g transform="translate(0 1)"><g><g><path d="M489.067,187.8L292.8,13.72c-20.48-19.627-52.907-19.627-73.387,0l-65.707,59.733v-23.04h8.533
				c5.12,0,8.533-3.413,8.533-8.533V7.747c0-5.12-3.413-8.533-8.533-8.533H59.84c-5.12,0-8.533,3.413-8.533,8.533V41.88
				c0,5.12,3.413,8.533,8.533,8.533h8.533v98.133L23.147,187.8c-5.973,5.973-7.68,13.653-5.12,21.333
				c2.56,6.827,10.24,11.947,17.92,11.947h32.427v238.933H59.84c-5.12,0-8.533,3.413-8.533,8.533v34.133
				c0,5.12,3.413,8.533,8.533,8.533h392.533c4.267,0,8.533-3.413,8.533-9.387v-34.133c0-2.56-0.853-4.267-2.56-5.973
				c-1.707-1.707-3.413-2.56-5.973-2.56h-8.533V220.227h32.427c8.533,0,15.36-4.267,17.92-11.947
				C496.747,201.453,495.04,192.92,489.067,187.8z M477.973,203.16c-0.853,0.853-1.707,0.853-1.707,0.853h-40.96
				c-5.12,0-8.533,3.413-8.533,8.533v256c0,5.12,3.413,8.533,8.533,8.533h8.533v17.067H68.373V477.08h8.533
				c5.12,0,8.533-3.413,8.533-8.533v-256c0-5.12-3.413-8.533-8.533-8.533h-40.96c-0.853,0-1.707,0-1.707-0.853s0-1.707,0.853-2.56
				l47.787-40.96c1.707-1.707,2.56-4.267,2.56-6.827V41.88c0-5.12-3.413-8.533-8.533-8.533h-8.533V16.28h85.333v17.067h-8.533
				c-5.12,0-8.533,3.413-8.533,8.533v51.2c0,3.413,1.707,6.827,5.12,9.387c3.413,0.853,6.827,0.853,9.387-1.707l80.213-73.387
				c13.653-13.653,34.987-13.653,49.493,0l196.267,174.08C477.973,201.453,478.827,202.307,477.973,203.16z"></path><path d="M375.573,340.547h-70.588c-2.963-5.087-8.466-8.533-14.746-8.533h-8.533v-22.094
				c24.955-10.182,42.667-34.736,42.667-63.239c0-37.547-30.72-68.267-68.267-68.267s-68.267,30.72-68.267,68.267
				c0,28.504,17.712,53.058,42.667,63.239v22.094h-8.533c-6.28,0-11.782,3.447-14.746,8.533H136.64
				c-9.387,0-17.067,7.68-17.067,17.067v51.2c0,9.387,7.68,17.067,17.067,17.067h70.588c2.963,5.086,8.466,8.533,14.746,8.533
				h68.267c6.28,0,11.782-3.447,14.746-8.533h70.588c9.387,0,17.067-7.68,17.067-17.067v-51.2
				C392.64,348.227,384.96,340.547,375.573,340.547z M247.573,329.453v-14.507c5.973,0.853,11.093,0.853,17.067,0v14.507H247.573z
				 M205.637,255.213h7.803c5.12,0,8.533-3.413,8.533-8.533s-3.413-8.533-8.533-8.533h-7.803
				c3.623-21.355,20.581-38.313,41.937-41.937v7.803c0,5.12,3.413,8.533,8.533,8.533c5.12,0,8.533-3.413,8.533-8.533v-7.803
				c21.355,3.623,38.313,20.581,41.937,41.937h-7.803c-5.12,0-8.533,3.413-8.533,8.533s3.413,8.533,8.533,8.533h7.803
				c-3.139,18.504-16.289,33.705-33.639,39.794c-0.775-0.031-1.55,0.055-2.325,0.313c-9.387,2.56-19.627,2.56-29.013,0
				c-0.455,0-0.911,0.004-1.366,0.013C222.411,289.475,208.834,274.057,205.637,255.213z M136.64,357.613h68.267v51.2H136.64
				V357.613z M221.973,417.347V349.08h68.267v68.267H221.973z M375.573,408.813h-68.267v-51.2h68.267V408.813z"></path><path d="M256.107,255.213c2.56,0,4.267-0.853,5.973-2.56l17.067-17.067c3.413-3.413,3.413-8.533,0-11.947s-8.533-3.413-11.947,0
				l-17.067,17.067c-3.413,3.413-3.413,8.533,0,11.947C251.84,254.36,253.547,255.213,256.107,255.213z"></path></g></g></g><g></g><g></g><g></g><g></g><g></g><g></g><g></g><g></g><g></g><g></g><g></g><g></g><g></g><g></g><g></g></svg>