<svg id="icon-weather-cloudy" viewBox="0 0 24 24"><path d="M17 19h-11c-2.206 0-4-1.794-4-4 0-1.861 1.277-3.429 3.001-3.874-0.001-0.042-0.001-0.084-0.001-0.126 0-3.309 2.691-6 6-6 2.587 0 4.824 1.638 5.65 4.015 2.942-0.246 5.35 2.113 5.35 4.985 0 2.757-2.243 5-5 5zM5.905 12.994c-1.008 0.006-1.905 0.903-1.905 2.006s0.897 2 2 2h11c1.654 0 3-1.346 3-3s-1.346-3-3-3c-0.243 0-0.5 0.041-0.81 0.13l-1.075 0.307-0.186-1.103c-0.325-1.932-1.977-3.334-3.929-3.334-2.206 0-4 1.794-4 4 0 0.272 0.027 0.545 0.082 0.811l0.244 1.199-1.421-0.016z"></path><symbol id="icon-email" viewBox="0 0 20 20"><path d="M1.574 5.286c0.488 0.262 7.248 3.894 7.5 4.029s0.578 0.199 0.906 0.199c0.328 0 0.654-0.064 0.906-0.199s7.012-3.767 7.5-4.029c0.489-0.263 0.951-1.286 0.054-1.286h-16.919c-0.897 0-0.435 1.023 0.053 1.286zM18.613 7.489c-0.555 0.289-7.387 3.849-7.727 4.027s-0.578 0.199-0.906 0.199-0.566-0.021-0.906-0.199-7.133-3.739-7.688-4.028c-0.39-0.204-0.386 0.035-0.386 0.219s0 7.293 0 7.293c0 0.42 0.566 1 1 1h16c0.434 0 1-0.58 1-1 0 0 0-7.108 0-7.292s0.004-0.423-0.387-0.219z"></path></symbol><symbol id="icon-phone" viewBox="0 0 32 32"><path d="M22 20c-2 2-2 4-4 4s-4-2-6-4-4-4-4-6 2-2 4-4-4-8-6-8-6 6-6 6c0 4 4.109 12.109 8 16s12 8 16 8c0 0 6-4 6-6s-6-8-8-6z"></path></symbol><symbol id="icon-municipal" viewBox="0 0 409.79 409"><path d="m406.703125 210.421875-78.394531-33.953125c-.644532-.277344-1.332032-.421875-2.035156-.421875h-29.636719v-54.230469h12.257812c2.832031 0 5.121094-2.292968 5.121094-5.121094v-31.554687c0-2.441406-1.726563-4.539063-4.121094-5.019531l-99.878906-19.929688v-18.230468h44.3125c2.832031 0 5.121094-2.292969 5.121094-5.121094v-27.667969c0-2.828125-2.289063-5.121094-5.121094-5.121094h-44.609375c-.636719-2.097656-2.511719-3.65625-4.824219-3.65625-2.828125 0-5.121093 2.292969-5.121093 5.121094v54.675781l-99.878907 19.929688c-2.394531.480468-4.121093 2.578125-4.121093 5.019531v31.554687c0 2.828126 2.292968 5.121094 5.121093 5.121094h12.261719v54.230469h-29.640625c-.699219 0-1.390625.144531-2.035156.421875l-78.394531 33.953125c-1.875.808594-3.085938 2.65625-3.085938 4.695313v31.371093c0 2.828125 2.289062 5.121094 5.121094 5.121094h8.527344v119.265625h-8.527344c-2.832032 0-5.121094 2.292969-5.121094 5.121094v28.875c0 2.828125 2.289062 5.117187 5.121094 5.117187h399.550781c2.828125 0 5.117187-2.289062 5.117187-5.117187v-28.875c0-2.828125-2.289062-5.121094-5.117187-5.121094h-6.875v-119.265625h6.875c2.828125 0 5.117187-2.292969 5.117187-5.121094v-31.371093c0-2.039063-1.210937-3.886719-3.085937-4.695313zm-157.492187-178.703125h-39.195313v-17.425781h39.195313zm-143.195313 57.625 98.878906-19.734375 98.878907 19.734375v22.230469h-197.757813zm17.378906 32.472656h163v54.230469h-163zm-99.503906 129.792969h71.882813v7.480469c0 2.828125 2.292968 5.121094 5.121093 5.121094h10.152344v106.664062h-87.15625zm216.804687 119.265625v-106.664062h49.464844v106.664062zm-69.945312-106.664062v106.664062h-49.464844v-106.664062zm10.238281 0h49.464844v106.664062h-49.464844zm-74.972656-10.242188v-22.230469l98.878906-19.734375 98.878907 19.734375v22.230469zm293.535156 145.78125h-389.3125v-18.636719h389.3125zm-11.996093-28.875h-87.15625v-106.664062h8.496093c2.832031 0 5.121094-2.292969 5.121094-5.121094v-7.480469h73.539063zm11.996093-129.503906h-85.535156v-13.832032c0-2.445312-1.726563-4.542968-4.121094-5.023437l-104-20.753906c-.660156-.132813-1.339843-.132813-2 0l-104 20.753906c-2.394531.480469-4.121093 2.578125-4.121093 5.023437v13.832032h-85.535157v-22.890625l74.335938-32.191407h240.640625l74.335937 32.191407zm0 0"></path><path d="m148.328125 135.589844c-2.828125 0-5.117187 2.292968-5.117187 5.121094v16.445312c0 2.828125 2.289062 5.117188 5.117187 5.117188 2.832031 0 5.121094-2.289063 5.121094-5.117188v-16.445312c0-2.828126-2.289063-5.121094-5.121094-5.121094zm0 0"></path><path d="m176.609375 135.589844c-2.828125 0-5.121094 2.292968-5.121094 5.121094v16.445312c0 2.828125 2.292969 5.117188 5.121094 5.117188 2.832031 0 5.121094-2.289063 5.121094-5.117188v-16.445312c0-2.828126-2.289063-5.121094-5.121094-5.121094zm0 0"></path><path d="m204.894531 135.589844c-2.828125 0-5.121093 2.292968-5.121093 5.121094v16.445312c0 2.828125 2.292968 5.117188 5.121093 5.117188 2.832031 0 5.121094-2.289063 5.121094-5.117188v-16.445312c0-2.828126-2.289063-5.121094-5.121094-5.121094zm0 0"></path><path d="m233.179688 135.589844c-2.828126 0-5.121094 2.292968-5.121094 5.121094v16.445312c0 2.828125 2.292968 5.117188 5.121094 5.117188 2.832031 0 5.121093-2.289063 5.121093-5.117188v-16.445312c0-2.828126-2.289062-5.121094-5.121093-5.121094zm0 0"></path><path d="m261.460938 135.589844c-2.832032 0-5.121094 2.292968-5.121094 5.121094v16.445312c0 2.828125 2.289062 5.117188 5.121094 5.117188 2.828124 0 5.117187-2.289063 5.117187-5.117188v-16.445312c0-2.828126-2.289063-5.121094-5.117187-5.121094zm0 0"></path><path d="m78.910156 264.316406h-27.445312c-2.828125 0-5.121094 2.292969-5.121094 5.121094v27.449219c0 2.824219 2.292969 5.117187 5.121094 5.117187h27.445312c2.828125 0 5.121094-2.292968 5.121094-5.117187v-27.449219c0-2.828125-2.292969-5.121094-5.121094-5.121094zm-5.121094 27.449219h-17.203124v-17.207031h17.203124zm0 0"></path><path d="m78.910156 317.597656h-27.445312c-2.828125 0-5.121094 2.292969-5.121094 5.121094v27.445312c0 2.824219 2.292969 5.117188 5.121094 5.117188h27.445312c2.828125 0 5.121094-2.292969 5.121094-5.117188v-27.445312c0-2.828125-2.292969-5.121094-5.121094-5.121094zm-5.121094 27.445313h-17.203124v-17.207031h17.203124zm0 0"></path><path d="m330.253906 302.003906h27.445313c2.832031 0 5.121093-2.292968 5.121093-5.117187v-27.449219c0-2.828125-2.289062-5.121094-5.121093-5.121094h-27.445313c-2.828125 0-5.117187 2.292969-5.117187 5.121094v27.449219c0 2.824219 2.289062 5.117187 5.117187 5.117187zm5.121094-27.445312h17.203125v17.207031h-17.203125zm0 0"></path><path d="m330.253906 355.28125h27.445313c2.832031 0 5.121093-2.292969 5.121093-5.117188v-27.445312c0-2.828125-2.289062-5.121094-5.121093-5.121094h-27.445313c-2.828125 0-5.117187 2.292969-5.117187 5.121094v27.445312c0 2.824219 2.289062 5.117188 5.117187 5.117188zm5.121094-27.445312h17.203125v17.207031h-17.203125zm0 0"></path></symbol><symbol id="icon-construction" viewBox="0 0 64 64"><g><path d="m19 58c0-1.654-1.346-3-3-3s-3 1.346-3 3 1.346 3 3 3 3-1.346 3-3zm-3 1c-.552 0-1-.449-1-1s.448-1 1-1 1 .449 1 1-.448 1-1 1z"></path><path d="m29 58c0-1.654-1.346-3-3-3s-3 1.346-3 3 1.346 3 3 3 3-1.346 3-3zm-3 1c-.552 0-1-.449-1-1s.448-1 1-1 1 .449 1 1-.448 1-1 1z"></path><path d="m41 19h8v-6h-8zm2-4h4v2h-4z"></path><path d="m52.816 21h10.184v-10h-2.66l-13-10h-4.508l-29 10h-4.301l-4.957 5.95c-.37.442-.574 1.004-.574 1.582 0 1.361 1.107 2.468 2.469 2.468h4.531v6h-10v10h10c0 1.103.897 2 2 2h2c1.103 0 2-.897 2-2h10v-10h-10v-6h20.184c.302.847.969 1.514 1.816 1.816v14.018l-7.401 4.983c-1.278-1.706-3.309-2.817-5.599-2.817h-6c-2.757 0-5 2.243-5 5v1h-9c-2.757 0-5 2.243-5 5v5h9.026c-.635.838-1.026 1.87-1.026 3 0 2.757 2.243 5 5 5h13 1 23.566.434 4c3.859 0 7-3.14 7-7v-6-1-.451l-12-10.589v-15.144c.847-.302 1.514-.969 1.816-1.816zm-7.816 12c-1.641 0-3.088.806-4 2.031v-12.031h8v12.031c-.912-1.225-2.359-2.031-4-2.031zm-18 20h-6v-8h5c.552 0 1 .449 1 1zm6 2v-4.679l6-4.057v12.736c0 .696.148 1.375.421 2h-7.446c.634-.838 1.025-1.87 1.025-3s-.391-2.162-1.026-3zm8 4c0-1.654 1.346-3 3-3 .614 0 1.208.189 1.717.547l.974.685.507-1.077c.334-.713 1.025-1.155 1.802-1.155.927 0 1.71.631 1.931 1.504l-1.565 2.609c-.239.399-.366.855-.366 1.321 0 .195.026.384.068.566h-7.28c-.496-.549-.788-1.254-.788-2zm11.129-4.492c-.311-.391-.695-.716-1.129-.966v-6.342l3.698 3.026zm-3.129-1.508c-1.177 0-2.283.53-3.033 1.406-.618-.267-1.284-.406-1.967-.406-1.13 0-2.162.391-3 1.026v-10.114l2.984-2.017c.328.068.668.105 1.016.105.264 0 .518-.038.771-.078l3.229 2.642zm-4-12c-1.654 0-3-1.346-3-3s1.346-3 3-3 3 1.346 3 3-1.346 3-3 3zm6-21c0 .551-.448 1-1 1h-10c-.552 0-1-.449-1-1v-8c0-.551.448-1 1-1h10c.552 0 1 .449 1 1zm-7.307-17h2.614l2.25 6h-7.114zm17.307 16h-8v-6h8zm-8.184-8c-.333-.935-1.112-1.654-2.085-1.899l-1.565-4.173 7.894 6.072zm-11.498-7.362-2.048 5.462c-.973.246-1.751.964-2.085 1.899h-17.217zm-18.318 10.029 4 5.333h-8zm-6 4.666-4-5.333h8zm8-5.333h8l-4 5.333zm10.5 0h1.5v6h-6zm-29.5 5.532c0-.109.038-.215.109-.3l4.36-5.232h.031l4.5 6h-8.531c-.259 0-.469-.21-.469-.468zm5 10.468v2h-8v-2zm-8 6v-2h8v2zm14 0v-2h8v2zm8-6v2h-8v-2zm-10 8h-2v-16h2zm25.054 1.535c.147 1.358.83 2.544 1.844 3.355l-8.898 6.016v-1.906c0-.851-.16-1.664-.44-2.42zm-37.054 11.465c0-1.654 1.346-3 3-3h11v-3c0-1.654 1.346-3 3-3h6c2.757 0 5 2.243 5 5v7h-2v-7c0-1.654-1.346-3-3-3h-5c-1.103 0-2 .897-2 2v8h-5-11zm24 11h-1-10-2c-1.654 0-3-1.346-3-3s1.346-3 3-3h2 10 2c1.654 0 3 1.346 3 3s-1.346 3-3 3zm34-5c0 2.757-2.243 5-5 5h-4-.434c-.312 0-.566-.254-.566-.566 0-.102.028-.203.081-.291l5.485-9.143h4.434zm-4.643-7-8.471-6.931c.871-.62 1.521-1.514 1.854-2.553l10.749 9.484z"></path><path d="m5 49h2v2h-2z"></path><path d="m9 49h2v2h-2z"></path><path d="m13 49h2v2h-2z"></path></g></symbol></svg>