<svg id='icon-municipal' viewBox="0 0 409.79 409" ><path d="m406.703125 210.421875-78.394531-33.953125c-.644532-.277344-1.332032-.421875-2.035156-.421875h-29.636719v-54.230469h12.257812c2.832031 0 5.121094-2.292968 5.121094-5.121094v-31.554687c0-2.441406-1.726563-4.539063-4.121094-5.019531l-99.878906-19.929688v-18.230468h44.3125c2.832031 0 5.121094-2.292969 5.121094-5.121094v-27.667969c0-2.828125-2.289063-5.121094-5.121094-5.121094h-44.609375c-.636719-2.097656-2.511719-3.65625-4.824219-3.65625-2.828125 0-5.121093 2.292969-5.121093 5.121094v54.675781l-99.878907 19.929688c-2.394531.480468-4.121093 2.578125-4.121093 5.019531v31.554687c0 2.828126 2.292968 5.121094 5.121093 5.121094h12.261719v54.230469h-29.640625c-.699219 0-1.390625.144531-2.035156.421875l-78.394531 33.953125c-1.875.808594-3.085938 2.65625-3.085938 4.695313v31.371093c0 2.828125 2.289062 5.121094 5.121094 5.121094h8.527344v119.265625h-8.527344c-2.832032 0-5.121094 2.292969-5.121094 5.121094v28.875c0 2.828125 2.289062 5.117187 5.121094 5.117187h399.550781c2.828125 0 5.117187-2.289062 5.117187-5.117187v-28.875c0-2.828125-2.289062-5.121094-5.117187-5.121094h-6.875v-119.265625h6.875c2.828125 0 5.117187-2.292969 5.117187-5.121094v-31.371093c0-2.039063-1.210937-3.886719-3.085937-4.695313zm-157.492187-178.703125h-39.195313v-17.425781h39.195313zm-143.195313 57.625 98.878906-19.734375 98.878907 19.734375v22.230469h-197.757813zm17.378906 32.472656h163v54.230469h-163zm-99.503906 129.792969h71.882813v7.480469c0 2.828125 2.292968 5.121094 5.121093 5.121094h10.152344v106.664062h-87.15625zm216.804687 119.265625v-106.664062h49.464844v106.664062zm-69.945312-106.664062v106.664062h-49.464844v-106.664062zm10.238281 0h49.464844v106.664062h-49.464844zm-74.972656-10.242188v-22.230469l98.878906-19.734375 98.878907 19.734375v22.230469zm293.535156 145.78125h-389.3125v-18.636719h389.3125zm-11.996093-28.875h-87.15625v-106.664062h8.496093c2.832031 0 5.121094-2.292969 5.121094-5.121094v-7.480469h73.539063zm11.996093-129.503906h-85.535156v-13.832032c0-2.445312-1.726563-4.542968-4.121094-5.023437l-104-20.753906c-.660156-.132813-1.339843-.132813-2 0l-104 20.753906c-2.394531.480469-4.121093 2.578125-4.121093 5.023437v13.832032h-85.535157v-22.890625l74.335938-32.191407h240.640625l74.335937 32.191407zm0 0"/><path d="m148.328125 135.589844c-2.828125 0-5.117187 2.292968-5.117187 5.121094v16.445312c0 2.828125 2.289062 5.117188 5.117187 5.117188 2.832031 0 5.121094-2.289063 5.121094-5.117188v-16.445312c0-2.828126-2.289063-5.121094-5.121094-5.121094zm0 0"/><path d="m176.609375 135.589844c-2.828125 0-5.121094 2.292968-5.121094 5.121094v16.445312c0 2.828125 2.292969 5.117188 5.121094 5.117188 2.832031 0 5.121094-2.289063 5.121094-5.117188v-16.445312c0-2.828126-2.289063-5.121094-5.121094-5.121094zm0 0"/><path d="m204.894531 135.589844c-2.828125 0-5.121093 2.292968-5.121093 5.121094v16.445312c0 2.828125 2.292968 5.117188 5.121093 5.117188 2.832031 0 5.121094-2.289063 5.121094-5.117188v-16.445312c0-2.828126-2.289063-5.121094-5.121094-5.121094zm0 0"/><path d="m233.179688 135.589844c-2.828126 0-5.121094 2.292968-5.121094 5.121094v16.445312c0 2.828125 2.292968 5.117188 5.121094 5.117188 2.832031 0 5.121093-2.289063 5.121093-5.117188v-16.445312c0-2.828126-2.289062-5.121094-5.121093-5.121094zm0 0"/><path d="m261.460938 135.589844c-2.832032 0-5.121094 2.292968-5.121094 5.121094v16.445312c0 2.828125 2.289062 5.117188 5.121094 5.117188 2.828124 0 5.117187-2.289063 5.117187-5.117188v-16.445312c0-2.828126-2.289063-5.121094-5.117187-5.121094zm0 0"/><path d="m78.910156 264.316406h-27.445312c-2.828125 0-5.121094 2.292969-5.121094 5.121094v27.449219c0 2.824219 2.292969 5.117187 5.121094 5.117187h27.445312c2.828125 0 5.121094-2.292968 5.121094-5.117187v-27.449219c0-2.828125-2.292969-5.121094-5.121094-5.121094zm-5.121094 27.449219h-17.203124v-17.207031h17.203124zm0 0"/><path d="m78.910156 317.597656h-27.445312c-2.828125 0-5.121094 2.292969-5.121094 5.121094v27.445312c0 2.824219 2.292969 5.117188 5.121094 5.117188h27.445312c2.828125 0 5.121094-2.292969 5.121094-5.117188v-27.445312c0-2.828125-2.292969-5.121094-5.121094-5.121094zm-5.121094 27.445313h-17.203124v-17.207031h17.203124zm0 0"/><path d="m330.253906 302.003906h27.445313c2.832031 0 5.121093-2.292968 5.121093-5.117187v-27.449219c0-2.828125-2.289062-5.121094-5.121093-5.121094h-27.445313c-2.828125 0-5.117187 2.292969-5.117187 5.121094v27.449219c0 2.824219 2.289062 5.117187 5.117187 5.117187zm5.121094-27.445312h17.203125v17.207031h-17.203125zm0 0"/><path d="m330.253906 355.28125h27.445313c2.832031 0 5.121093-2.292969 5.121093-5.117188v-27.445312c0-2.828125-2.289062-5.121094-5.121093-5.121094h-27.445313c-2.828125 0-5.117187 2.292969-5.117187 5.121094v27.445312c0 2.824219 2.289062 5.117188 5.117187 5.117188zm5.121094-27.445312h17.203125v17.207031h-17.203125zm0 0"/></svg>