<svg id="js" viewBox="0 0 469.333 469.333"><path d="M328.832,0H85.333C61.803,0,42.667,19.115,42.667,42.667v384c0,23.531,19.136,42.667,42.667,42.667H384 c23.531,0,42.667-19.136,42.667-42.667V97.856L328.832,0z M85.333,426.667v-384h213.333V128H384l0.021,298.667H85.333z"></path><path d="M192,213.397v106.667c0,11.776-9.579,21.333-21.333,21.333s-21.333-9.557-21.333-21.333h-42.667 c0,35.307,28.715,64,64,64s64-28.693,64-64v-53.333v-53.333H192z"></path><path d="M234.667,266.731c0,29.397,23.936,53.333,53.333,53.333h21.333c5.888,0,10.667,4.8,10.667,10.667 c0,5.867-4.779,10.667-10.667,10.667h-74.667v42.667h74.667c29.397,0,53.333-23.936,53.333-53.333 c0-29.419-23.936-53.333-53.333-53.333H288c-5.888,0-10.667-4.8-10.667-10.667c0-5.867,4.779-10.667,10.667-10.667h74.667 v-42.667H288C258.603,213.397,234.667,237.312,234.667,266.731z"></path></svg>