<svg id="location" viewBox="0 0 8.4666664 8.4666672"><g id="layer1" transform="translate(0 761.333)"><path id="path1943" d="m4.2343664-760.80393c-1.458119 0-2.646349 1.18875-2.646349 2.64687 0 1.03943.627012 2.1792 1.234033 3.08973.60702.91053 1.214913 1.58388 1.214913 1.58388a.2646098.2646098 0 0 0 .39274 0s.607893-.67335 1.214914-1.58388c.60702-.91053 1.234032-2.0503 1.234032-3.08973 0-1.45812-1.186161-2.64687-2.644283-2.64687zm0 .52917c1.172136 0 2.115117.94556 2.115117 2.1177 0 .81265-.561028 1.92132-1.144633 2.79673-.485383.72807-.820867 1.09593-.970484 1.26762-.149291-.17129-.485314-.5391-.970999-1.26762-.583605-.87541-1.146183-1.98408-1.146183-2.79673 0-1.17214.945046-2.1177 2.117182-2.1177zm0 1.05885c-.581366 0-1.058849.47748-1.058849 1.05885 0 .58136.477483 1.05833 1.058849 1.05833.581369 0 1.058334-.47697 1.058334-1.05833 0-.58137-.476965-1.05885-1.058334-1.05885zm0 .52916c.295386 0 .529167.2343.529167.52969 0 .29538-.233781.52917-.529167.52916-.295383.00001-.529166-.23378-.529166-.52916 0-.29539.233783-.52969.529166-.52969z" font-variant-ligatures="normal" font-variant-position="normal" font-variant-caps="normal" font-variant-numeric="normal" font-variant-alternates="normal" font-variant-east-asian="normal" font-feature-settings="normal" font-variation-settings="normal" text-indent="0" text-align="start" text-decoration-line="none" text-decoration-style="solid" text-decoration-color="rgb(0,0,0)" text-transform="none" text-orientation="mixed" white-space="normal" shape-padding="0" shape-margin="0" inline-size="0" isolation="auto" mix-blend-mode="normal" solid-color="rgb(0,0,0)" solid-opacity="1" vector-effect="none" paint-order="fill markers stroke"></path></g></svg>