<svg id="reduction" viewBox="0 0 512 512"><path d="m418.186 56.386h-100.963v-23.344c0-18.22-14.823-33.042-33.042-33.042h-56.361c-18.219 0-33.042 14.822-33.042 33.042v23.344h-33.595c-4.142 0-7.5 3.357-7.5 7.5s3.358 7.5 7.5 7.5h257.004c10.196 0 18.492 8.295 18.492 18.491s-8.295 18.491-18.492 18.491h-324.374c-10.196 0-18.492-8.295-18.492-18.491s8.295-18.491 18.492-18.491h34.683c4.142 0 7.5-3.357 7.5-7.5s-3.358-7.5-7.5-7.5h-34.683c-18.467 0-33.492 15.025-33.492 33.491s15.024 33.491 33.492 33.491h2.186l39.114 148.783h-5.767c-6.952 0-12.608 5.656-12.608 12.608v47.729c0 6.952 5.656 12.608 12.608 12.608h4.839l-17.091 55.102c-1.227 3.956.985 8.158 4.942 9.385.74.229 1.488.339 2.224.339 3.199 0 6.163-2.064 7.161-5.28l18.469-59.545h32.114l-15.16 103.479c-.6 4.099 2.235 7.907 6.334 8.508.369.054.734.08 1.096.08 3.661 0 6.865-2.685 7.412-6.414l15.478-105.652h51.336v104.565c0 4.143 3.358 7.5 7.5 7.5s7.5-3.357 7.5-7.5v-104.565h51.336l15.478 105.652c.546 3.73 3.75 6.414 7.412 6.414.362 0 .728-.026 1.096-.08 4.099-.601 6.934-4.409 6.334-8.508l-15.16-103.479h32.114l38.465 124.016c2.016 6.5.921 13.432-3.005 19.018-3.747 5.334-9.56 8.558-15.953 8.846-.336.016-.674.022-1.014.022h-249.206c-.34 0-.678-.007-1.019-.022-6.388-.288-12.201-3.512-15.948-8.846-3.926-5.587-5.021-12.518-3.005-19.018l10.313-33.249c1.227-3.956-.985-8.158-4.942-9.385-3.956-1.229-8.158.984-9.385 4.941l-10.312 33.25c-3.404 10.972-1.56 22.667 5.058 32.086 6.44 9.165 16.481 14.708 27.543 15.206.563.025 1.128.038 1.698.038h249.206c.569 0 1.135-.013 1.693-.038 11.066-.498 21.106-6.041 27.547-15.206 6.618-9.419 8.462-21.114 5.059-32.086l-37.087-119.572h4.839c6.952 0 12.608-5.656 12.608-12.608v-47.73c0-6.952-5.656-12.608-12.608-12.608h-5.767l15.136-57.576c1.053-4.007-1.34-8.107-5.347-9.161-4.005-1.05-8.107 1.342-9.16 5.347l-16.139 61.391h-30.925l14.703-100.358c.6-4.099-2.235-7.907-6.334-8.508-4.1-.591-7.907 2.235-8.508 6.334l-15.021 102.532h-51.793v-101.447c0-4.143-3.358-7.5-7.5-7.5s-7.5 3.357-7.5 7.5v101.445h-51.792l-15.021-102.532c-.6-4.1-4.414-6.926-8.508-6.334-4.099.6-6.934 4.409-6.334 8.508l14.702 100.358h-30.925l-39.114-148.783h288.983l-14.664 55.778c-1.053 4.007 1.34 8.107 5.347 9.161.639.168 1.28.248 1.912.248 3.325 0 6.364-2.229 7.249-5.595l15.666-59.593h2.186c18.467 0 33.492-15.024 33.492-33.491s-15.025-33.49-33.493-33.49zm-208.409-23.344c0-9.948 8.094-18.042 18.042-18.042h56.361c9.948 0 18.042 8.094 18.042 18.042v23.344h-92.445zm170.486 297.056h-248.526v-42.946h23.528v12.496c0 4.143 3.358 7.5 7.5 7.5s7.5-3.357 7.5-7.5v-12.496h47.156v12.496c0 4.143 3.358 7.5 7.5 7.5s7.5-3.357 7.5-7.5v-12.496h47.156v12.496c0 4.143 3.358 7.5 7.5 7.5s7.5-3.357 7.5-7.5v-12.496h47.156v12.496c0 4.143 3.358 7.5 7.5 7.5s7.5-3.357 7.5-7.5v-12.496h23.528v42.946z"></path></svg>