<svg id="soil" viewBox="0 -29 511.99177 511"><path d="m8.535156 452.789062c-1.65625 0-3.304687-.488281-4.730468-1.425781-2.378907-1.589843-3.804688-4.257812-3.804688-7.109375v-102.40625c0-3.667968 2.339844-6.929687 5.820312-8.089844 2.507813-.84375 8.15625-4.085937 12.6875-6.699218 5.847657-3.363282 11.359376-6.542969 15.378907-7.925782 4.480469-1.546874 9.054687-2.859374 13.636719-4.183593 6.8125-1.953125 13.246093-3.804688 19.289062-6.390625 5.023438-2.140625 9.496094-5.726563 14.222656-9.523438 5.121094-4.105468 10.414063-8.355468 17.050782-11.394531 11.230468-5.144531 23.484374-6.757813 35.425781-4.640625 7.074219 1.246094 14.320312 3.710938 21.519531 7.320312 7.007812 3.515626 12.71875 8.117188 18.230469 12.5625 2.054687 1.65625 4.113281 3.320313 6.238281 4.90625 6.785156 5.085938 14.171875 9.464844 21.949219 13.015626 12.304687 5.625 30.738281 11.496093 48.648437 7.613281 4.335938-.949219 8.585938-2.367188 13.082032-3.867188 6.09375-2.039062 12.390624-4.140625 19.363281-5.179687 12.863281-1.921875 24.355469-1.511719 34.160156 1.203125 9.191406 2.535156 16.199219 8.859375 19.742187 17.800781 1.714844 4.328125 2.566407 8.644531 3.378907 12.828125 3.488281-.242187 6.945312-.648437 10.410156-1.058594 3.140625-.367187 6.28125-.734375 9.429687-1 9.359376-.769531 18.738282-1.476562 28.117188-2.015625 21.898438-1.242187 43.078125-3.042968 61.503906-11.296875 11.246094-5.035156 30.226563-6.808593 44.742188-.425781 8.5 3.726562 14.378906 9.820312 16.984375 17.621094 3.53125 10.554687-2.773438 22.265625-14.046875 26.105468-10.402344 3.53125-20.789063 7.125-31.167969 10.71875l-43.46875 15.042969c-2.253906.777344-4.488281 1.648438-6.726563 2.527344-5.265624 2.046875-10.707031 4.164063-16.65625 5.351563-11.230468 2.226562-21.710937 2.03125-31.832031 1.84375-4.554687-.085938-9.164062-.179688-13.910156-.035157-13.816406.402344-27.382813 2.78125-40.328125 7.058594-4.207031 1.390625-8.375 2.984375-12.546875 4.574219-9.96875 3.796875-20.265625 7.730468-31.539063 9.28125-12.964843 1.785156-27.328124.839844-40 0l-4.878906-.3125c-10.300781-.640625-20.535156-2.765625-30.425781-4.816406-7.261719-1.507813-14.113281-2.933594-20.984375-3.8125-18.722656-2.398438-34.988281-2.789063-49.742188-1.167969-31.300781 3.421875-81.359374 14.351562-110.945312 26.726562-1.042969.460938-2.160156.675781-3.277344.675781zm8.53125-105.410156v84.457032c31.941406-11.347657 75.480469-20.308594 103.855469-23.40625 16.113281-1.757813 33.691406-1.367188 53.765625 1.210937 7.515625.964844 15.027344 2.515625 22.28125 4.027344 9.726562 2.023437 18.925781 3.925781 28.007812 4.488281l4.941407.324219c12.441406.820312 25.300781 1.664062 36.539062.121093 9.34375-1.289062 18.304688-4.703124 27.796875-8.320312 4.410156-1.683594 8.824219-3.363281 13.269532-4.832031 14.507812-4.792969 29.714843-7.464844 45.183593-7.910157 5.027344-.144531 9.910157-.058593 14.730469.027344 9.644531.179688 18.757812.355469 28.1875-1.519531 4.472656-.886719 9.003906-2.65625 13.789062-4.515625 2.449219-.953125 4.890626-1.902344 7.339844-2.746094l43.472656-15.039062c10.410157-3.609375 20.8125-7.210938 31.25-10.75 2.066407-.710938 3.949219-2.742188 3.351563-4.53125-1.066406-3.191406-3.574219-5.617188-7.652344-7.410156-9.378906-4.113282-23.347656-3.011719-30.910156.378906-21.070313 9.429687-43.957031 11.417968-67.5 12.765625-9.242187.527343-18.46875 1.21875-27.695313 1.980469-2.949218.238281-5.894531.585937-8.839843.9375-4.242188.496093-8.492188.988281-12.757813 1.230468-2.988281.363282-6.125.765625-9.140625-.582031-5.453125-2.414063-6.417969-6.253906-6.332031-9.082031-.273438-.835938-.554688-2.320313-.84375-3.820313-.707031-3.703125-1.382812-7.203125-2.558594-10.183593-1.078125-2.710938-3.414062-6.246094-8.414062-7.636719-7.503906-2.082031-16.625-2.335938-27.113282-.765625-5.488281.808594-10.8125 2.59375-16.453124 4.480468-4.726563 1.578126-9.617188 3.207032-14.867188 4.351563-22.503906 4.898437-44.707031-2.066406-59.367188-8.765625-8.894531-4.0625-17.332031-9.0625-25.089843-14.882812-2.289063-1.707032-4.496094-3.5-6.714844-5.28125-5.042969-4.0625-9.808594-7.902344-15.175781-10.601563-5.726563-2.867187-11.382813-4.8125-16.835938-5.765625-8.515625-1.503906-17.28125-.351562-25.355468 3.351562-4.707032 2.160157-8.96875 5.574219-13.472657 9.191407-5.417969 4.34375-11.027343 8.839843-18.203125 11.90625-7.015625 3.003906-14.269531 5.085937-21.273437 7.097656-4.300781 1.238281-8.59375 2.46875-12.800781 3.910156-2.46875.851563-7.988282 4.027344-12.417969 6.578125-3.53125 2.023438-6.9375 3.976563-9.976563 5.53125zm0 0"></path><path d="m252.265625 390.859375c-15.855469 0-31.753906-.949219-47.445313-2.84375-19.9375-2.398437-45.621093-6.765625-67.453124-19.398437-4.078126-2.363282-5.46875-7.585938-3.113282-11.664063 2.355469-4.078125 7.585938-5.480469 11.65625-3.113281 19.140625 11.074218 42.625 15.027344 60.949219 17.226562 19.550781 2.355469 39.441406 3.203125 59.113281 2.46875l1.476563-.050781c16.640625-.597656 33.84375-1.214844 47.351562-9.023437 4.769531-2.753907 9.046875-6.203126 12.691407-10.230469 3.15625-3.5 8.558593-3.761719 12.050781-.597657 3.496093 3.160157 3.761719 8.558594.605469 12.050782-4.839844 5.351562-10.496094 9.914062-16.804688 13.558594-17.1875 9.941406-37.429688 10.667968-55.289062 11.300781l-1.46875.050781c-4.761719.179688-9.539063.265625-14.320313.265625zm0 0"></path><path d="m238.945312 239.441406c-4.710937 0-8.535156-3.820312-8.535156-8.53125v-196.277344c0-4.710937 3.824219-8.535156 8.535156-8.535156 4.710938 0 8.535157 3.824219 8.535157 8.535156v196.277344c0 4.710938-3.824219 8.53125-8.535157 8.53125zm0 0"></path><path d="m146.191406 172.136719c-26.660156 0-58.609375-7.988281-84.398437-38.078125-1.46875-1.917969-27.65625-37.554688-27.65625-99.425782 0-3.226562 1.824219-6.179687 4.707031-7.621093 2.886719-1.441407 6.351562-1.144531 8.9375.785156.316406.238281 32.519531 23.902344 71.691406 23.902344.851563 0 85.335938 1.171875 85.335938 102.40625 0 3.371093-1.988282 6.425781-5.066406 7.800781-.4375.195312-23.664063 10.230469-53.550782 10.230469zm-94.347656-121.777344c3.769531 46.1875 23.058594 72.75 23.269531 73.042969 39.289063 45.808594 95.246094 30.984375 112.527344 24.902344-2.9375-78.613282-65.445313-79.535157-68.167969-79.535157-28.390625 0-52.976562-10.429687-67.628906-18.410156zm0 0"></path><path d="m196.269531 162.640625c-1.570312 0-3.152343-.429687-4.574219-1.332031l-93.871093-59.738282c-3.976563-2.523437-5.148438-7.808593-2.621094-11.785156 2.527344-3.964844 7.808594-5.152344 11.785156-2.617187l93.871094 59.734375c3.976563 2.527344 5.144531 7.808594 2.621094 11.785156-1.632813 2.550781-4.386719 3.953125-7.210938 3.953125zm0 0"></path><path d="m343.59375 188.257812c-5.800781 0-11.664062-.402343-17.554688-1.230468-50.40625-7.011719-52.957031-28.65625-52.957031-32.921875 0-33.332031 9.1875-59.265625 27.316407-77.09375 24.710937-24.304688 56.78125-24.089844 58.164062-24.039063 47.847656 0 88.785156-25.304687 89.1875-25.558594 2.628906-1.648437 5.957031-1.742187 8.667969-.238281 2.714843 1.5 4.40625 4.351563 4.40625 7.457031v43.933594c-2.117188 21.613282-8.226563 40.335938-18.210938 56.484375-20.636719 33.410157-58.269531 53.207031-99.019531 53.207031zm-53.445312-34.65625c.871093 3.40625 9.171874 12.476563 38.246093 16.539063 40.554688 5.648437 79.691407-11.640625 99.703125-44.050781 8.601563-13.925782 13.882813-30.203125 15.699219-48.371094l-.023437-28.757812c-17.050782 8.355468-48.96875 21.070312-85.355469 21.070312-.296875.121094-26.710938-.015625-46.21875 19.304688-14.542969 14.410156-21.964844 36.035156-22.050781 64.265624zm0 .101563v.402344s.023437-.144531 0-.402344zm0 0"></path><path d="m238.945312 179.707031c-1.058593 0-2.125-.195312-3.167968-.613281l-42.667969-17.070312c-4.375-1.757813-6.5-6.714844-4.753906-11.09375 1.75-4.367188 6.726562-6.484376 11.09375-4.75l42.671875 17.066406c4.375 1.757812 6.5 6.714844 4.753906 11.09375-1.339844 3.335937-4.550781 5.367187-7.929688 5.367187zm0 0"></path><path d="m335.164062 368.6875c-1.621093 0-3.253906-.222656-4.839843-.9375-5.453125-2.417969-6.417969-6.257812-6.332031-9.082031-.273438-.835938-.554688-2.320313-.84375-3.824219-.707032-3.703125-1.382813-7.199219-2.5625-10.179688-1.074219-2.714843-3.410157-6.246093-8.414063-7.636718-7.5-2.082032-16.621094-2.339844-27.109375-.769532-5.488281.8125-10.8125 2.59375-16.453125 4.480469-4.726563 1.578125-9.617187 3.210938-14.867187 4.351563-22.496094 4.910156-44.707032-2.0625-59.367188-8.761719-8.894531-4.0625-17.332031-9.0625-25.089844-14.882813-2.289062-1.707031-4.5-3.5-6.71875-5.285156-5.042968-4.058594-9.804687-7.902344-15.171875-10.597656-4.214843-2.117188-8.890625-3.789062-13.917969-4.976562-2.722656-.648438-4.949218-2.574219-5.972656-5.167969-1.023437-2.605469-.710937-5.53125.835938-7.863281l1.101562-1.652344c.1875-.292969.398438-.566406.621094-.828125 2.195312-2.542969 54.386719-62.699219 108.882812-62.699219 3.277344 0 78.613282.699219 107.96875 59.957031 35.046876 2.84375 62.707032 32.277344 62.707032 68.050781v4.429688c0 4.453125-3.429688 8.164062-7.867188 8.507812-4.34375.339844-8.6875.621094-12.988281.871094-9.242187.527344-18.46875 1.21875-27.695313 1.976563-2.949218.242187-5.894531.589843-8.839843.941406-4.242188.492187-8.492188.988281-12.757813 1.226563-1.417968.171874-2.859375.351562-4.308594.351562zm-37.386718-50.496094c6.851562 0 13.183594.796875 18.9375 2.390625 9.1875 2.535157 16.195312 8.859375 19.738281 17.800781 1.714844 4.328126 2.566406 8.644532 3.378906 12.828126 3.488281-.238282 6.945313-.648438 10.410157-1.058594 3.140624-.367188 6.28125-.734375 9.429687-1 9.363281-.765625 18.742187-1.476563 28.121094-2.011719 1.542969-.085937 3.085937-.179687 4.640625-.28125-1.808594-26.59375-24.03125-47.679687-51.082032-47.679687-3.414062 0-6.496093-2.03125-7.84375-5.171876-23.03125-53.738281-93.863281-54.566406-94.570312-54.566406-35.816406 0-72.929688 33.179688-88.425781 48.804688 1.542969.648437 3.0625 1.351562 4.53125 2.085937 6.996093 3.515625 12.707031 8.105469 18.226562 12.558594 2.054688 1.65625 4.113281 3.320313 6.238281 4.90625 6.785157 5.089844 14.175782 9.464844 21.949219 13.015625 12.304688 5.625 30.738281 11.496094 48.652344 7.613281 4.332031-.949219 8.582031-2.363281 13.082031-3.867187 6.089844-2.039063 12.390625-4.136719 19.363282-5.179688 5.304687-.792968 10.390624-1.1875 15.222656-1.1875zm0 0"></path><path d="m281.621094 162.640625c-3.222656 0-6.3125-1.835937-7.753906-4.960937-1.972657-4.273438-.105469-9.351563 4.171874-11.324219l110.9375-51.199219c4.269532-1.980469 9.355469-.105469 11.324219 4.171875 1.972657 4.273437.101563 9.351563-4.171875 11.324219l-110.9375 51.203125c-1.164062.535156-2.375.785156-3.570312.785156zm0 0"></path><path d="m238.945312 205.308594c-2.183593 0-4.371093-.835938-6.035156-2.5-3.335937-3.335938-3.335937-8.730469 0-12.066406l42.671875-42.667969c3.328125-3.339844 8.738281-3.339844 12.066407 0 3.335937 3.335937 3.335937 8.726562 0 12.066406l-42.667969 42.667969c-1.664063 1.664062-3.851563 2.5-6.035157 2.5zm0 0"></path><path d="m238.945312 43.167969c-2.183593 0-4.371093-.835938-6.035156-2.5l-25.597656-25.601563c-3.339844-3.339844-3.339844-8.730468 0-12.066406 3.328125-3.339844 8.738281-3.339844 12.066406 0l25.601563 25.601562c3.335937 3.335938 3.335937 8.726563 0 12.066407-1.664063 1.664062-3.851563 2.5-6.035157 2.5zm0 0"></path><path d="m238.945312 43.167969c-2.183593 0-4.371093-.835938-6.035156-2.5-3.335937-3.339844-3.335937-8.730469 0-12.066407l25.601563-25.601562c3.328125-3.339844 8.738281-3.339844 12.066406 0 3.339844 3.335938 3.339844 8.726562 0 12.066406l-25.597656 25.601563c-1.664063 1.664062-3.851563 2.5-6.035157 2.5zm0 0"></path></svg>