<svg xmlns="http://www.w3.org/2000/svg" style="display: none;">
<symbol width="100%" height="100%" viewBox="0 0 3167 1150" version="1.1" xmlns="http://www.w3.org/2000/svg" xmlns:xlink="http://www.w3.org/1999/xlink" xml:space="preserve" xmlns:serif="http://www.serif.com/" style="fill-rule:evenodd;clip-rule:evenodd;stroke-linejoin:round;stroke-miterlimit:2;">
    <g transform="matrix(5.55556,0,0,5.55556,0,0)">
        <path d="M235.08,121.658C235.145,121.658 235.198,121.688 235.198,121.725C235.198,121.761 235.145,121.791 235.08,121.791C235.015,121.791 236.198,109.021 236.198,108.985C236.198,108.948 235.015,121.658 235.08,121.658Z" style="fill:rgb(235,235,235);"/>
        <g id="Artboard1" transform="matrix(1,0,0,1,-24.2355,-117.828)">
            <rect x="24.235" y="117.828" width="569.027" height="206.652" style="fill:none;"/>
            <g transform="matrix(0.820002,0,0,0.86069,-24.3644,26.7886)">
                <path d="M296.816,143.083C296.816,129.588 285.316,118.633 271.152,118.633L107.117,118.633C92.953,118.633 81.454,129.588 81.454,143.083L81.454,312.073C81.454,325.567 92.953,336.523 107.117,336.523L271.152,336.523C285.316,336.523 296.816,325.567 296.816,312.073L296.816,143.083Z" style="fill:rgb(77,141,81);"/>
            </g>
            <g id="surface1" transform="matrix(0.463807,0,0,0.463807,-26.1927,116.812)">
                <path d="M319.469,55.289C312.355,72.395 309.984,91.871 314.051,101.188C317.098,108.469 334.035,133.875 335.73,133.875C337.762,133.875 342.844,126.254 347.246,116.602C352.328,105.59 352.328,88.992 347.414,80.184C341.488,69.684 334.711,60.539 328.277,54.441L322.18,48.684L319.469,55.289Z" style="fill:rgb(254,254,254);fill-rule:nonzero;"/>
                <path d="M411.945,87.809C402.121,89.332 382.984,100 374.176,108.809C362.828,120.156 358.254,129.813 356.055,146.75C354.02,162.84 355.547,194.852 358.594,194.852C361.813,194.852 390.266,174.863 398.734,166.566C408.391,157.082 413.473,146.07 416.352,127.949C418.891,113.215 419.566,88.652 417.535,87.809C416.688,87.469 414.316,87.469 411.945,87.809Z" style="fill:rgb(254,254,254);fill-rule:nonzero;"/>
                <path d="M245.961,115.414C246.129,150.305 261.715,169.953 299.313,182.656C314.387,187.738 318.453,188.414 319.301,185.875C320.148,183.332 313.711,159.113 309.645,149.965C303.887,136.926 302.871,135.402 296.434,128.797C289.488,121.68 261.543,107.117 251.891,105.59L245.961,104.574L245.961,115.414Z" style="fill:rgb(254,254,254);fill-rule:nonzero;"/>
                <path d="M334.883,152.848C330.477,169.273 328.105,181.301 324.383,204.168C321.84,220.086 321.332,231.941 321.672,285.805C322.18,351.691 321.5,360.328 314.559,375.063C311,382.516 297.621,396.402 293.895,396.402C292.539,396.402 291.691,397.422 292.199,398.438C292.707,400.129 298.297,400.469 315.066,399.961C347.922,399.113 370.789,402.84 406.867,415.375C424.648,421.641 428.883,422.656 428.883,420.625C428.883,419.777 426.684,417.914 424.141,416.391C413.133,409.953 389.758,384.379 380.781,369.305C365.707,344.066 357.07,321.203 347.246,282.078C341.828,259.891 338.777,225.848 338.609,186.719C338.609,152.168 337.594,143.023 334.883,152.848Z" style="fill:rgb(254,254,254);fill-rule:nonzero;"/>
                <path d="M424.648,168.09C421.941,169.105 417.027,170.801 413.809,171.984C404.832,175.203 388.402,189.094 378.07,201.965C372.992,208.57 367.91,214.668 367.063,215.684C366.047,216.867 362.66,221.273 359.609,225.676C353.176,234.652 353.852,237.703 362.488,239.395C365.031,239.902 371.637,241.43 377.227,242.953C389.25,246 414.824,246.508 421.602,243.801C436.844,237.531 445.145,232.621 453.613,225C467.5,212.297 496.801,170.121 493.754,167.074C491.891,165.379 430.07,166.227 424.648,168.09Z" style="fill:rgb(254,254,254);fill-rule:nonzero;"/>
                <path d="M233.766,192.648C229.363,193.328 183.973,215.684 180.922,218.563C178.043,221.441 184.816,226.523 204.125,236.008C229.023,248.371 239.695,251.422 255.445,250.406C273.398,249.219 286.273,242.445 308.461,222.629C315.402,216.359 314.559,213.988 303.211,209.246C299.145,207.723 293.895,205.184 291.184,203.828C288.645,202.473 279.836,199.086 271.875,196.375C257.816,191.633 247.148,190.617 233.766,192.648Z" style="fill:rgb(254,254,254);fill-rule:nonzero;"/>
                <path d="M294.234,259.891C261.035,278.012 249.348,290.887 242.742,316.289C241.727,320.355 240.203,326.453 239.188,329.84C238.34,333.398 237.152,341.527 236.477,347.965L235.461,359.648L240.035,358.465C242.574,357.785 248.164,355.586 252.566,353.555C294.063,334.246 311.34,309.855 310.152,271.914C309.816,259.551 308.289,254.133 305.41,254.133C304.902,254.133 299.82,256.672 294.234,259.891Z" style="fill:rgb(254,254,254);fill-rule:nonzero;"/>
                <path d="M352.668,265.309C352.668,271.066 364.691,292.918 371.637,299.691C382.645,310.531 399.75,316.969 416.688,316.629C429.391,316.461 448.363,312.566 447.855,310.191C447.344,307.652 431.934,287.496 424.82,279.875C412.961,267.172 399.242,262.77 370.957,262.602C355.039,262.602 352.668,262.938 352.668,265.309Z" style="fill:rgb(254,254,254);fill-rule:nonzero;"/>
            </g>
        </g>
        <g>
            <g transform="matrix(1,0,0,1,251.648,133.427)">
                <g transform="matrix(95.634,0,0,95.634,0,0)">
                    <path d="M0.585,-0.371C0.599,-0.368 0.609,-0.362 0.615,-0.353C0.622,-0.345 0.625,-0.336 0.625,-0.326C0.625,-0.317 0.622,-0.309 0.617,-0.301C0.611,-0.293 0.602,-0.287 0.591,-0.283L0.591,-0.117C0.591,-0.101 0.586,-0.087 0.575,-0.076C0.564,-0.065 0.554,-0.055 0.545,-0.045C0.521,-0.022 0.493,-0.005 0.461,0.006C0.429,0.017 0.397,0.022 0.364,0.022C0.31,0.022 0.263,0.011 0.222,-0.012C0.182,-0.034 0.148,-0.062 0.121,-0.097C0.094,-0.131 0.074,-0.168 0.06,-0.209C0.047,-0.249 0.04,-0.288 0.04,-0.325C0.04,-0.346 0.042,-0.369 0.048,-0.394C0.053,-0.42 0.061,-0.444 0.071,-0.469C0.082,-0.493 0.095,-0.516 0.112,-0.537C0.128,-0.558 0.147,-0.576 0.169,-0.59C0.209,-0.616 0.25,-0.637 0.291,-0.654C0.333,-0.67 0.375,-0.678 0.419,-0.678C0.431,-0.678 0.446,-0.677 0.464,-0.675C0.482,-0.672 0.499,-0.668 0.515,-0.662C0.532,-0.657 0.546,-0.649 0.558,-0.64C0.57,-0.63 0.576,-0.618 0.576,-0.604C0.576,-0.593 0.572,-0.583 0.564,-0.575C0.555,-0.566 0.545,-0.562 0.533,-0.562C0.526,-0.562 0.518,-0.564 0.509,-0.567C0.501,-0.57 0.491,-0.573 0.481,-0.576C0.471,-0.58 0.461,-0.583 0.45,-0.586C0.44,-0.589 0.429,-0.59 0.419,-0.59C0.411,-0.59 0.404,-0.59 0.398,-0.589C0.391,-0.588 0.385,-0.587 0.378,-0.585C0.349,-0.576 0.32,-0.565 0.291,-0.553C0.261,-0.541 0.234,-0.525 0.21,-0.505C0.187,-0.485 0.167,-0.461 0.152,-0.431C0.138,-0.402 0.13,-0.366 0.13,-0.323C0.13,-0.287 0.137,-0.254 0.149,-0.223C0.162,-0.191 0.178,-0.164 0.199,-0.141C0.22,-0.119 0.243,-0.101 0.271,-0.087C0.298,-0.074 0.326,-0.067 0.356,-0.067C0.382,-0.067 0.407,-0.073 0.432,-0.083C0.457,-0.093 0.48,-0.109 0.501,-0.129L0.501,-0.28C0.473,-0.279 0.445,-0.278 0.417,-0.278L0.334,-0.278C0.317,-0.281 0.306,-0.286 0.298,-0.295C0.29,-0.304 0.286,-0.313 0.286,-0.324C0.286,-0.334 0.29,-0.344 0.299,-0.354C0.307,-0.364 0.32,-0.369 0.337,-0.369C0.344,-0.369 0.36,-0.369 0.384,-0.37C0.408,-0.37 0.434,-0.37 0.461,-0.37C0.488,-0.37 0.514,-0.37 0.538,-0.371C0.562,-0.371 0.577,-0.371 0.585,-0.371Z" style="fill:rgb(77,141,81);fill-rule:nonzero;"/>
                </g>
                <g transform="matrix(95.634,0,0,95.634,63.5094,0)">
                    <path d="M0.083,-0.385C0.072,-0.39 0.064,-0.397 0.059,-0.406C0.053,-0.414 0.051,-0.422 0.051,-0.43C0.051,-0.441 0.055,-0.451 0.063,-0.459C0.071,-0.468 0.082,-0.472 0.096,-0.472C0.106,-0.472 0.119,-0.468 0.135,-0.461C0.15,-0.453 0.162,-0.445 0.171,-0.436C0.194,-0.456 0.218,-0.471 0.242,-0.484C0.266,-0.497 0.291,-0.503 0.316,-0.503C0.323,-0.503 0.334,-0.501 0.348,-0.497C0.362,-0.494 0.376,-0.488 0.39,-0.481C0.403,-0.473 0.415,-0.464 0.425,-0.452C0.436,-0.44 0.441,-0.427 0.441,-0.411C0.441,-0.399 0.437,-0.388 0.429,-0.381C0.421,-0.373 0.411,-0.369 0.399,-0.369C0.391,-0.369 0.384,-0.371 0.377,-0.376C0.371,-0.381 0.365,-0.386 0.359,-0.392C0.352,-0.397 0.346,-0.402 0.339,-0.407C0.332,-0.411 0.324,-0.413 0.315,-0.413C0.305,-0.413 0.293,-0.41 0.281,-0.404C0.269,-0.398 0.257,-0.39 0.245,-0.381C0.233,-0.372 0.221,-0.363 0.21,-0.352C0.199,-0.342 0.189,-0.333 0.181,-0.325L0.181,-0.031C0.18,-0.014 0.176,-0.001 0.166,0.007C0.157,0.016 0.147,0.02 0.136,0.02C0.126,0.02 0.116,0.016 0.107,0.008C0.098,0.001 0.093,-0.011 0.091,-0.028L0.091,-0.329L0.09,-0.339L0.091,-0.349L0.091,-0.381C0.088,-0.383 0.085,-0.384 0.083,-0.385Z" style="fill:rgb(77,141,81);fill-rule:nonzero;"/>
                </g>
            </g>
            <g transform="matrix(1,0,0,1,359.54,133.427)">
                <g>
                    <g transform="matrix(95.634,0,0,95.634,0,0)">
                        <path d="M0.166,-0.035C0.165,-0.018 0.16,-0.006 0.151,0.003C0.142,0.011 0.131,0.015 0.12,0.015C0.11,0.015 0.101,0.012 0.092,0.004C0.083,-0.004 0.077,-0.016 0.075,-0.032C0.074,-0.101 0.074,-0.172 0.073,-0.244C0.073,-0.316 0.073,-0.387 0.072,-0.456C0.076,-0.471 0.081,-0.482 0.09,-0.49C0.098,-0.497 0.107,-0.501 0.117,-0.501C0.127,-0.501 0.136,-0.497 0.144,-0.491C0.153,-0.484 0.159,-0.474 0.162,-0.46C0.163,-0.39 0.164,-0.32 0.164,-0.248C0.164,-0.175 0.165,-0.105 0.166,-0.035ZM0.064,-0.636C0.064,-0.653 0.069,-0.666 0.08,-0.678C0.09,-0.689 0.102,-0.695 0.117,-0.695C0.132,-0.695 0.145,-0.689 0.155,-0.678C0.166,-0.666 0.171,-0.653 0.171,-0.636C0.171,-0.621 0.166,-0.608 0.155,-0.596C0.145,-0.585 0.132,-0.579 0.117,-0.579C0.102,-0.579 0.09,-0.585 0.08,-0.596C0.069,-0.608 0.064,-0.621 0.064,-0.636Z" style="fill:rgb(77,141,81);fill-rule:nonzero;"/>
                    </g>
                    <g transform="matrix(1,0,0,1,23.988,0)">
                        <g transform="matrix(95.634,0,0,95.634,0,0)">
                            <path d="M0.347,-0.463C0.354,-0.476 0.363,-0.484 0.373,-0.488C0.383,-0.492 0.392,-0.493 0.402,-0.49C0.411,-0.487 0.419,-0.482 0.425,-0.472C0.431,-0.463 0.434,-0.452 0.433,-0.438C0.423,-0.398 0.411,-0.359 0.397,-0.321C0.384,-0.283 0.37,-0.245 0.357,-0.207C0.344,-0.171 0.332,-0.136 0.32,-0.102C0.308,-0.068 0.294,-0.034 0.28,0C0.266,0.016 0.252,0.023 0.235,0.021C0.219,0.019 0.207,0.008 0.198,-0.01C0.171,-0.08 0.144,-0.149 0.117,-0.218C0.089,-0.286 0.058,-0.354 0.024,-0.42C0.017,-0.435 0.015,-0.448 0.019,-0.459C0.022,-0.471 0.029,-0.479 0.038,-0.485C0.046,-0.49 0.057,-0.492 0.069,-0.49C0.081,-0.487 0.092,-0.48 0.102,-0.466C0.127,-0.415 0.152,-0.362 0.175,-0.309C0.197,-0.256 0.22,-0.203 0.241,-0.148C0.246,-0.162 0.251,-0.176 0.256,-0.19C0.261,-0.204 0.266,-0.218 0.271,-0.232C0.284,-0.27 0.297,-0.308 0.31,-0.346C0.324,-0.384 0.336,-0.423 0.347,-0.463Z" style="fill:rgb(77,141,81);fill-rule:nonzero;"/>
                        </g>
                        <g transform="matrix(95.634,0,0,95.634,43.7486,0)">
                            <path d="M0.434,-0.129C0.45,-0.135 0.463,-0.136 0.474,-0.131C0.485,-0.127 0.493,-0.12 0.498,-0.11C0.503,-0.101 0.503,-0.09 0.5,-0.078C0.497,-0.067 0.488,-0.057 0.474,-0.049C0.45,-0.035 0.424,-0.022 0.396,-0.01C0.368,0.002 0.339,0.01 0.31,0.014C0.282,0.019 0.253,0.019 0.225,0.014C0.197,0.009 0.171,-0.002 0.145,-0.02C0.114,-0.041 0.09,-0.07 0.074,-0.107C0.058,-0.143 0.049,-0.181 0.049,-0.22C0.048,-0.26 0.055,-0.298 0.07,-0.334C0.085,-0.371 0.109,-0.4 0.141,-0.422C0.175,-0.445 0.212,-0.462 0.252,-0.473C0.292,-0.485 0.332,-0.486 0.372,-0.477C0.392,-0.473 0.41,-0.464 0.427,-0.449C0.443,-0.435 0.456,-0.418 0.466,-0.399C0.476,-0.381 0.481,-0.361 0.482,-0.34C0.483,-0.319 0.477,-0.299 0.466,-0.281C0.454,-0.26 0.436,-0.243 0.412,-0.228C0.389,-0.214 0.363,-0.202 0.335,-0.192C0.308,-0.182 0.28,-0.173 0.252,-0.167C0.225,-0.16 0.201,-0.154 0.18,-0.148C0.171,-0.146 0.163,-0.145 0.155,-0.147C0.166,-0.123 0.182,-0.104 0.204,-0.089C0.226,-0.074 0.253,-0.067 0.285,-0.07C0.311,-0.071 0.337,-0.078 0.363,-0.091C0.389,-0.104 0.413,-0.117 0.434,-0.129ZM0.219,-0.365C0.192,-0.351 0.171,-0.331 0.158,-0.306C0.145,-0.28 0.138,-0.253 0.138,-0.225C0.143,-0.229 0.149,-0.232 0.155,-0.234C0.168,-0.238 0.181,-0.242 0.195,-0.246C0.209,-0.25 0.222,-0.254 0.236,-0.257C0.245,-0.26 0.257,-0.263 0.272,-0.267C0.287,-0.272 0.303,-0.277 0.319,-0.283C0.336,-0.289 0.35,-0.296 0.364,-0.303C0.377,-0.311 0.386,-0.32 0.39,-0.329C0.392,-0.354 0.386,-0.37 0.372,-0.379C0.359,-0.388 0.343,-0.392 0.325,-0.392C0.306,-0.392 0.287,-0.389 0.267,-0.383C0.248,-0.377 0.231,-0.371 0.219,-0.365Z" style="fill:rgb(77,141,81);fill-rule:nonzero;"/>
                        </g>
                        <g transform="matrix(95.634,0,0,95.634,89.822,0)">
                            <path d="M0.128,-0.389C0.112,-0.391 0.1,-0.397 0.092,-0.406C0.085,-0.414 0.081,-0.424 0.081,-0.434C0.081,-0.445 0.085,-0.455 0.093,-0.465C0.102,-0.475 0.115,-0.48 0.131,-0.48L0.193,-0.48L0.193,-0.654C0.197,-0.669 0.203,-0.68 0.211,-0.687C0.219,-0.695 0.228,-0.698 0.239,-0.698C0.248,-0.698 0.257,-0.695 0.266,-0.688C0.274,-0.682 0.28,-0.671 0.284,-0.657L0.284,-0.48L0.39,-0.48C0.404,-0.476 0.414,-0.47 0.421,-0.461C0.428,-0.453 0.431,-0.444 0.431,-0.434C0.431,-0.424 0.427,-0.415 0.42,-0.407C0.413,-0.399 0.401,-0.393 0.387,-0.389L0.284,-0.389C0.283,-0.332 0.283,-0.274 0.284,-0.214C0.285,-0.154 0.285,-0.095 0.285,-0.039C0.285,-0.022 0.28,-0.009 0.27,-0.001C0.26,0.008 0.25,0.012 0.24,0.012C0.229,0.012 0.22,0.008 0.211,0.001C0.202,-0.007 0.197,-0.019 0.194,-0.035C0.194,-0.093 0.194,-0.152 0.194,-0.212C0.194,-0.273 0.193,-0.331 0.193,-0.389L0.128,-0.389Z" style="fill:rgb(77,141,81);fill-rule:nonzero;"/>
                        </g>
                        <g transform="matrix(95.634,0,0,95.634,133.571,0)">
                            <path d="M0.421,-0.473C0.427,-0.483 0.434,-0.491 0.441,-0.495C0.448,-0.499 0.456,-0.502 0.464,-0.502C0.477,-0.502 0.487,-0.497 0.495,-0.487C0.503,-0.478 0.507,-0.464 0.507,-0.448C0.492,-0.388 0.472,-0.33 0.449,-0.274C0.425,-0.218 0.399,-0.163 0.371,-0.109C0.343,-0.056 0.314,-0.002 0.283,0.05C0.252,0.103 0.222,0.156 0.192,0.21C0.186,0.218 0.18,0.224 0.172,0.227C0.165,0.23 0.158,0.232 0.151,0.232C0.14,0.232 0.131,0.228 0.123,0.22C0.115,0.212 0.11,0.2 0.11,0.186L0.11,0.178C0.11,0.176 0.111,0.173 0.112,0.17C0.136,0.125 0.161,0.081 0.187,0.038C0.213,-0.006 0.238,-0.05 0.262,-0.094C0.232,-0.117 0.206,-0.142 0.182,-0.166C0.159,-0.191 0.138,-0.217 0.119,-0.245C0.1,-0.272 0.084,-0.302 0.07,-0.334C0.056,-0.366 0.043,-0.401 0.033,-0.439C0.033,-0.458 0.037,-0.472 0.045,-0.482C0.052,-0.492 0.063,-0.497 0.076,-0.497C0.086,-0.497 0.095,-0.494 0.103,-0.488C0.112,-0.482 0.118,-0.471 0.122,-0.457C0.13,-0.427 0.139,-0.398 0.151,-0.372C0.162,-0.346 0.176,-0.321 0.191,-0.299C0.206,-0.276 0.223,-0.255 0.241,-0.235C0.26,-0.215 0.281,-0.195 0.304,-0.176C0.328,-0.224 0.35,-0.272 0.371,-0.32C0.391,-0.369 0.408,-0.42 0.421,-0.473Z" style="fill:rgb(77,141,81);fill-rule:nonzero;"/>
                        </g>
                    </g>
                </g>
            </g>
        </g>
    </g>
</symbol>

<symbol id='instagram'  viewBox="0 0 511 511.9" ><path fill='#fff' d="m510.949219 150.5c-1.199219-27.199219-5.597657-45.898438-11.898438-62.101562-6.5-17.199219-16.5-32.597657-29.601562-45.398438-12.800781-13-28.300781-23.101562-45.300781-29.5-16.296876-6.300781-34.898438-10.699219-62.097657-11.898438-27.402343-1.300781-36.101562-1.601562-105.601562-1.601562s-78.199219.300781-105.5 1.5c-27.199219 1.199219-45.898438 5.601562-62.097657 11.898438-17.203124 6.5-32.601562 16.5-45.402343 29.601562-13 12.800781-23.097657 28.300781-29.5 45.300781-6.300781 16.300781-10.699219 34.898438-11.898438 62.097657-1.300781 27.402343-1.601562 36.101562-1.601562 105.601562s.300781 78.199219 1.5 105.5c1.199219 27.199219 5.601562 45.898438 11.902343 62.101562 6.5 17.199219 16.597657 32.597657 29.597657 45.398438 12.800781 13 28.300781 23.101562 45.300781 29.5 16.300781 6.300781 34.898438 10.699219 62.101562 11.898438 27.296876 1.203124 36 1.5 105.5 1.5s78.199219-.296876 105.5-1.5c27.199219-1.199219 45.898438-5.597657 62.097657-11.898438 34.402343-13.300781 61.601562-40.5 74.902343-74.898438 6.296876-16.300781 10.699219-34.902343 11.898438-62.101562 1.199219-27.300781 1.5-36 1.5-105.5s-.101562-78.199219-1.300781-105.5zm-46.097657 209c-1.101562 25-5.300781 38.5-8.800781 47.5-8.601562 22.300781-26.300781 40-48.601562 48.601562-9 3.5-22.597657 7.699219-47.5 8.796876-27 1.203124-35.097657 1.5-103.398438 1.5s-76.5-.296876-103.402343-1.5c-25-1.097657-38.5-5.296876-47.5-8.796876-11.097657-4.101562-21.199219-10.601562-29.398438-19.101562-8.5-8.300781-15-18.300781-19.101562-29.398438-3.5-9-7.699219-22.601562-8.796876-47.5-1.203124-27-1.5-35.101562-1.5-103.402343s.296876-76.5 1.5-103.398438c1.097657-25 5.296876-38.5 8.796876-47.5 4.101562-11.101562 10.601562-21.199219 19.203124-29.402343 8.296876-8.5 18.296876-15 29.398438-19.097657 9-3.5 22.601562-7.699219 47.5-8.800781 27-1.199219 35.101562-1.5 103.398438-1.5 68.402343 0 76.5.300781 103.402343 1.5 25 1.101562 38.5 5.300781 47.5 8.800781 11.097657 4.097657 21.199219 10.597657 29.398438 19.097657 8.5 8.300781 15 18.300781 19.101562 29.402343 3.5 9 7.699219 22.597657 8.800781 47.5 1.199219 27 1.5 35.097657 1.5 103.398438s-.300781 76.300781-1.5 103.300781zm0 0"/><path fill='#fff' d="m256.449219 124.5c-72.597657 0-131.5 58.898438-131.5 131.5s58.902343 131.5 131.5 131.5c72.601562 0 131.5-58.898438 131.5-131.5s-58.898438-131.5-131.5-131.5zm0 216.800781c-47.097657 0-85.300781-38.199219-85.300781-85.300781s38.203124-85.300781 85.300781-85.300781c47.101562 0 85.300781 38.199219 85.300781 85.300781s-38.199219 85.300781-85.300781 85.300781zm0 0"/><path fill='#fff' d="m423.851562 119.300781c0 16.953125-13.746093 30.699219-30.703124 30.699219-16.953126 0-30.699219-13.746094-30.699219-30.699219 0-16.957031 13.746093-30.699219 30.699219-30.699219 16.957031 0 30.703124 13.742188 30.703124 30.699219zm0 0"/></symbol>
<symbol id='facebook'  viewBox="0 0 167.657 167.657" >
<g>
	<path style="fill:#fff;" d="M83.829,0.349C37.532,0.349,0,37.881,0,84.178c0,41.523,30.222,75.911,69.848,82.57v-65.081H49.626
		v-23.42h20.222V60.978c0-20.037,12.238-30.956,30.115-30.956c8.562,0,15.92,0.638,18.056,0.919v20.944l-12.399,0.006
		c-9.72,0-11.594,4.618-11.594,11.397v14.947h23.193l-3.025,23.42H94.026v65.653c41.476-5.048,73.631-40.312,73.631-83.154
		C167.657,37.881,130.125,0.349,83.829,0.349z"/>
</g>
<g>
</g>
<g>
</g>
<g>
</g>
<g>
</g>
<g>
</g>
<g>
</g>
<g>
</g>
<g>
</g>
<g>
</g>
<g>
</g>
<g>
</g>
<g>
</g>
<g>
</g>
<g>
</g>
<g>
</g>
</symbol>

<symbol id="linkedin" viewBox="0 0 510 510">
<g>
	<g >
		<path fill='#fff' d="M459,0H51C22.95,0,0,22.95,0,51v408c0,28.05,22.95,51,51,51h408c28.05,0,51-22.95,51-51V51C510,22.95,487.05,0,459,0z
			 M153,433.5H76.5V204H153V433.5z M114.75,160.65c-25.5,0-45.9-20.4-45.9-45.9s20.4-45.9,45.9-45.9s45.9,20.4,45.9,45.9
			S140.25,160.65,114.75,160.65z M433.5,433.5H357V298.35c0-20.399-17.85-38.25-38.25-38.25s-38.25,17.851-38.25,38.25V433.5H204
			V204h76.5v30.6c12.75-20.4,40.8-35.7,63.75-35.7c48.45,0,89.25,40.8,89.25,89.25V433.5z"/>
	</g>
</g>
<g>
</g>
<g>
</g>
<g>
</g>
<g>
</g>
<g>
</g>
<g>
</g>
<g>
</g>
<g>
</g>
<g>
</g>
<g>
</g>
<g>
</g>
<g>
</g>
<g>
</g>
<g>
</g>
<g>
</g>
</symbol>

<symbol id='comment' viewBox="0 0 512 512"><path fill="#fff" d="M256 32C114.6 32 0 125.1 0 240c0 49.6 21.4 95 57 130.7C44.5 421.1 2.7 466 2.2 466.5c-2.2 2.3-2.8 5.7-1.5 8.7S4.8 480 8 480c66.3 0 116-31.8 140.6-51.4 32.7 12.3 69 19.4 107.4 19.4 141.4 0 256-93.1 256-208S397.4 32 256 32z"></path></symbol><symbol id='cloud-solid' viewBox="0 0 640 512"><path fill="#fff" d="M537.6 226.6c4.1-10.7 6.4-22.4 6.4-34.6 0-53-43-96-96-96-19.7 0-38.1 6-53.3 16.2C367 64.2 315.3 32 256 32c-88.4 0-160 71.6-160 160 0 2.7.1 5.4.2 8.1C40.2 219.8 0 273.2 0 336c0 79.5 64.5 144 144 144h368c70.7 0 128-57.3 128-128 0-61.9-44-113.6-102.4-125.4z"></path></symbol>
<symbol id='cog' viewBox="0 0 512 512"><path fill="#fff" d="M487.4 315.7l-42.6-24.6c4.3-23.2 4.3-47 0-70.2l42.6-24.6c4.9-2.8 7.1-8.6 5.5-14-11.1-35.6-30-67.8-54.7-94.6-3.8-4.1-10-5.1-14.8-2.3L380.8 110c-17.9-15.4-38.5-27.3-60.8-35.1V25.8c0-5.6-3.9-10.5-9.4-11.7-36.7-8.2-74.3-7.8-109.2 0-5.5 1.2-9.4 6.1-9.4 11.7V75c-22.2 7.9-42.8 19.8-60.8 35.1L88.7 85.5c-4.9-2.8-11-1.9-14.8 2.3-24.7 26.7-43.6 58.9-54.7 94.6-1.7 5.4.6 11.2 5.5 14L67.3 221c-4.3 23.2-4.3 47 0 70.2l-42.6 24.6c-4.9 2.8-7.1 8.6-5.5 14 11.1 35.6 30 67.8 54.7 94.6 3.8 4.1 10 5.1 14.8 2.3l42.6-24.6c17.9 15.4 38.5 27.3 60.8 35.1v49.2c0 5.6 3.9 10.5 9.4 11.7 36.7 8.2 74.3 7.8 109.2 0 5.5-1.2 9.4-6.1 9.4-11.7v-49.2c22.2-7.9 42.8-19.8 60.8-35.1l42.6 24.6c4.9 2.8 11 1.9 14.8-2.3 24.7-26.7 43.6-58.9 54.7-94.6 1.5-5.5-.7-11.3-5.6-14.1zM256 336c-44.1 0-80-35.9-80-80s35.9-80 80-80 80 35.9 80 80-35.9 80-80 80z"></path></symbol><symbol id='cart' viewBox="0 0 576 512"><path fill="#fff" d="M504.717 320H211.572l6.545 32h268.418c15.401 0 26.816 14.301 23.403 29.319l-5.517 24.276C523.112 414.668 536 433.828 536 456c0 31.202-25.519 56.444-56.824 55.994-29.823-.429-54.35-24.631-55.155-54.447-.44-16.287 6.085-31.049 16.803-41.548H231.176C241.553 426.165 248 440.326 248 456c0 31.813-26.528 57.431-58.67 55.938-28.54-1.325-51.751-24.385-53.251-52.917-1.158-22.034 10.436-41.455 28.051-51.586L93.883 64H24C10.745 64 0 53.255 0 40V24C0 10.745 10.745 0 24 0h102.529c11.401 0 21.228 8.021 23.513 19.19L159.208 64H551.99c15.401 0 26.816 14.301 23.403 29.319l-47.273 208C525.637 312.246 515.923 320 504.717 320zM408 168h-48v-40c0-8.837-7.163-16-16-16h-16c-8.837 0-16 7.163-16 16v40h-48c-8.837 0-16 7.163-16 16v16c0 8.837 7.163 16 16 16h48v40c0 8.837 7.163 16 16 16h16c8.837 0 16-7.163 16-16v-40h48c8.837 0 16-7.163 16-16v-16c0-8.837-7.163-16-16-16z"></path></symbol>
<symbol id='building' viewBox="0 0 448 512"><path fill="fff" d="M436 480h-20V24c0-13.255-10.745-24-24-24H56C42.745 0 32 10.745 32 24v456H12c-6.627 0-12 5.373-12 12v20h448v-20c0-6.627-5.373-12-12-12zM128 76c0-6.627 5.373-12 12-12h40c6.627 0 12 5.373 12 12v40c0 6.627-5.373 12-12 12h-40c-6.627 0-12-5.373-12-12V76zm0 96c0-6.627 5.373-12 12-12h40c6.627 0 12 5.373 12 12v40c0 6.627-5.373 12-12 12h-40c-6.627 0-12-5.373-12-12v-40zm52 148h-40c-6.627 0-12-5.373-12-12v-40c0-6.627 5.373-12 12-12h40c6.627 0 12 5.373 12 12v40c0 6.627-5.373 12-12 12zm76 160h-64v-84c0-6.627 5.373-12 12-12h40c6.627 0 12 5.373 12 12v84zm64-172c0 6.627-5.373 12-12 12h-40c-6.627 0-12-5.373-12-12v-40c0-6.627 5.373-12 12-12h40c6.627 0 12 5.373 12 12v40zm0-96c0 6.627-5.373 12-12 12h-40c-6.627 0-12-5.373-12-12v-40c0-6.627 5.373-12 12-12h40c6.627 0 12 5.373 12 12v40zm0-96c0 6.627-5.373 12-12 12h-40c-6.627 0-12-5.373-12-12V76c0-6.627 5.373-12 12-12h40c6.627 0 12 5.373 12 12v40z"></path></symbol>
<symbol id='bullhorn' viewBox="0 0 576 512"><path fill="#fff" d="M576 240c0-23.63-12.95-44.04-32-55.12V32.01C544 23.26 537.02 0 512 0c-7.12 0-14.19 2.38-19.98 7.02l-85.03 68.03C364.28 109.19 310.66 128 256 128H64c-35.35 0-64 28.65-64 64v96c0 35.35 28.65 64 64 64h33.7c-1.39 10.48-2.18 21.14-2.18 32 0 39.77 9.26 77.35 25.56 110.94 5.19 10.69 16.52 17.06 28.4 17.06h74.28c26.05 0 41.69-29.84 25.9-50.56-16.4-21.52-26.15-48.36-26.15-77.44 0-11.11 1.62-21.79 4.41-32H256c54.66 0 108.28 18.81 150.98 52.95l85.03 68.03a32.023 32.023 0 0 0 19.98 7.02c24.92 0 32-22.78 32-32V295.13C563.05 284.04 576 263.63 576 240zm-96 141.42l-33.05-26.44C392.95 311.78 325.12 288 256 288v-96c69.12 0 136.95-23.78 190.95-66.98L480 98.58v282.84z"></path></symbol>
<symbol id='funnel' viewBox="0 0 640 512"><path fill="#fff" d="M433.46 165.94l101.2-111.87C554.61 34.12 540.48 0 512.26 0H31.74C3.52 0-10.61 34.12 9.34 54.07L192 256v155.92c0 12.59 5.93 24.44 16 32l79.99 60c20.86 15.64 48.47 6.97 59.22-13.57C310.8 455.38 288 406.35 288 352c0-89.79 62.05-165.17 145.46-186.06zM480 192c-88.37 0-160 71.63-160 160s71.63 160 160 160 160-71.63 160-160-71.63-160-160-160zm16 239.88V448c0 4.42-3.58 8-8 8h-16c-4.42 0-8-3.58-8-8v-16.29c-11.29-.58-22.27-4.52-31.37-11.35-3.9-2.93-4.1-8.77-.57-12.14l11.75-11.21c2.77-2.64 6.89-2.76 10.13-.73 3.87 2.42 8.26 3.72 12.82 3.72h28.11c6.5 0 11.8-5.92 11.8-13.19 0-5.95-3.61-11.19-8.77-12.73l-45-13.5c-18.59-5.58-31.58-23.42-31.58-43.39 0-24.52 19.05-44.44 42.67-45.07V256c0-4.42 3.58-8 8-8h16c4.42 0 8 3.58 8 8v16.29c11.29.58 22.27 4.51 31.37 11.35 3.9 2.93 4.1 8.77.57 12.14l-11.75 11.21c-2.77 2.64-6.89 2.76-10.13.73-3.87-2.43-8.26-3.72-12.82-3.72h-28.11c-6.5 0-11.8 5.92-11.8 13.19 0 5.95 3.61 11.19 8.77 12.73l45 13.5c18.59 5.58 31.58 23.42 31.58 43.39 0 24.53-19.04 44.44-42.67 45.07z"></path></symbol>
<symbol id='graph' viewBox="0 0 640 512"><path fill="#fff" d="M216 288h-48c-8.84 0-16 7.16-16 16v192c0 8.84 7.16 16 16 16h48c8.84 0 16-7.16 16-16V304c0-8.84-7.16-16-16-16zM88 384H40c-8.84 0-16 7.16-16 16v96c0 8.84 7.16 16 16 16h48c8.84 0 16-7.16 16-16v-96c0-8.84-7.16-16-16-16zm256-192h-48c-8.84 0-16 7.16-16 16v288c0 8.84 7.16 16 16 16h48c8.84 0 16-7.16 16-16V208c0-8.84-7.16-16-16-16zm128-96h-48c-8.84 0-16 7.16-16 16v384c0 8.84 7.16 16 16 16h48c8.84 0 16-7.16 16-16V112c0-8.84-7.16-16-16-16zM600 0h-48c-8.84 0-16 7.16-16 16v480c0 8.84 7.16 16 16 16h48c8.84 0 16-7.16 16-16V16c0-8.84-7.16-16-16-16z"></path></symbol>
<symbol id='credit' viewBox="0 0 576 512"><path fill="#fff" d="M0 432c0 26.5 21.5 48 48 48h480c26.5 0 48-21.5 48-48V256H0v176zm192-68c0-6.6 5.4-12 12-12h136c6.6 0 12 5.4 12 12v40c0 6.6-5.4 12-12 12H204c-6.6 0-12-5.4-12-12v-40zm-128 0c0-6.6 5.4-12 12-12h72c6.6 0 12 5.4 12 12v40c0 6.6-5.4 12-12 12H76c-6.6 0-12-5.4-12-12v-40zM576 80v48H0V80c0-26.5 21.5-48 48-48h480c26.5 0 48 21.5 48 48z"></path></symbol>
<symbol id='money' viewBox="0 0 640 512"><path fill="#fff" d="M352 288h-16v-88c0-4.42-3.58-8-8-8h-13.58c-4.74 0-9.37 1.4-13.31 4.03l-15.33 10.22a7.994 7.994 0 0 0-2.22 11.09l8.88 13.31a7.994 7.994 0 0 0 11.09 2.22l.47-.31V288h-16c-4.42 0-8 3.58-8 8v16c0 4.42 3.58 8 8 8h64c4.42 0 8-3.58 8-8v-16c0-4.42-3.58-8-8-8zM608 64H32C14.33 64 0 78.33 0 96v320c0 17.67 14.33 32 32 32h576c17.67 0 32-14.33 32-32V96c0-17.67-14.33-32-32-32zM48 400v-64c35.35 0 64 28.65 64 64H48zm0-224v-64h64c0 35.35-28.65 64-64 64zm272 192c-53.02 0-96-50.15-96-112 0-61.86 42.98-112 96-112s96 50.14 96 112c0 61.87-43 112-96 112zm272 32h-64c0-35.35 28.65-64 64-64v64zm0-224c-35.35 0-64-28.65-64-64h64v64z"></path></symbol>
<symbol id='wallet' viewBox="0 0 512 512"><path fill="#fff" d="M461.2 128H80c-8.84 0-16-7.16-16-16s7.16-16 16-16h384c8.84 0 16-7.16 16-16 0-26.51-21.49-48-48-48H64C28.65 32 0 60.65 0 96v320c0 35.35 28.65 64 64 64h397.2c28.02 0 50.8-21.53 50.8-48V176c0-26.47-22.78-48-50.8-48zM416 336c-17.67 0-32-14.33-32-32s14.33-32 32-32 32 14.33 32 32-14.33 32-32 32z"></path></symbol>
<symbol id='piggy' viewBox="0 0 576 512"><path fill="#fff" d="M560 224h-29.5c-8.8-20-21.6-37.7-37.4-52.5L512 96h-32c-29.4 0-55.4 13.5-73 34.3-7.6-1.1-15.1-2.3-23-2.3H256c-77.4 0-141.9 55-156.8 128H56c-14.8 0-26.5-13.5-23.5-28.8C34.7 215.8 45.4 208 57 208h1c3.3 0 6-2.7 6-6v-20c0-3.3-2.7-6-6-6-28.5 0-53.9 20.4-57.5 48.6C-3.9 258.8 22.7 288 56 288h40c0 52.2 25.4 98.1 64 127.3V496c0 8.8 7.2 16 16 16h64c8.8 0 16-7.2 16-16v-48h128v48c0 8.8 7.2 16 16 16h64c8.8 0 16-7.2 16-16v-80.7c11.8-8.9 22.3-19.4 31.3-31.3H560c8.8 0 16-7.2 16-16V240c0-8.8-7.2-16-16-16zm-128 64c-8.8 0-16-7.2-16-16s7.2-16 16-16 16 7.2 16 16-7.2 16-16 16zM256 96h128c5.4 0 10.7.4 15.9.8 0-.3.1-.5.1-.8 0-53-43-96-96-96s-96 43-96 96c0 2.1.5 4.1.6 6.2 15.2-3.9 31-6.2 47.4-6.2z"></path></symbol>
<symbol id='play' viewBox="0 0 163.861 163.861" >
<g>
	<path d="M34.857,3.613C20.084-4.861,8.107,2.081,8.107,19.106v125.637c0,17.042,11.977,23.975,26.75,15.509L144.67,97.275
		c14.778-8.477,14.778-22.211,0-30.686L34.857,3.613z"/>
</g>
<g>
</g>
<g>
</g>
<g>
</g>
<g>
</g>
<g>
</g>
<g>
</g>
<g>
</g>
<g>
</g>
<g>
</g>
<g>
</g>
<g>
</g>
<g>
</g>
<g>
</g>
<g>
</g>
<g>
</g>
</symbol>

<symbol id='cleanSoils' viewBox="0 0 675 112.499997" >
<g id="surface1">
<path style=" stroke:none;fill-rule:nonzero;fill:rgb(28.239441%,69.40918%,86.268616%);fill-opacity:1;" d="M 44.175781 94.171875 C 36.035156 94.171875 26.457031 92.445312 19.765625 86.050781 C 12.964844 79.464844 9.257812 69.050781 9.257812 58.835938 C 9.257812 37.445312 23.679688 23.5 43.65625 23.5 C 65.289062 23.5 72.703125 39.734375 72.703125 43.082031 C 72.703125 44.800781 71.46875 47.089844 68.683594 47.089844 C 65.699219 47.089844 63.949219 43.9375 62.507812 41.457031 C 60.652344 38.113281 57.765625 35.339844 54.574219 33.53125 C 52.414062 32.289062 49.117188 30.855469 44.070312 30.855469 C 33.773438 30.855469 19.351562 36.773438 19.351562 59.214844 C 19.351562 81.660156 33.5625 86.816406 43.246094 86.816406 C 53.957031 86.816406 61.0625 81.371094 64.671875 71.824219 C 65.394531 70.007812 66.214844 67.910156 69.09375 67.910156 C 71.058594 67.910156 73.320312 69.242188 73.320312 71.730469 C 73.320312 77.554688 65.289062 94.171875 44.175781 94.171875 "/>
<path style=" stroke:none;fill-rule:nonzero;fill:rgb(28.239441%,69.40918%,86.268616%);fill-opacity:1;" d="M 128.4375 85.667969 C 131.527344 85.667969 135.339844 85.574219 135.339844 89.394531 C 135.339844 93.214844 131.632812 93.023438 128.4375 93.023438 L 95.582031 93.023438 C 88.164062 93.023438 87.34375 92.261719 87.34375 85.382812 L 87.34375 31.050781 C 87.34375 27.800781 87.34375 26.082031 88.578125 24.933594 C 89.300781 24.265625 90.535156 23.5 92.1875 23.5 C 93.527344 23.5 94.964844 23.980469 95.894531 24.933594 C 97.234375 26.082031 97.234375 27.898438 97.234375 31.050781 L 97.234375 85.667969 Z M 128.4375 85.667969 "/>
<path style=" stroke:none;fill-rule:nonzero;fill:rgb(28.239441%,69.40918%,86.268616%);fill-opacity:1;" d="M 156.566406 53.96875 L 188.089844 53.96875 C 191.074219 53.96875 194.675781 53.96875 194.675781 57.597656 C 194.675781 61.316406 191.171875 61.316406 188.089844 61.316406 L 156.566406 61.316406 L 156.566406 85.667969 L 192.308594 85.667969 C 195.300781 85.667969 199.105469 85.574219 199.105469 89.296875 C 199.105469 93.117188 195.398438 93.023438 192.308594 93.023438 L 154.921875 93.023438 C 150.492188 93.023438 149.667969 93.023438 148.125 91.683594 C 146.675781 90.445312 146.675781 89.203125 146.675781 85.382812 L 146.675781 32.289062 C 146.675781 28.945312 146.578125 27.515625 148.015625 26.082031 C 149.355469 24.742188 150.597656 24.648438 154.921875 24.648438 L 190.867188 24.648438 C 193.851562 24.648438 197.667969 24.554688 197.667969 28.277344 C 197.667969 32.097656 193.960938 32.003906 190.867188 32.003906 L 156.566406 32.003906 Z M 156.566406 53.96875 "/>
<path style=" stroke:none;fill-rule:nonzero;fill:rgb(28.239441%,69.40918%,86.268616%);fill-opacity:1;" d="M 251.753906 65.902344 L 237.949219 33.914062 L 224.664062 65.902344 Z M 221.886719 73.257812 L 215.496094 88.53125 C 213.953125 92.160156 213.226562 94.171875 209.832031 94.171875 C 207.152344 94.171875 205.097656 92.070312 205.097656 90.15625 C 205.097656 88.726562 205.605469 87.578125 206.535156 85.382812 L 229.917969 31.621094 C 232.179688 26.273438 233.3125 23.5 238.054688 23.5 C 239.90625 23.5 241.96875 24.265625 243 25.410156 C 244.027344 26.464844 245.367188 29.425781 246.296875 31.527344 L 270.5 84.996094 C 271.527344 87.386719 272.046875 88.53125 272.046875 89.964844 C 272.046875 91.785156 270.082031 94.171875 267.097656 94.171875 C 263.699219 94.171875 262.976562 92.160156 261.332031 88.339844 L 254.738281 73.257812 Z M 221.886719 73.257812 "/>
<path style=" stroke:none;fill-rule:nonzero;fill:rgb(28.239441%,69.40918%,86.268616%);fill-opacity:1;" d="M 331.28125 30.855469 C 331.171875 27.898438 331.171875 26.9375 331.898438 25.695312 C 332.414062 24.648438 333.960938 23.5 335.917969 23.5 C 337.257812 23.5 338.488281 23.980469 339.410156 24.839844 C 340.75 25.988281 340.75 27.707031 340.75 30.855469 L 340.75 84.90625 C 340.75 89.585938 340.75 91.207031 338.695312 92.832031 C 337.5625 93.695312 336.222656 94.171875 334.675781 94.171875 C 331.484375 94.171875 330.457031 92.730469 327.464844 88.625 L 291.519531 38.875 L 291.929688 86.816406 C 291.929688 89.871094 291.929688 90.730469 291.316406 91.976562 C 290.796875 93.023438 289.152344 94.171875 287.195312 94.171875 C 285.960938 94.171875 284.621094 93.695312 283.691406 92.832031 C 282.351562 91.683594 282.351562 89.964844 282.351562 86.816406 L 282.351562 32.382812 C 282.351562 27.707031 282.351562 26.464844 284.308594 24.839844 C 284.722656 24.457031 285.960938 23.5 288.222656 23.5 C 291.207031 23.5 292.242188 24.933594 295.023438 28.847656 L 331.589844 79.464844 Z M 331.28125 30.855469 "/>
<path style=" stroke:none;fill-rule:nonzero;fill:rgb(28.239441%,69.40918%,86.268616%);fill-opacity:1;" d="M 406.269531 93.15625 C 399.261719 93.15625 390.8125 91.71875 385.253906 86.46875 C 381.136719 82.550781 378.660156 77.019531 378.660156 72.90625 C 378.660156 70.902344 380.519531 68.992188 382.984375 68.992188 C 385.765625 68.992188 386.386719 70.523438 388.140625 75.007812 C 389.375 78.160156 392.359375 86.179688 405.644531 86.179688 C 414.8125 86.179688 423.980469 81.785156 423.980469 73.382812 C 423.980469 64.507812 414.300781 62.40625 409.148438 61.351562 C 395.554688 58.585938 392.054688 57.722656 387.515625 54.476562 C 384.941406 52.566406 380.617188 48.460938 380.617188 41.105469 C 380.617188 28.503906 392.464844 22.394531 405.75 22.394531 C 413.371094 22.394531 423.253906 24.203125 428.203125 32.132812 C 429.542969 34.328125 430.570312 37.097656 430.570312 39.195312 C 430.570312 41.207031 428.921875 43.6875 426.140625 43.6875 C 423.058594 43.6875 422.128906 41.296875 421.304688 39.101562 C 420.269531 36.335938 419.347656 34.234375 416.257812 32.132812 C 413.683594 30.414062 409.664062 29.363281 405.4375 29.363281 C 395.859375 29.363281 390.097656 34.519531 390.097656 40.15625 C 390.097656 48.175781 399.261719 50.179688 406.46875 51.804688 C 418.527344 54.476562 422.949219 56.101562 426.765625 58.777344 C 431.296875 61.925781 433.457031 67.945312 433.457031 72.140625 C 433.457031 83.503906 424.191406 93.15625 406.269531 93.15625 "/>
<path style=" stroke:none;fill-rule:nonzero;fill:rgb(28.239441%,69.40918%,86.268616%);fill-opacity:1;" d="M 536.9375 85.972656 C 536.9375 89.214844 536.9375 90.933594 535.597656 92.082031 C 534.878906 92.75 533.640625 93.515625 531.992188 93.515625 C 530.761719 93.515625 529.3125 93.035156 528.390625 92.179688 C 527.046875 90.933594 527.046875 89.214844 527.046875 85.972656 L 527.046875 30.394531 C 527.046875 27.148438 527.046875 25.429688 528.390625 24.285156 C 529.109375 23.613281 530.242188 22.851562 531.992188 22.851562 C 533.226562 22.851562 534.671875 23.328125 535.597656 24.285156 C 536.9375 25.429688 536.9375 27.242188 536.9375 30.394531 Z M 536.9375 85.972656 "/>
<path style=" stroke:none;fill-rule:nonzero;fill:rgb(28.239441%,69.40918%,86.268616%);fill-opacity:1;" d="M 596.785156 85.015625 C 599.878906 85.015625 603.6875 84.925781 603.6875 88.738281 C 603.6875 92.558594 599.976562 92.375 596.785156 92.375 L 563.925781 92.375 C 556.515625 92.375 555.6875 91.605469 555.6875 84.730469 L 555.6875 30.394531 C 555.6875 27.148438 555.6875 25.429688 556.921875 24.285156 C 557.644531 23.613281 558.878906 22.851562 560.53125 22.851562 C 561.871094 22.851562 563.308594 23.328125 564.238281 24.285156 C 565.578125 25.429688 565.578125 27.242188 565.578125 30.394531 L 565.578125 85.015625 Z M 596.785156 85.015625 "/>
<path style=" stroke:none;fill-rule:nonzero;fill:rgb(28.239441%,69.40918%,86.268616%);fill-opacity:1;" d="M 639.234375 93.613281 C 632.226562 93.613281 623.777344 92.179688 618.21875 86.929688 C 614.101562 83.015625 611.625 77.476562 611.625 73.371094 C 611.625 71.359375 613.484375 69.457031 615.949219 69.457031 C 618.730469 69.457031 619.351562 70.980469 621.105469 75.464844 C 622.339844 78.617188 625.324219 86.640625 638.609375 86.640625 C 647.777344 86.640625 656.945312 82.25 656.945312 73.847656 C 656.945312 64.964844 647.265625 62.863281 642.113281 61.816406 C 628.519531 59.042969 625.019531 58.1875 620.480469 54.9375 C 617.90625 53.027344 613.582031 48.917969 613.582031 41.570312 C 613.582031 28.960938 625.429688 22.851562 638.714844 22.851562 C 646.335938 22.851562 656.21875 24.667969 661.167969 32.589844 C 662.507812 34.785156 663.535156 37.558594 663.535156 39.660156 C 663.535156 41.664062 661.886719 44.144531 659.105469 44.144531 C 656.023438 44.144531 655.09375 41.753906 654.269531 39.558594 C 653.242188 36.792969 652.3125 34.691406 649.222656 32.589844 C 646.648438 30.871094 642.628906 29.824219 638.402344 29.824219 C 628.832031 29.824219 623.0625 34.976562 623.0625 40.613281 C 623.0625 48.632812 632.226562 50.636719 639.4375 52.261719 C 651.492188 54.9375 655.914062 56.5625 659.730469 59.234375 C 664.261719 62.386719 666.421875 68.402344 666.421875 72.601562 C 666.421875 83.96875 657.15625 93.613281 639.234375 93.613281 "/>
<path style=" stroke:none;fill-rule:nonzero;fill:rgb(45.489502%,76.469421%,17.248535%);fill-opacity:1;" d="M 439.480469 19.699219 C 439.480469 19.699219 458.332031 23.757812 485.316406 24.988281 C 511.4375 26.175781 523.523438 62.789062 511.019531 81.980469 C 511.019531 81.980469 482.230469 48.933594 464.601562 41.734375 C 464.601562 41.734375 503.824219 79.632812 505.296875 86.683594 C 505.296875 86.683594 443.453125 125.023438 439.480469 19.699219 "/>
</g>
</symbol>

<symbol 
	 viewBox="0 0 512 512" id='email'>
<g>
	<g>
		<path d="M467,61H45C20.218,61,0,81.196,0,106v300c0,24.72,20.128,45,45,45h422c24.72,0,45-20.128,45-45V106
			C512,81.28,491.872,61,467,61z M460.786,91L256.954,294.833L51.359,91H460.786z M30,399.788V112.069l144.479,143.24L30,399.788z
			 M51.213,421l144.57-144.57l50.657,50.222c5.864,5.814,15.327,5.795,21.167-0.046L317,277.213L460.787,421H51.213z M482,399.787
			L338.213,256L482,112.212V399.787z"/>
	</g>
</g>
<g>
</g>
<g>
</g>
<g>
</g>
<g>
</g>
<g>
</g>
<g>
</g>
<g>
</g>
<g>
</g>
<g>
</g>
<g>
</g>
<g>
</g>
<g>
</g>
<g>
</g>
<g>
</g>
<g>
</g>
</symbol>

<symbol viewBox="0 0 103.536 103.536" id='arrow'>
<g>
	<g>
		<path d="M0.65,91.928c1.221,2.701,3.881,4.3,6.665,4.3c1.006,0,2.029-0.209,3.006-0.65l88.917-40.195
			c2.688-1.216,4.381-3.925,4.295-6.873c-0.085-2.948-1.934-5.554-4.687-6.609L9.929,7.794C6.17,6.352,1.933,8.23,0.489,12.001
			c-1.447,3.769,0.438,7.995,4.207,9.44l72.569,27.834L4.299,82.255C0.62,83.92-1.012,88.249,0.65,91.928z"/>
	</g>
</g>
<g>
</g>
<g>
</g>
<g>
</g>
<g>
</g>
<g>
</g>
<g>
</g>
<g>
</g>
<g>
</g>
<g>
</g>
<g>
</g>
<g>
</g>
<g>
</g>
<g>
</g>
<g>
</g>
<g>
</g>
</symbol>

<symbol id='construction'  viewBox="0 0 512 512" ><g><path d="m168 200h16v16h-16z"/><path d="m224 368h16v16h-16z"/><path d="m272 368h16v16h-16z"/><path d="m248 336h16v16h-16z"/><path d="m64 312h16v16h-16z"/><path d="m64 360h16v16h-16z"/><path d="m88 336h16v16h-16z"/><path d="m64 408h16v16h-16z"/><path d="m64 448h16v16h-16z"/><path d="m88 384h16v16h-16z"/><path d="m462.246 480-6.485-25.94a8 8 0 0 0 -7.761-6.06h-16v-136h-16v9.186l-32 34.448v-36.208l32-34.448v11.022h16v-160h40a8 8 0 0 0 7.155-4.422l16-32a8 8 0 0 0 -1.5-9.235l-53.655-53.657v-12.686a8 8 0 0 0 -8-8h-24a8 8 0 0 0 -7.311 4.751l-5.2 11.71-348.389 39.59a8 8 0 0 0 -7.1 7.949v8h-16a8 8 0 0 0 -7.155 11.578l16 32a8 8 0 0 0 7.155 4.422h40v-16h-35.056l-8-16h99.056v16h-40v16h72v32h-8a8 8 0 0 0 -7.311 4.751l-16 36a8 8 0 0 0 .365 7.218l16 28a8 8 0 0 0 6.946 4.031h8v12.687l-21.657 21.656a8 8 0 0 0 -1.932 8.187l8 24a8 8 0 0 0 7.589 5.47h32a8 8 0 0 0 8-8v-24h-16v16h-18.234l-4.613-13.839 20.5-20.5a8 8 0 0 0 2.347-5.661v-16h8a8 8 0 0 0 6.946-4.031l16-28a8 8 0 0 0 .365-7.218l-16-36a8 8 0 0 0 -7.311-4.751h-8v-32h99.056l29.789 59.578a8 8 0 0 0 7.155 4.422h48v248h-16a8 8 0 0 0 -7.761 6.06l-6.485 25.94h-17.754v-120a8 8 0 0 0 -1.685-4.911l-14.847-19.089h.532v-24h-16v4.113l-25.685-33.024a8 8 0 0 0 -12.336-.357l-56 64a8 8 0 0 0 -1.979 5.268v52.686l-26.343-26.343a8 8 0 0 0 -11.314 0l-18.343 18.343v-76.686a8 8 0 0 0 -3.088-6.314l-72-56a8 8 0 0 0 -4.912-1.686v-32h-16v32a8 8 0 0 0 -8 8v96h16v-88h5.255l66.745 51.913v88.773l-13.657 13.657a8 8 0 0 0 -2.343 5.657v48h-56v-104h-16v104h-16v16h480v-16zm-263.2-268.452-11.689 20.452h-22.714l-11.687-20.452 12.244-27.548h21.6zm216.954 133.146v40.492l-32 34.448v-40.492zm0-208.694v1.186l-32 34.448v-35.634zm-32 59.142 32-34.448v36.776l-32 34.448zm0 100.776v-40.492l32-34.448v40.492zm83.056-175.918h-251.056v-16h259.056zm1.63-32h-28.686v-28.686zm-55.486-56h10.8v56h-35.69zm-357.2 55.143 331.947-37.722-17.147 38.579h-314.8zm96 32.857v-16h48v16zm172.944 64-8-16h19.056v-16h-27.056l-8-16h67.056v48zm59.056 259.142 32-34.448v39.306h-32zm-152 4.858v32h-16v-48a8 8 0 0 0 -2.343-5.657l-5.657-5.657v-4.686h96v24h-64a8 8 0 0 0 -8 8zm23.637-147.437 48.363 62.182v37.255h-96v-44.994zm-87.637 179.437v-32h-16v32h-32v-44.687l40-40 40 40v44.687zm80 0v-24h56v24zm106.246 0 4-16h83.508l4 16z"/></g></symbol>
<symbol id="soil" viewBox="0 -29 511.99177 511"><path d="m8.535156 452.789062c-1.65625 0-3.304687-.488281-4.730468-1.425781-2.378907-1.589843-3.804688-4.257812-3.804688-7.109375v-102.40625c0-3.667968 2.339844-6.929687 5.820312-8.089844 2.507813-.84375 8.15625-4.085937 12.6875-6.699218 5.847657-3.363282 11.359376-6.542969 15.378907-7.925782 4.480469-1.546874 9.054687-2.859374 13.636719-4.183593 6.8125-1.953125 13.246093-3.804688 19.289062-6.390625 5.023438-2.140625 9.496094-5.726563 14.222656-9.523438 5.121094-4.105468 10.414063-8.355468 17.050782-11.394531 11.230468-5.144531 23.484374-6.757813 35.425781-4.640625 7.074219 1.246094 14.320312 3.710938 21.519531 7.320312 7.007812 3.515626 12.71875 8.117188 18.230469 12.5625 2.054687 1.65625 4.113281 3.320313 6.238281 4.90625 6.785156 5.085938 14.171875 9.464844 21.949219 13.015626 12.304687 5.625 30.738281 11.496093 48.648437 7.613281 4.335938-.949219 8.585938-2.367188 13.082032-3.867188 6.09375-2.039062 12.390624-4.140625 19.363281-5.179687 12.863281-1.921875 24.355469-1.511719 34.160156 1.203125 9.191406 2.535156 16.199219 8.859375 19.742187 17.800781 1.714844 4.328125 2.566407 8.644531 3.378907 12.828125 3.488281-.242187 6.945312-.648437 10.410156-1.058594 3.140625-.367187 6.28125-.734375 9.429687-1 9.359376-.769531 18.738282-1.476562 28.117188-2.015625 21.898438-1.242187 43.078125-3.042968 61.503906-11.296875 11.246094-5.035156 30.226563-6.808593 44.742188-.425781 8.5 3.726562 14.378906 9.820312 16.984375 17.621094 3.53125 10.554687-2.773438 22.265625-14.046875 26.105468-10.402344 3.53125-20.789063 7.125-31.167969 10.71875l-43.46875 15.042969c-2.253906.777344-4.488281 1.648438-6.726563 2.527344-5.265624 2.046875-10.707031 4.164063-16.65625 5.351563-11.230468 2.226562-21.710937 2.03125-31.832031 1.84375-4.554687-.085938-9.164062-.179688-13.910156-.035157-13.816406.402344-27.382813 2.78125-40.328125 7.058594-4.207031 1.390625-8.375 2.984375-12.546875 4.574219-9.96875 3.796875-20.265625 7.730468-31.539063 9.28125-12.964843 1.785156-27.328124.839844-40 0l-4.878906-.3125c-10.300781-.640625-20.535156-2.765625-30.425781-4.816406-7.261719-1.507813-14.113281-2.933594-20.984375-3.8125-18.722656-2.398438-34.988281-2.789063-49.742188-1.167969-31.300781 3.421875-81.359374 14.351562-110.945312 26.726562-1.042969.460938-2.160156.675781-3.277344.675781zm8.53125-105.410156v84.457032c31.941406-11.347657 75.480469-20.308594 103.855469-23.40625 16.113281-1.757813 33.691406-1.367188 53.765625 1.210937 7.515625.964844 15.027344 2.515625 22.28125 4.027344 9.726562 2.023437 18.925781 3.925781 28.007812 4.488281l4.941407.324219c12.441406.820312 25.300781 1.664062 36.539062.121093 9.34375-1.289062 18.304688-4.703124 27.796875-8.320312 4.410156-1.683594 8.824219-3.363281 13.269532-4.832031 14.507812-4.792969 29.714843-7.464844 45.183593-7.910157 5.027344-.144531 9.910157-.058593 14.730469.027344 9.644531.179688 18.757812.355469 28.1875-1.519531 4.472656-.886719 9.003906-2.65625 13.789062-4.515625 2.449219-.953125 4.890626-1.902344 7.339844-2.746094l43.472656-15.039062c10.410157-3.609375 20.8125-7.210938 31.25-10.75 2.066407-.710938 3.949219-2.742188 3.351563-4.53125-1.066406-3.191406-3.574219-5.617188-7.652344-7.410156-9.378906-4.113282-23.347656-3.011719-30.910156.378906-21.070313 9.429687-43.957031 11.417968-67.5 12.765625-9.242187.527343-18.46875 1.21875-27.695313 1.980469-2.949218.238281-5.894531.585937-8.839843.9375-4.242188.496093-8.492188.988281-12.757813 1.230468-2.988281.363282-6.125.765625-9.140625-.582031-5.453125-2.414063-6.417969-6.253906-6.332031-9.082031-.273438-.835938-.554688-2.320313-.84375-3.820313-.707031-3.703125-1.382812-7.203125-2.558594-10.183593-1.078125-2.710938-3.414062-6.246094-8.414062-7.636719-7.503906-2.082031-16.625-2.335938-27.113282-.765625-5.488281.808594-10.8125 2.59375-16.453124 4.480468-4.726563 1.578126-9.617188 3.207032-14.867188 4.351563-22.503906 4.898437-44.707031-2.066406-59.367188-8.765625-8.894531-4.0625-17.332031-9.0625-25.089843-14.882812-2.289063-1.707032-4.496094-3.5-6.714844-5.28125-5.042969-4.0625-9.808594-7.902344-15.175781-10.601563-5.726563-2.867187-11.382813-4.8125-16.835938-5.765625-8.515625-1.503906-17.28125-.351562-25.355468 3.351562-4.707032 2.160157-8.96875 5.574219-13.472657 9.191407-5.417969 4.34375-11.027343 8.839843-18.203125 11.90625-7.015625 3.003906-14.269531 5.085937-21.273437 7.097656-4.300781 1.238281-8.59375 2.46875-12.800781 3.910156-2.46875.851563-7.988282 4.027344-12.417969 6.578125-3.53125 2.023438-6.9375 3.976563-9.976563 5.53125zm0 0"/><path d="m252.265625 390.859375c-15.855469 0-31.753906-.949219-47.445313-2.84375-19.9375-2.398437-45.621093-6.765625-67.453124-19.398437-4.078126-2.363282-5.46875-7.585938-3.113282-11.664063 2.355469-4.078125 7.585938-5.480469 11.65625-3.113281 19.140625 11.074218 42.625 15.027344 60.949219 17.226562 19.550781 2.355469 39.441406 3.203125 59.113281 2.46875l1.476563-.050781c16.640625-.597656 33.84375-1.214844 47.351562-9.023437 4.769531-2.753907 9.046875-6.203126 12.691407-10.230469 3.15625-3.5 8.558593-3.761719 12.050781-.597657 3.496093 3.160157 3.761719 8.558594.605469 12.050782-4.839844 5.351562-10.496094 9.914062-16.804688 13.558594-17.1875 9.941406-37.429688 10.667968-55.289062 11.300781l-1.46875.050781c-4.761719.179688-9.539063.265625-14.320313.265625zm0 0"/><path d="m238.945312 239.441406c-4.710937 0-8.535156-3.820312-8.535156-8.53125v-196.277344c0-4.710937 3.824219-8.535156 8.535156-8.535156 4.710938 0 8.535157 3.824219 8.535157 8.535156v196.277344c0 4.710938-3.824219 8.53125-8.535157 8.53125zm0 0"/><path d="m146.191406 172.136719c-26.660156 0-58.609375-7.988281-84.398437-38.078125-1.46875-1.917969-27.65625-37.554688-27.65625-99.425782 0-3.226562 1.824219-6.179687 4.707031-7.621093 2.886719-1.441407 6.351562-1.144531 8.9375.785156.316406.238281 32.519531 23.902344 71.691406 23.902344.851563 0 85.335938 1.171875 85.335938 102.40625 0 3.371093-1.988282 6.425781-5.066406 7.800781-.4375.195312-23.664063 10.230469-53.550782 10.230469zm-94.347656-121.777344c3.769531 46.1875 23.058594 72.75 23.269531 73.042969 39.289063 45.808594 95.246094 30.984375 112.527344 24.902344-2.9375-78.613282-65.445313-79.535157-68.167969-79.535157-28.390625 0-52.976562-10.429687-67.628906-18.410156zm0 0"/><path d="m196.269531 162.640625c-1.570312 0-3.152343-.429687-4.574219-1.332031l-93.871093-59.738282c-3.976563-2.523437-5.148438-7.808593-2.621094-11.785156 2.527344-3.964844 7.808594-5.152344 11.785156-2.617187l93.871094 59.734375c3.976563 2.527344 5.144531 7.808594 2.621094 11.785156-1.632813 2.550781-4.386719 3.953125-7.210938 3.953125zm0 0"/><path d="m343.59375 188.257812c-5.800781 0-11.664062-.402343-17.554688-1.230468-50.40625-7.011719-52.957031-28.65625-52.957031-32.921875 0-33.332031 9.1875-59.265625 27.316407-77.09375 24.710937-24.304688 56.78125-24.089844 58.164062-24.039063 47.847656 0 88.785156-25.304687 89.1875-25.558594 2.628906-1.648437 5.957031-1.742187 8.667969-.238281 2.714843 1.5 4.40625 4.351563 4.40625 7.457031v43.933594c-2.117188 21.613282-8.226563 40.335938-18.210938 56.484375-20.636719 33.410157-58.269531 53.207031-99.019531 53.207031zm-53.445312-34.65625c.871093 3.40625 9.171874 12.476563 38.246093 16.539063 40.554688 5.648437 79.691407-11.640625 99.703125-44.050781 8.601563-13.925782 13.882813-30.203125 15.699219-48.371094l-.023437-28.757812c-17.050782 8.355468-48.96875 21.070312-85.355469 21.070312-.296875.121094-26.710938-.015625-46.21875 19.304688-14.542969 14.410156-21.964844 36.035156-22.050781 64.265624zm0 .101563v.402344s.023437-.144531 0-.402344zm0 0"/><path d="m238.945312 179.707031c-1.058593 0-2.125-.195312-3.167968-.613281l-42.667969-17.070312c-4.375-1.757813-6.5-6.714844-4.753906-11.09375 1.75-4.367188 6.726562-6.484376 11.09375-4.75l42.671875 17.066406c4.375 1.757812 6.5 6.714844 4.753906 11.09375-1.339844 3.335937-4.550781 5.367187-7.929688 5.367187zm0 0"/><path d="m335.164062 368.6875c-1.621093 0-3.253906-.222656-4.839843-.9375-5.453125-2.417969-6.417969-6.257812-6.332031-9.082031-.273438-.835938-.554688-2.320313-.84375-3.824219-.707032-3.703125-1.382813-7.199219-2.5625-10.179688-1.074219-2.714843-3.410157-6.246093-8.414063-7.636718-7.5-2.082032-16.621094-2.339844-27.109375-.769532-5.488281.8125-10.8125 2.59375-16.453125 4.480469-4.726563 1.578125-9.617187 3.210938-14.867187 4.351563-22.496094 4.910156-44.707032-2.0625-59.367188-8.761719-8.894531-4.0625-17.332031-9.0625-25.089844-14.882813-2.289062-1.707031-4.5-3.5-6.71875-5.285156-5.042968-4.058594-9.804687-7.902344-15.171875-10.597656-4.214843-2.117188-8.890625-3.789062-13.917969-4.976562-2.722656-.648438-4.949218-2.574219-5.972656-5.167969-1.023437-2.605469-.710937-5.53125.835938-7.863281l1.101562-1.652344c.1875-.292969.398438-.566406.621094-.828125 2.195312-2.542969 54.386719-62.699219 108.882812-62.699219 3.277344 0 78.613282.699219 107.96875 59.957031 35.046876 2.84375 62.707032 32.277344 62.707032 68.050781v4.429688c0 4.453125-3.429688 8.164062-7.867188 8.507812-4.34375.339844-8.6875.621094-12.988281.871094-9.242187.527344-18.46875 1.21875-27.695313 1.976563-2.949218.242187-5.894531.589843-8.839843.941406-4.242188.492187-8.492188.988281-12.757813 1.226563-1.417968.171874-2.859375.351562-4.308594.351562zm-37.386718-50.496094c6.851562 0 13.183594.796875 18.9375 2.390625 9.1875 2.535157 16.195312 8.859375 19.738281 17.800781 1.714844 4.328126 2.566406 8.644532 3.378906 12.828126 3.488281-.238282 6.945313-.648438 10.410157-1.058594 3.140624-.367188 6.28125-.734375 9.429687-1 9.363281-.765625 18.742187-1.476563 28.121094-2.011719 1.542969-.085937 3.085937-.179687 4.640625-.28125-1.808594-26.59375-24.03125-47.679687-51.082032-47.679687-3.414062 0-6.496093-2.03125-7.84375-5.171876-23.03125-53.738281-93.863281-54.566406-94.570312-54.566406-35.816406 0-72.929688 33.179688-88.425781 48.804688 1.542969.648437 3.0625 1.351562 4.53125 2.085937 6.996093 3.515625 12.707031 8.105469 18.226562 12.558594 2.054688 1.65625 4.113281 3.320313 6.238281 4.90625 6.785157 5.089844 14.175782 9.464844 21.949219 13.015625 12.304688 5.625 30.738281 11.496094 48.652344 7.613281 4.332031-.949219 8.582031-2.363281 13.082031-3.867187 6.089844-2.039063 12.390625-4.136719 19.363282-5.179688 5.304687-.792968 10.390624-1.1875 15.222656-1.1875zm0 0"/><path d="m281.621094 162.640625c-3.222656 0-6.3125-1.835937-7.753906-4.960937-1.972657-4.273438-.105469-9.351563 4.171874-11.324219l110.9375-51.199219c4.269532-1.980469 9.355469-.105469 11.324219 4.171875 1.972657 4.273437.101563 9.351563-4.171875 11.324219l-110.9375 51.203125c-1.164062.535156-2.375.785156-3.570312.785156zm0 0"/><path d="m238.945312 205.308594c-2.183593 0-4.371093-.835938-6.035156-2.5-3.335937-3.335938-3.335937-8.730469 0-12.066406l42.671875-42.667969c3.328125-3.339844 8.738281-3.339844 12.066407 0 3.335937 3.335937 3.335937 8.726562 0 12.066406l-42.667969 42.667969c-1.664063 1.664062-3.851563 2.5-6.035157 2.5zm0 0"/><path d="m238.945312 43.167969c-2.183593 0-4.371093-.835938-6.035156-2.5l-25.597656-25.601563c-3.339844-3.339844-3.339844-8.730468 0-12.066406 3.328125-3.339844 8.738281-3.339844 12.066406 0l25.601563 25.601562c3.335937 3.335938 3.335937 8.726563 0 12.066407-1.664063 1.664062-3.851563 2.5-6.035157 2.5zm0 0"/><path d="m238.945312 43.167969c-2.183593 0-4.371093-.835938-6.035156-2.5-3.335937-3.339844-3.335937-8.730469 0-12.066407l25.601563-25.601562c3.328125-3.339844 8.738281-3.339844 12.066406 0 3.339844 3.335938 3.339844 8.726562 0 12.066406l-25.597656 25.601563c-1.664063 1.664062-3.851563 2.5-6.035157 2.5zm0 0"/></symbol><symbol id="drop" viewBox="0 0 294.465 294.465"><g> <g> <path d="M174.432,32.465c-6.8-10-12.8-19.2-18.4-27.6c-0.8-1.2-2-2.4-3.2-3.2c-4.8-3.2-11.2-1.6-14.4,3.2 c-5.2,8.4-11.2,17.2-18.4,27.6c-31.6,46.4-78.8,116.4-78.8,156.4c0,29.2,12,55.6,31.2,74.8c19.2,18.8,45.6,30.8,74.8,30.8 s55.6-12,74.8-31.2c19.2-19.2,31.2-45.6,31.2-74.8C253.232,148.465,206.032,78.865,174.432,32.465z M207.632,248.865 c-15.6,15.6-36.8,24.8-60.4,24.8c-23.6,0-44.8-9.6-60.4-24.8c-15.6-15.6-24.8-36.8-24.8-60.4c0-33.6,45.2-100.4,75.2-144.8 c3.6-5.2,6.8-10.4,10-14.8c3.2,4.4,6.4,9.6,10,14.8c30,44.8,75.2,111.2,75.2,144.8 C232.432,212.065,222.832,233.265,207.632,248.865z"/> </g> </g><g> <g> <path d="M209.232,181.265c-5.6-0.4-10.4,4-10.8,9.6c-0.4,8.8-3.2,17.2-7.6,24.4c-4.4,7.2-10.8,13.6-18.4,17.6 c-4.8,2.8-6.8,9.2-4,14c3.2,5.6,9.6,7.2,14.4,4.4c10.8-6,19.6-14.8,25.6-24.8c6.4-10,10-22,10.4-34.4 C219.232,186.465,214.832,181.665,209.232,181.265z"/> </g> </g></symbol><symbol id="reduction" viewBox="0 0 512 512"><path d="m418.186 56.386h-100.963v-23.344c0-18.22-14.823-33.042-33.042-33.042h-56.361c-18.219 0-33.042 14.822-33.042 33.042v23.344h-33.595c-4.142 0-7.5 3.357-7.5 7.5s3.358 7.5 7.5 7.5h257.004c10.196 0 18.492 8.295 18.492 18.491s-8.295 18.491-18.492 18.491h-324.374c-10.196 0-18.492-8.295-18.492-18.491s8.295-18.491 18.492-18.491h34.683c4.142 0 7.5-3.357 7.5-7.5s-3.358-7.5-7.5-7.5h-34.683c-18.467 0-33.492 15.025-33.492 33.491s15.024 33.491 33.492 33.491h2.186l39.114 148.783h-5.767c-6.952 0-12.608 5.656-12.608 12.608v47.729c0 6.952 5.656 12.608 12.608 12.608h4.839l-17.091 55.102c-1.227 3.956.985 8.158 4.942 9.385.74.229 1.488.339 2.224.339 3.199 0 6.163-2.064 7.161-5.28l18.469-59.545h32.114l-15.16 103.479c-.6 4.099 2.235 7.907 6.334 8.508.369.054.734.08 1.096.08 3.661 0 6.865-2.685 7.412-6.414l15.478-105.652h51.336v104.565c0 4.143 3.358 7.5 7.5 7.5s7.5-3.357 7.5-7.5v-104.565h51.336l15.478 105.652c.546 3.73 3.75 6.414 7.412 6.414.362 0 .728-.026 1.096-.08 4.099-.601 6.934-4.409 6.334-8.508l-15.16-103.479h32.114l38.465 124.016c2.016 6.5.921 13.432-3.005 19.018-3.747 5.334-9.56 8.558-15.953 8.846-.336.016-.674.022-1.014.022h-249.206c-.34 0-.678-.007-1.019-.022-6.388-.288-12.201-3.512-15.948-8.846-3.926-5.587-5.021-12.518-3.005-19.018l10.313-33.249c1.227-3.956-.985-8.158-4.942-9.385-3.956-1.229-8.158.984-9.385 4.941l-10.312 33.25c-3.404 10.972-1.56 22.667 5.058 32.086 6.44 9.165 16.481 14.708 27.543 15.206.563.025 1.128.038 1.698.038h249.206c.569 0 1.135-.013 1.693-.038 11.066-.498 21.106-6.041 27.547-15.206 6.618-9.419 8.462-21.114 5.059-32.086l-37.087-119.572h4.839c6.952 0 12.608-5.656 12.608-12.608v-47.73c0-6.952-5.656-12.608-12.608-12.608h-5.767l15.136-57.576c1.053-4.007-1.34-8.107-5.347-9.161-4.005-1.05-8.107 1.342-9.16 5.347l-16.139 61.391h-30.925l14.703-100.358c.6-4.099-2.235-7.907-6.334-8.508-4.1-.591-7.907 2.235-8.508 6.334l-15.021 102.532h-51.793v-101.447c0-4.143-3.358-7.5-7.5-7.5s-7.5 3.357-7.5 7.5v101.445h-51.792l-15.021-102.532c-.6-4.1-4.414-6.926-8.508-6.334-4.099.6-6.934 4.409-6.334 8.508l14.702 100.358h-30.925l-39.114-148.783h288.983l-14.664 55.778c-1.053 4.007 1.34 8.107 5.347 9.161.639.168 1.28.248 1.912.248 3.325 0 6.364-2.229 7.249-5.595l15.666-59.593h2.186c18.467 0 33.492-15.024 33.492-33.491s-15.025-33.49-33.493-33.49zm-208.409-23.344c0-9.948 8.094-18.042 18.042-18.042h56.361c9.948 0 18.042 8.094 18.042 18.042v23.344h-92.445zm170.486 297.056h-248.526v-42.946h23.528v12.496c0 4.143 3.358 7.5 7.5 7.5s7.5-3.357 7.5-7.5v-12.496h47.156v12.496c0 4.143 3.358 7.5 7.5 7.5s7.5-3.357 7.5-7.5v-12.496h47.156v12.496c0 4.143 3.358 7.5 7.5 7.5s7.5-3.357 7.5-7.5v-12.496h47.156v12.496c0 4.143 3.358 7.5 7.5 7.5s7.5-3.357 7.5-7.5v-12.496h23.528v42.946z"/></symbol>
<symbol id="icon-triangle-down" viewBox="0 0 20 20">
<path d="M5 6h10l-5 9-5-9z"></path>
</symbol>
<symbol id="icon-weather-cloudy" viewBox="0 0 24 24">
<path d="M17 19h-11c-2.206 0-4-1.794-4-4 0-1.861 1.277-3.429 3.001-3.874-0.001-0.042-0.001-0.084-0.001-0.126 0-3.309 2.691-6 6-6 2.587 0 4.824 1.638 5.65 4.015 2.942-0.246 5.35 2.113 5.35 4.985 0 2.757-2.243 5-5 5zM5.905 12.994c-1.008 0.006-1.905 0.903-1.905 2.006s0.897 2 2 2h11c1.654 0 3-1.346 3-3s-1.346-3-3-3c-0.243 0-0.5 0.041-0.81 0.13l-1.075 0.307-0.186-1.103c-0.325-1.932-1.977-3.334-3.929-3.334-2.206 0-4 1.794-4 4 0 0.272 0.027 0.545 0.082 0.811l0.244 1.199-1.421-0.016z"></path>
<symbol id='icon-email' viewBox="0 0 20 20">
<path d="M1.574 5.286c0.488 0.262 7.248 3.894 7.5 4.029s0.578 0.199 0.906 0.199c0.328 0 0.654-0.064 0.906-0.199s7.012-3.767 7.5-4.029c0.489-0.263 0.951-1.286 0.054-1.286h-16.919c-0.897 0-0.435 1.023 0.053 1.286zM18.613 7.489c-0.555 0.289-7.387 3.849-7.727 4.027s-0.578 0.199-0.906 0.199-0.566-0.021-0.906-0.199-7.133-3.739-7.688-4.028c-0.39-0.204-0.386 0.035-0.386 0.219s0 7.293 0 7.293c0 0.42 0.566 1 1 1h16c0.434 0 1-0.58 1-1 0 0 0-7.108 0-7.292s0.004-0.423-0.387-0.219z"></path>
</symbol>


<symbol id='icon-phone' viewBox="0 0 32 32">
<path d="M22 20c-2 2-2 4-4 4s-4-2-6-4-4-4-4-6 2-2 4-4-4-8-6-8-6 6-6 6c0 4 4.109 12.109 8 16s12 8 16 8c0 0 6-4 6-6s-6-8-8-6z"></path>
</symbol>

<symbol id='icon-municipal' viewBox="0 0 409.79 409" ><path d="m406.703125 210.421875-78.394531-33.953125c-.644532-.277344-1.332032-.421875-2.035156-.421875h-29.636719v-54.230469h12.257812c2.832031 0 5.121094-2.292968 5.121094-5.121094v-31.554687c0-2.441406-1.726563-4.539063-4.121094-5.019531l-99.878906-19.929688v-18.230468h44.3125c2.832031 0 5.121094-2.292969 5.121094-5.121094v-27.667969c0-2.828125-2.289063-5.121094-5.121094-5.121094h-44.609375c-.636719-2.097656-2.511719-3.65625-4.824219-3.65625-2.828125 0-5.121093 2.292969-5.121093 5.121094v54.675781l-99.878907 19.929688c-2.394531.480468-4.121093 2.578125-4.121093 5.019531v31.554687c0 2.828126 2.292968 5.121094 5.121093 5.121094h12.261719v54.230469h-29.640625c-.699219 0-1.390625.144531-2.035156.421875l-78.394531 33.953125c-1.875.808594-3.085938 2.65625-3.085938 4.695313v31.371093c0 2.828125 2.289062 5.121094 5.121094 5.121094h8.527344v119.265625h-8.527344c-2.832032 0-5.121094 2.292969-5.121094 5.121094v28.875c0 2.828125 2.289062 5.117187 5.121094 5.117187h399.550781c2.828125 0 5.117187-2.289062 5.117187-5.117187v-28.875c0-2.828125-2.289062-5.121094-5.117187-5.121094h-6.875v-119.265625h6.875c2.828125 0 5.117187-2.292969 5.117187-5.121094v-31.371093c0-2.039063-1.210937-3.886719-3.085937-4.695313zm-157.492187-178.703125h-39.195313v-17.425781h39.195313zm-143.195313 57.625 98.878906-19.734375 98.878907 19.734375v22.230469h-197.757813zm17.378906 32.472656h163v54.230469h-163zm-99.503906 129.792969h71.882813v7.480469c0 2.828125 2.292968 5.121094 5.121093 5.121094h10.152344v106.664062h-87.15625zm216.804687 119.265625v-106.664062h49.464844v106.664062zm-69.945312-106.664062v106.664062h-49.464844v-106.664062zm10.238281 0h49.464844v106.664062h-49.464844zm-74.972656-10.242188v-22.230469l98.878906-19.734375 98.878907 19.734375v22.230469zm293.535156 145.78125h-389.3125v-18.636719h389.3125zm-11.996093-28.875h-87.15625v-106.664062h8.496093c2.832031 0 5.121094-2.292969 5.121094-5.121094v-7.480469h73.539063zm11.996093-129.503906h-85.535156v-13.832032c0-2.445312-1.726563-4.542968-4.121094-5.023437l-104-20.753906c-.660156-.132813-1.339843-.132813-2 0l-104 20.753906c-2.394531.480469-4.121093 2.578125-4.121093 5.023437v13.832032h-85.535157v-22.890625l74.335938-32.191407h240.640625l74.335937 32.191407zm0 0"/><path d="m148.328125 135.589844c-2.828125 0-5.117187 2.292968-5.117187 5.121094v16.445312c0 2.828125 2.289062 5.117188 5.117187 5.117188 2.832031 0 5.121094-2.289063 5.121094-5.117188v-16.445312c0-2.828126-2.289063-5.121094-5.121094-5.121094zm0 0"/><path d="m176.609375 135.589844c-2.828125 0-5.121094 2.292968-5.121094 5.121094v16.445312c0 2.828125 2.292969 5.117188 5.121094 5.117188 2.832031 0 5.121094-2.289063 5.121094-5.117188v-16.445312c0-2.828126-2.289063-5.121094-5.121094-5.121094zm0 0"/><path d="m204.894531 135.589844c-2.828125 0-5.121093 2.292968-5.121093 5.121094v16.445312c0 2.828125 2.292968 5.117188 5.121093 5.117188 2.832031 0 5.121094-2.289063 5.121094-5.117188v-16.445312c0-2.828126-2.289063-5.121094-5.121094-5.121094zm0 0"/><path d="m233.179688 135.589844c-2.828126 0-5.121094 2.292968-5.121094 5.121094v16.445312c0 2.828125 2.292968 5.117188 5.121094 5.117188 2.832031 0 5.121093-2.289063 5.121093-5.117188v-16.445312c0-2.828126-2.289062-5.121094-5.121093-5.121094zm0 0"/><path d="m261.460938 135.589844c-2.832032 0-5.121094 2.292968-5.121094 5.121094v16.445312c0 2.828125 2.289062 5.117188 5.121094 5.117188 2.828124 0 5.117187-2.289063 5.117187-5.117188v-16.445312c0-2.828126-2.289063-5.121094-5.117187-5.121094zm0 0"/><path d="m78.910156 264.316406h-27.445312c-2.828125 0-5.121094 2.292969-5.121094 5.121094v27.449219c0 2.824219 2.292969 5.117187 5.121094 5.117187h27.445312c2.828125 0 5.121094-2.292968 5.121094-5.117187v-27.449219c0-2.828125-2.292969-5.121094-5.121094-5.121094zm-5.121094 27.449219h-17.203124v-17.207031h17.203124zm0 0"/><path d="m78.910156 317.597656h-27.445312c-2.828125 0-5.121094 2.292969-5.121094 5.121094v27.445312c0 2.824219 2.292969 5.117188 5.121094 5.117188h27.445312c2.828125 0 5.121094-2.292969 5.121094-5.117188v-27.445312c0-2.828125-2.292969-5.121094-5.121094-5.121094zm-5.121094 27.445313h-17.203124v-17.207031h17.203124zm0 0"/><path d="m330.253906 302.003906h27.445313c2.832031 0 5.121093-2.292968 5.121093-5.117187v-27.449219c0-2.828125-2.289062-5.121094-5.121093-5.121094h-27.445313c-2.828125 0-5.117187 2.292969-5.117187 5.121094v27.449219c0 2.824219 2.289062 5.117187 5.117187 5.117187zm5.121094-27.445312h17.203125v17.207031h-17.203125zm0 0"/><path d="m330.253906 355.28125h27.445313c2.832031 0 5.121093-2.292969 5.121093-5.117188v-27.445312c0-2.828125-2.289062-5.121094-5.121093-5.121094h-27.445313c-2.828125 0-5.117187 2.292969-5.117187 5.121094v27.445312c0 2.824219 2.289062 5.117188 5.117187 5.117188zm5.121094-27.445312h17.203125v17.207031h-17.203125zm0 0"/></symbol>
<symbol id="icon-construction" viewBox="0 0 64 64"><g><path d="m19 58c0-1.654-1.346-3-3-3s-3 1.346-3 3 1.346 3 3 3 3-1.346 3-3zm-3 1c-.552 0-1-.449-1-1s.448-1 1-1 1 .449 1 1-.448 1-1 1z"/><path d="m29 58c0-1.654-1.346-3-3-3s-3 1.346-3 3 1.346 3 3 3 3-1.346 3-3zm-3 1c-.552 0-1-.449-1-1s.448-1 1-1 1 .449 1 1-.448 1-1 1z"/><path d="m41 19h8v-6h-8zm2-4h4v2h-4z"/><path d="m52.816 21h10.184v-10h-2.66l-13-10h-4.508l-29 10h-4.301l-4.957 5.95c-.37.442-.574 1.004-.574 1.582 0 1.361 1.107 2.468 2.469 2.468h4.531v6h-10v10h10c0 1.103.897 2 2 2h2c1.103 0 2-.897 2-2h10v-10h-10v-6h20.184c.302.847.969 1.514 1.816 1.816v14.018l-7.401 4.983c-1.278-1.706-3.309-2.817-5.599-2.817h-6c-2.757 0-5 2.243-5 5v1h-9c-2.757 0-5 2.243-5 5v5h9.026c-.635.838-1.026 1.87-1.026 3 0 2.757 2.243 5 5 5h13 1 23.566.434 4c3.859 0 7-3.14 7-7v-6-1-.451l-12-10.589v-15.144c.847-.302 1.514-.969 1.816-1.816zm-7.816 12c-1.641 0-3.088.806-4 2.031v-12.031h8v12.031c-.912-1.225-2.359-2.031-4-2.031zm-18 20h-6v-8h5c.552 0 1 .449 1 1zm6 2v-4.679l6-4.057v12.736c0 .696.148 1.375.421 2h-7.446c.634-.838 1.025-1.87 1.025-3s-.391-2.162-1.026-3zm8 4c0-1.654 1.346-3 3-3 .614 0 1.208.189 1.717.547l.974.685.507-1.077c.334-.713 1.025-1.155 1.802-1.155.927 0 1.71.631 1.931 1.504l-1.565 2.609c-.239.399-.366.855-.366 1.321 0 .195.026.384.068.566h-7.28c-.496-.549-.788-1.254-.788-2zm11.129-4.492c-.311-.391-.695-.716-1.129-.966v-6.342l3.698 3.026zm-3.129-1.508c-1.177 0-2.283.53-3.033 1.406-.618-.267-1.284-.406-1.967-.406-1.13 0-2.162.391-3 1.026v-10.114l2.984-2.017c.328.068.668.105 1.016.105.264 0 .518-.038.771-.078l3.229 2.642zm-4-12c-1.654 0-3-1.346-3-3s1.346-3 3-3 3 1.346 3 3-1.346 3-3 3zm6-21c0 .551-.448 1-1 1h-10c-.552 0-1-.449-1-1v-8c0-.551.448-1 1-1h10c.552 0 1 .449 1 1zm-7.307-17h2.614l2.25 6h-7.114zm17.307 16h-8v-6h8zm-8.184-8c-.333-.935-1.112-1.654-2.085-1.899l-1.565-4.173 7.894 6.072zm-11.498-7.362-2.048 5.462c-.973.246-1.751.964-2.085 1.899h-17.217zm-18.318 10.029 4 5.333h-8zm-6 4.666-4-5.333h8zm8-5.333h8l-4 5.333zm10.5 0h1.5v6h-6zm-29.5 5.532c0-.109.038-.215.109-.3l4.36-5.232h.031l4.5 6h-8.531c-.259 0-.469-.21-.469-.468zm5 10.468v2h-8v-2zm-8 6v-2h8v2zm14 0v-2h8v2zm8-6v2h-8v-2zm-10 8h-2v-16h2zm25.054 1.535c.147 1.358.83 2.544 1.844 3.355l-8.898 6.016v-1.906c0-.851-.16-1.664-.44-2.42zm-37.054 11.465c0-1.654 1.346-3 3-3h11v-3c0-1.654 1.346-3 3-3h6c2.757 0 5 2.243 5 5v7h-2v-7c0-1.654-1.346-3-3-3h-5c-1.103 0-2 .897-2 2v8h-5-11zm24 11h-1-10-2c-1.654 0-3-1.346-3-3s1.346-3 3-3h2 10 2c1.654 0 3 1.346 3 3s-1.346 3-3 3zm34-5c0 2.757-2.243 5-5 5h-4-.434c-.312 0-.566-.254-.566-.566 0-.102.028-.203.081-.291l5.485-9.143h4.434zm-4.643-7-8.471-6.931c.871-.62 1.521-1.514 1.854-2.553l10.749 9.484z"/><path d="m5 49h2v2h-2z"/><path d="m9 49h2v2h-2z"/><path d="m13 49h2v2h-2z"/></g></symbol>

</symbol>
<symbol 
	 viewBox="0 0 512.213 512.213" id='icon-utilities'>
<g transform="translate(0 1)">
	<g>
		<g>
			<path d="M489.067,187.8L292.8,13.72c-20.48-19.627-52.907-19.627-73.387,0l-65.707,59.733v-23.04h8.533
				c5.12,0,8.533-3.413,8.533-8.533V7.747c0-5.12-3.413-8.533-8.533-8.533H59.84c-5.12,0-8.533,3.413-8.533,8.533V41.88
				c0,5.12,3.413,8.533,8.533,8.533h8.533v98.133L23.147,187.8c-5.973,5.973-7.68,13.653-5.12,21.333
				c2.56,6.827,10.24,11.947,17.92,11.947h32.427v238.933H59.84c-5.12,0-8.533,3.413-8.533,8.533v34.133
				c0,5.12,3.413,8.533,8.533,8.533h392.533c4.267,0,8.533-3.413,8.533-9.387v-34.133c0-2.56-0.853-4.267-2.56-5.973
				c-1.707-1.707-3.413-2.56-5.973-2.56h-8.533V220.227h32.427c8.533,0,15.36-4.267,17.92-11.947
				C496.747,201.453,495.04,192.92,489.067,187.8z M477.973,203.16c-0.853,0.853-1.707,0.853-1.707,0.853h-40.96
				c-5.12,0-8.533,3.413-8.533,8.533v256c0,5.12,3.413,8.533,8.533,8.533h8.533v17.067H68.373V477.08h8.533
				c5.12,0,8.533-3.413,8.533-8.533v-256c0-5.12-3.413-8.533-8.533-8.533h-40.96c-0.853,0-1.707,0-1.707-0.853s0-1.707,0.853-2.56
				l47.787-40.96c1.707-1.707,2.56-4.267,2.56-6.827V41.88c0-5.12-3.413-8.533-8.533-8.533h-8.533V16.28h85.333v17.067h-8.533
				c-5.12,0-8.533,3.413-8.533,8.533v51.2c0,3.413,1.707,6.827,5.12,9.387c3.413,0.853,6.827,0.853,9.387-1.707l80.213-73.387
				c13.653-13.653,34.987-13.653,49.493,0l196.267,174.08C477.973,201.453,478.827,202.307,477.973,203.16z"/>
			<path d="M375.573,340.547h-70.588c-2.963-5.087-8.466-8.533-14.746-8.533h-8.533v-22.094
				c24.955-10.182,42.667-34.736,42.667-63.239c0-37.547-30.72-68.267-68.267-68.267s-68.267,30.72-68.267,68.267
				c0,28.504,17.712,53.058,42.667,63.239v22.094h-8.533c-6.28,0-11.782,3.447-14.746,8.533H136.64
				c-9.387,0-17.067,7.68-17.067,17.067v51.2c0,9.387,7.68,17.067,17.067,17.067h70.588c2.963,5.086,8.466,8.533,14.746,8.533
				h68.267c6.28,0,11.782-3.447,14.746-8.533h70.588c9.387,0,17.067-7.68,17.067-17.067v-51.2
				C392.64,348.227,384.96,340.547,375.573,340.547z M247.573,329.453v-14.507c5.973,0.853,11.093,0.853,17.067,0v14.507H247.573z
				 M205.637,255.213h7.803c5.12,0,8.533-3.413,8.533-8.533s-3.413-8.533-8.533-8.533h-7.803
				c3.623-21.355,20.581-38.313,41.937-41.937v7.803c0,5.12,3.413,8.533,8.533,8.533c5.12,0,8.533-3.413,8.533-8.533v-7.803
				c21.355,3.623,38.313,20.581,41.937,41.937h-7.803c-5.12,0-8.533,3.413-8.533,8.533s3.413,8.533,8.533,8.533h7.803
				c-3.139,18.504-16.289,33.705-33.639,39.794c-0.775-0.031-1.55,0.055-2.325,0.313c-9.387,2.56-19.627,2.56-29.013,0
				c-0.455,0-0.911,0.004-1.366,0.013C222.411,289.475,208.834,274.057,205.637,255.213z M136.64,357.613h68.267v51.2H136.64
				V357.613z M221.973,417.347V349.08h68.267v68.267H221.973z M375.573,408.813h-68.267v-51.2h68.267V408.813z"/>
			<path d="M256.107,255.213c2.56,0,4.267-0.853,5.973-2.56l17.067-17.067c3.413-3.413,3.413-8.533,0-11.947s-8.533-3.413-11.947,0
				l-17.067,17.067c-3.413,3.413-3.413,8.533,0,11.947C251.84,254.36,253.547,255.213,256.107,255.213z"/>
		</g>
	</g>
</g>
<g>
</g>
<g>
</g>
<g>
</g>
<g>
</g>
<g>
</g>
<g>
</g>
<g>
</g>
<g>
</g>
<g>
</g>
<g>
</g>
<g>
</g>
<g>
</g>
<g>
</g>
<g>
</g>
<g>
</g>
</symbol>

<symbol id="icon-weather-sunny" viewBox="0 0 24 24">
<path d="M13 4l-1 2.934-1-2.934c-0.188-0.553 0.106-1.152 0.659-1.341 0.552-0.188 1.153 0.107 1.341 0.659 0.078 0.23 0.072 0.469 0 0.682z"></path>
<path d="M4 11l2.934 1-2.934 1c-0.553 0.188-1.152-0.106-1.341-0.659-0.188-0.552 0.107-1.153 0.659-1.341 0.23-0.078 0.469-0.072 0.682 0z"></path>
<path d="M11 20l1-2.934 1 2.934c0.188 0.553-0.106 1.152-0.659 1.341-0.552 0.188-1.152-0.106-1.341-0.659-0.078-0.23-0.072-0.469 0-0.682z"></path>
<path d="M20 12.998l-2.934-1 2.934-1c0.553-0.188 1.152 0.106 1.341 0.659 0.188 0.552-0.106 1.152-0.659 1.341-0.23 0.078-0.469 0.072-0.682 0z"></path>
<path d="M7.050 5.636l1.367 2.781-2.781-1.367c-0.524-0.257-0.74-0.891-0.483-1.414 0.258-0.523 0.891-0.739 1.414-0.482 0.218 0.107 0.383 0.28 0.483 0.482z"></path>
<path d="M5.636 16.949l2.781-1.367-1.367 2.781c-0.257 0.523-0.891 0.739-1.414 0.482s-0.739-0.891-0.482-1.414c0.107-0.218 0.28-0.382 0.482-0.482z"></path>
<path d="M16.949 18.363l-1.367-2.781 2.781 1.367c0.523 0.257 0.739 0.891 0.482 1.414s-0.891 0.739-1.414 0.482c-0.218-0.107-0.382-0.28-0.482-0.482z"></path>
<path d="M18.362 7.048l-2.782 1.368 1.368-2.782c0.257-0.523 0.891-0.739 1.414-0.482s0.739 0.891 0.481 1.415c-0.106 0.217-0.279 0.381-0.481 0.481z"></path>
<path d="M12 16.5c-2.481 0-4.5-2.019-4.5-4.5s2.019-4.5 4.5-4.5 4.5 2.019 4.5 4.5-2.019 4.5-4.5 4.5zM12 9.5c-1.379 0-2.5 1.121-2.5 2.5s1.121 2.5 2.5 2.5 2.5-1.121 2.5-2.5-1.121-2.5-2.5-2.5z"></path>
</symbol>
<symbol id="icon-tree" viewBox="0 0 20 20">
<path d="M20 10c0-1.361-0.758-2.616-2.031-3.622-0.002-0.001-0.004-0.001-0.005-0.003-0.362-3.572-3.787-6.375-7.964-6.375s-7.602 2.803-7.964 6.375c-0.001 0.002-0.003 0.002-0.005 0.003-1.273 1.006-2.031 2.261-2.031 3.622 0 3.112 3.947 5.669 9 5.97 0 0.338 0 0.683 0 1.030 0 1-1.821 1.911-1.821 1.911-0.099 0.049-0.148 0.173-0.109 0.277 0 0 0.305 0.812 0.93 0.812s1.124-0.5 2.374-0.5 2.439 0.432 2.439 0.432c0.102 0.038 0.251 0.005 0.329-0.073l0.717-0.717c0.078-0.078 0.058-0.173-0.046-0.212 0 0-1.812-0.68-1.812-1.93 0-0.312 0-0.706 0-1.121 4.564-0.555 7.999-2.976 7.999-5.879zM2 10c0-1.019 0.768-1.945 2.022-2.651-0.010-0.116-0.022-0.232-0.022-0.349 0-2.762 2.687-5 6-5s6 2.238 6 5c0 0.117-0.012 0.233-0.021 0.349 1.253 0.706 2.021 1.632 2.021 2.651 0 1.864-2.551 3.424-5.999 3.869 0-0.401 0-0.668 0-0.668 0-0.11 0.065-0.262 0.145-0.337l1.833-1.726c0.080-0.076 0.146-0.227 0.146-0.337v-0.851c0-0.11-0.078-0.155-0.172-0.099l-1.779 1.047c-0.096 0.056-0.173 0.012-0.173-0.099v-3.599c0-0.11-0.085-0.172-0.19-0.137l-2.621 0.874c-0.104 0.035-0.189 0.153-0.189 0.263v2.6c0 0.11-0.079 0.158-0.177 0.107l-2.022-1.064c-0.097-0.051-0.24-0.030-0.318 0.048l-0.342 0.342c-0.078 0.078-0.073 0.201 0.009 0.273l2.7 2.361c0.083 0.073 0.15 0.222 0.15 0.332 0 0 0 0.298 0 0.765-3.945-0.245-7.001-1.924-7.001-3.964z"></path>
</symbol>
<symbol id="icon-fire" viewBox="0 0 32 32">
<path d="M10.031 32c-2.133-4.438-0.997-6.981 0.642-9.376 1.795-2.624 2.258-5.221 2.258-5.221s1.411 1.834 0.847 4.703c2.493-2.775 2.963-7.196 2.587-8.889 5.635 3.938 8.043 12.464 4.798 18.783 17.262-9.767 4.294-24.38 2.036-26.027 0.753 1.646 0.895 4.433-0.625 5.785-2.573-9.759-8.937-11.759-8.937-11.759 0.753 5.033-2.728 10.536-6.084 14.648-0.118-2.007-0.243-3.392-1.298-5.312-0.237 3.646-3.023 6.617-3.777 10.27-1.022 4.946 0.765 8.568 7.555 12.394z"></path>
</symbol>
<symbol id="icon-lab" viewBox="0 0 32 32">
<path d="M29.884 25.14l-9.884-16.47v-6.671h1c0.55 0 1-0.45 1-1s-0.45-1-1-1h-10c-0.55 0-1 0.45-1 1s0.45 1 1 1h1v6.671l-9.884 16.47c-2.264 3.773-0.516 6.86 3.884 6.86h20c4.4 0 6.148-3.087 3.884-6.86zM7.532 20l6.468-10.779v-7.221h4v7.221l6.468 10.779h-16.935z"></path>
</symbol>
<symbol id='icon-pin' viewBox='0 0 24 24'>
<path d="M17.657 5.304c-3.124-3.073-8.189-3.073-11.313 0s-3.124 8.057 0 11.13l5.656 5.565 5.657-5.565c3.124-3.073 3.124-8.056 0-11.13zM12 13.499c-0.668 0-1.295-0.26-1.768-0.732-0.975-0.975-0.975-2.561 0-3.536 0.472-0.472 1.1-0.732 1.768-0.732s1.296 0.26 1.768 0.732c0.975 0.975 0.975 2.562 0 3.536-0.472 0.472-1.1 0.732-1.768 0.732z"></path>
</symbol>


<symbol  viewBox="0 0 74 140" id='mongodb'>
    <defs></defs>
    <g stroke="none" stroke-width="1" fill="none" fill-rule="evenodd">
        <g>
           
            <g>
                <path d="M35.0534362,142.317005 L31.2699893,141.024486 C31.2699893,141.024486 31.7319117,121.737713 24.8108459,120.353673 C20.1968021,115.001416 25.5490584,-106.659184 42.1592709,119.61546 C42.1592709,119.61546 36.43834,122.475926 35.4229741,127.367123 C34.3152237,132.165936 35.0534362,142.317005 35.0534362,142.317005 L35.0534362,142.317005 L35.0534362,142.317005 Z" fill="#FFFFFF"></path>
                <path d="M35.0534362,142.317005 L31.2699893,141.024486 C31.2699893,141.024486 31.7319117,121.737713 24.8108459,120.353673 C20.1968021,115.001416 25.5490584,-106.659184 42.1592709,119.61546 C42.1592709,119.61546 36.43834,122.475926 35.4229741,127.367123 C34.3152237,132.165936 35.0534362,142.317005 35.0534362,142.317005 L35.0534362,142.317005 L35.0534362,142.317005 Z" fill="#26a8ff"></path>
                <path d="M37.0841679,123.676061 C37.0841679,123.676061 70.2130718,101.897497 62.461409,56.5867926 C54.9868998,23.6426576 37.360458,12.8457605 35.422974,8.69277572 C33.3007211,5.7399258 31.2699892,0.572438448 31.2699892,0.572438448 L32.6548931,92.2074874 C32.6548931,92.2998718 29.7935642,120.261288 37.0841679,123.676061" fill="#FFFFFF"></path>
                <path d="M37.0841679,123.676061 C37.0841679,123.676061 70.2130718,101.897497 62.461409,56.5867926 C54.9868998,23.6426576 37.360458,12.8457605 35.422974,8.69277572 C33.3007211,5.7399258 31.2699892,0.572438448 31.2699892,0.572438448 L32.6548931,92.2074874 C32.6548931,92.2998718 29.7935642,120.261288 37.0841679,123.676061" fill="#26a8ff"></path>
                <path d="M29.332506,124.875332 C29.332506,124.875332 -1.76652951,103.650212 0.0794333896,66.2768026 C1.8321484,28.9025296 23.7954806,10.5387386 28.0399866,7.21635076 C30.8089308,4.26350084 30.9013154,3.15575042 31.0860844,0.202900506 C33.0235682,4.35588532 32.6548938,62.3085868 32.9311838,69.1372682 C33.7617808,95.4374908 31.4547588,119.892614 29.332506,124.875332 L29.332506,124.875332 L29.332506,124.875332 Z" fill="#FFFFFF"></path>
                <path d="M29.332506,124.875332 C29.332506,124.875332 -1.76652951,103.650212 0.0794333896,66.2768026 C1.8321484,28.9025296 23.7954806,10.5387386 28.0399866,7.21635076 C30.8089308,4.26350084 30.9013154,3.15575042 31.0860844,0.202900506 C33.0235682,4.35588532 32.6548938,62.3085868 32.9311838,69.1372682 C33.7617808,95.4374908 31.4547588,119.892614 29.332506,124.875332 L29.332506,124.875332 L29.332506,124.875332 Z" fill="#26a8ff"></path>
            </g>
        </g>
    </g>
</symbol>
<symbol id='redux' viewBox="0 0 256 244" version="1.1">
    <g>
        <path d="M177.380953,169.732752 C186.828305,168.755405 193.995262,160.610839 193.669491,150.83736 C193.34372,141.063881 185.199451,133.245097 175.426328,133.245097 L174.774787,133.245097 C164.675893,133.57088 156.857395,142.041229 157.183166,152.14049 C157.508937,157.02723 159.463561,161.262404 162.395498,164.194448 C151.319292,186.021884 134.379213,201.985233 108.969093,215.342321 C91.7032429,224.464235 73.7858511,227.722061 55.8684592,225.441583 C41.208775,223.486887 29.8067984,216.971234 22.6398417,206.220408 C12.2151773,190.257058 11.237865,172.990579 20.0336756,155.724099 C26.22332,143.344359 35.9964428,134.222445 42.1860873,129.661488 C40.8830043,125.426314 38.9283797,118.259096 37.9510674,113.046574 C-9.28569288,147.253751 -4.39913147,193.514885 9.934782,215.342321 C20.6852171,231.631453 42.5118581,241.730715 66.6188943,241.730715 C73.1343096,241.730715 79.6497248,241.079149 86.16514,239.450236 C127.863797,231.30567 159.463561,206.54619 177.380953,169.732752 Z M234.716607,129.335706 C209.958029,100.341051 173.471704,84.3777023 131.773046,84.3777023 L126.560714,84.3777023 C123.628777,78.5136149 117.439133,74.6042233 110.597947,74.6042233 L109.946406,74.6042233 C99.8475119,74.9300059 92.0290137,83.4003544 92.3547844,93.499616 C92.6805552,103.273095 100.824824,111.091878 110.597947,111.091878 L111.249489,111.091878 C118.416445,110.766096 124.60609,106.205139 127.212256,100.015269 L133.07613,100.015269 C157.834707,100.015269 181.290202,107.182487 202.465302,121.19114 C218.75384,131.941967 230.481587,145.95062 236.997002,162.891317 C242.535105,176.574188 242.209334,189.931276 236.345461,201.333668 C227.223879,218.600148 211.912654,228.047844 191.714866,228.047844 C178.684036,228.047844 166.304747,224.138452 159.789332,221.206409 C156.205854,224.464235 149.690438,229.676757 145.129648,232.934584 C159.13779,239.450236 173.471704,243.033845 187.154076,243.033845 C218.428069,243.033845 241.557793,225.767366 250.353603,208.500886 C259.800955,189.605493 259.149414,157.02723 234.716607,129.335706 Z M69.2250604,175.271057 C69.5508312,185.044536 77.6951002,192.86332 87.468223,192.86332 L88.1197645,192.86332 C98.2186581,192.537537 106.037156,184.067188 105.711386,173.967927 C105.385615,164.194448 97.2413458,156.375664 87.468223,156.375664 L86.8166815,156.375664 C86.16514,156.375664 85.1878277,156.375664 84.5362862,156.701447 C71.179685,134.548228 65.6415821,110.440313 67.5962066,84.3777023 C68.8992897,64.8307442 75.4147049,47.8900472 86.8166815,33.881394 C96.2640336,21.8274365 114.507196,15.9633491 126.886485,15.6375664 C161.418186,14.9860012 176.07787,57.9893089 177.055182,75.2557885 C181.290202,76.2331364 188.457159,78.5136149 193.34372,80.142528 C189.434471,27.3657413 156.857395,0 125.583402,0 C96.2640336,0 69.2250604,21.1758712 58.4746253,52.4510041 C43.4891703,94.1511813 53.2622932,134.222445 71.5054558,165.823361 C69.876602,168.103839 68.8992897,171.687448 69.2250604,175.271057 Z" fill="#26a8ff"></path>
    </g>
</symbol>
<symbol  viewBox="0 0 504 504" id='node'><path d="M452.2,251.6c-9.2,58.5-27.1,75.6-58.8,114.9c-31.7,33.3-77.3,88.9-141.9,85.8  c-58.5-9.2-75.6-27.1-114.9-58.8c-33.3-31.7-88.9-77.3-85.8-141.9c9.2-58.5,27.1-75.6,58.8-114.9c31.7-33.3,77.3-88.9,141.9-85.8  c58.5,9.2,75.6,27.1,114.9,58.8C399.7,141.4,455.3,187,452.2,251.6z" fill="#26a8ff"/><path d="M251.6,368.5c-3.1,0-6.2-0.8-8.9-2.4l-28.2-16.7c-4.2-2.4-2.2-3.2-0.8-3.7c5.6-2,6.8-2.4,12.8-5.8  c0.6-0.4,1.5-0.2,2.1,0.2l21.7,12.9c0.8,0.4,1.9,0.4,2.6,0l84.5-48.8c0.8-0.4,1.3-1.4,1.3-2.3v-97.5c0-1-0.5-1.8-1.3-2.3l-84.5-48.7  c-0.8-0.5-1.8-0.5-2.6,0l-84.4,48.7c-0.8,0.5-1.3,1.4-1.3,2.3v97.5c0,0.9,0.5,1.8,1.3,2.3l23.1,13.4c12.6,6.3,20.2-1.1,20.2-8.5  v-96.3c0-1.4,1.1-2.4,2.5-2.4h10.7c1.3,0,2.4,1.1,2.4,2.4V309c0,16.8-9.1,26.4-25,26.4c-4.9,0-8.7,0-19.5-5.3l-22.2-12.8  c-5.5-3.2-8.9-9.1-8.9-15.4v-97.5c0-6.3,3.4-12.2,8.9-15.4l84.5-48.8c5.3-3,12.5-3,17.8,0l84.5,48.8c5.5,3.2,8.9,9.1,8.9,15.4v97.5  c0,6.3-3.4,12.2-8.9,15.4l-84.5,48.8C257.8,367.6,254.7,368.5,251.6,368.5z" fill="#FFFFFF"/><path d="M277.7,301.3c-37,0-44.7-17-44.7-31.2c0-1.4,1.1-2.4,2.4-2.4h10.9c1.2,0,2.2,0.9,2.4,2.1  c1.6,11.1,6.6,16.7,28.9,16.7c17.8,0,25.4-4,25.4-13.5c0-5.4-2.1-9.5-29.8-12.2c-23.1-2.3-37.4-7.4-37.4-25.9  c0-17,14.4-27.2,38.5-27.2c27.1,0,40.5,9.4,42.2,29.5c0.1,0.7-0.2,1.4-0.6,1.9c-0.5,0.5-1.1,0.8-1.8,0.8h-11c-1.1,0-2.1-0.8-2.4-1.9  c-2.6-11.7-9-15.4-26.4-15.4c-19.4,0-21.7,6.8-21.7,11.8c0,6.1,2.7,7.9,28.9,11.4c26,3.4,38.3,8.3,38.3,26.5  C319.8,290.7,304.4,301.3,277.7,301.3z" fill="#FFFFFF"/></symbol><symbol  viewBox="0 0 256 228" id='react'>
    <g>
        <path d="M210.483381,73.8236374 C207.827698,72.9095503 205.075867,72.0446761 202.24247,71.2267368 C202.708172,69.3261098 203.135596,67.4500894 203.515631,65.6059664 C209.753843,35.3248922 205.675082,10.9302478 191.747328,2.89849283 C178.392359,-4.80289661 156.551327,3.22703567 134.492936,22.4237776 C132.371761,24.2697233 130.244662,26.2241201 128.118477,28.2723861 C126.701777,26.917204 125.287358,25.6075897 123.876584,24.3549348 C100.758745,3.82852863 77.5866802,-4.82157937 63.6725966,3.23341515 C50.3303869,10.9571328 46.3792156,33.8904224 51.9945178,62.5880206 C52.5367729,65.3599011 53.1706189,68.1905639 53.8873982,71.068617 C50.6078941,71.9995641 47.4418534,72.9920277 44.4125156,74.0478303 C17.3093297,83.497195 0,98.3066828 0,113.667995 C0,129.533287 18.5815786,145.446423 46.8116526,155.095373 C49.0394553,155.856809 51.3511025,156.576778 53.7333796,157.260293 C52.9600965,160.37302 52.2875179,163.423318 51.7229345,166.398431 C46.3687351,194.597975 50.5500231,216.989464 63.8566899,224.664425 C77.6012619,232.590464 100.66852,224.443422 123.130185,204.809231 C124.905501,203.257196 126.687196,201.611293 128.472081,199.886102 C130.785552,202.113904 133.095375,204.222319 135.392897,206.199955 C157.14963,224.922338 178.637969,232.482469 191.932332,224.786092 C205.663234,216.837268 210.125675,192.78347 204.332202,163.5181 C203.88974,161.283006 203.374826,158.99961 202.796573,156.675661 C204.416503,156.196743 206.006814,155.702335 207.557482,155.188332 C236.905331,145.46465 256,129.745175 256,113.667995 C256,98.2510906 238.132466,83.3418093 210.483381,73.8236374 L210.483381,73.8236374 Z M204.118035,144.807565 C202.718197,145.270987 201.281904,145.718918 199.818271,146.153177 C196.578411,135.896354 192.205739,124.989735 186.854729,113.72131 C191.961041,102.721277 196.164656,91.9540963 199.313837,81.7638014 C201.93261,82.5215915 204.474374,83.3208483 206.923636,84.1643056 C230.613348,92.3195488 245.063763,104.377206 245.063763,113.667995 C245.063763,123.564379 229.457753,136.411268 204.118035,144.807565 L204.118035,144.807565 Z M193.603754,165.642007 C196.165567,178.582766 196.531475,190.282717 194.834536,199.429057 C193.309843,207.64764 190.243595,213.12715 186.452366,215.321689 C178.384612,219.991462 161.131788,213.921395 142.525146,197.909832 C140.392124,196.074366 138.243609,194.114502 136.088259,192.040261 C143.301619,184.151133 150.510878,174.979732 157.54698,164.793993 C169.922699,163.695814 181.614905,161.900447 192.218042,159.449363 C192.740247,161.555956 193.204126,163.621993 193.603754,165.642007 L193.603754,165.642007 Z M87.2761866,214.514686 C79.3938934,217.298414 73.1160375,217.378157 69.3211631,215.189998 C61.2461189,210.532528 57.8891498,192.554265 62.4682434,168.438039 C62.9927272,165.676183 63.6170041,162.839142 64.3365173,159.939216 C74.8234575,162.258154 86.4299951,163.926841 98.8353334,164.932519 C105.918826,174.899534 113.336329,184.06091 120.811247,192.08264 C119.178102,193.65928 117.551336,195.16028 115.933685,196.574699 C106.001303,205.256705 96.0479605,211.41654 87.2761866,214.514686 L87.2761866,214.514686 Z M50.3486141,144.746959 C37.8658105,140.48046 27.5570398,134.935332 20.4908634,128.884403 C14.1414664,123.446815 10.9357817,118.048415 10.9357817,113.667995 C10.9357817,104.34622 24.8334611,92.4562517 48.0123604,84.3748281 C50.8247961,83.3942121 53.7689223,82.4701001 56.8242337,81.6020363 C60.0276398,92.0224477 64.229889,102.917218 69.3011135,113.93411 C64.1642716,125.11459 59.9023288,136.182975 56.6674809,146.725506 C54.489347,146.099407 52.3791089,145.440499 50.3486141,144.746959 L50.3486141,144.746959 Z M62.7270678,60.4878073 C57.9160346,35.9004118 61.1112387,17.3525532 69.1516515,12.6982729 C77.7160924,7.74005624 96.6544653,14.8094222 116.614922,32.5329619 C117.890816,33.6657739 119.171723,34.8514442 120.456275,36.0781256 C113.018267,44.0647686 105.66866,53.1573386 98.6480514,63.0655695 C86.6081646,64.1815215 75.0831931,65.9741531 64.4868907,68.3746571 C63.8206914,65.6948233 63.2305903,63.0619242 62.7270678,60.4878073 L62.7270678,60.4878073 Z M173.153901,87.7550367 C170.620796,83.3796304 168.020249,79.1076627 165.369124,74.9523483 C173.537126,75.9849113 181.362914,77.3555864 188.712066,79.0329319 C186.505679,86.1041206 183.755673,93.4974728 180.518546,101.076741 C178.196419,96.6680702 175.740322,92.2229454 173.153901,87.7550367 L173.153901,87.7550367 Z M128.122121,43.8938899 C133.166461,49.3588189 138.218091,55.4603279 143.186789,62.0803968 C138.179814,61.8439007 133.110868,61.720868 128.000001,61.720868 C122.937434,61.720868 117.905854,61.8411667 112.929865,62.0735617 C117.903575,55.515009 122.99895,49.4217021 128.122121,43.8938899 L128.122121,43.8938899 Z M82.8018984,87.830679 C80.2715265,92.2183886 77.8609975,96.6393627 75.5753239,101.068539 C72.3906004,93.5156998 69.6661103,86.0886276 67.440586,78.9171899 C74.7446255,77.2826781 82.5335049,75.9461789 90.6495601,74.9332099 C87.9610684,79.1268011 85.3391054,83.4302106 82.8018984,87.8297677 L82.8018984,87.830679 L82.8018984,87.830679 Z M90.8833221,153.182899 C82.4979621,152.247395 74.5919739,150.979704 67.289757,149.390303 C69.5508242,142.09082 72.3354636,134.505173 75.5876271,126.789657 C77.8792246,131.215644 80.2993228,135.638441 82.8451877,140.03572 L82.8456433,140.03572 C85.4388987,144.515476 88.1255676,148.90364 90.8833221,153.182899 L90.8833221,153.182899 Z M128.424691,184.213105 C123.24137,178.620587 118.071264,172.434323 113.021912,165.780078 C117.923624,165.972373 122.921029,166.0708 128.000001,166.0708 C133.217953,166.0708 138.376211,165.953235 143.45336,165.727219 C138.468257,172.501308 133.434855,178.697141 128.424691,184.213105 L128.424691,184.213105 Z M180.622896,126.396409 C184.044571,134.195313 186.929004,141.741317 189.219234,148.9164 C181.796719,150.609693 173.782736,151.973534 165.339049,152.986959 C167.996555,148.775595 170.619884,144.430263 173.197646,139.960532 C175.805484,135.438399 178.28163,130.90943 180.622896,126.396409 L180.622896,126.396409 Z M163.724586,134.496971 C159.722835,141.435557 155.614455,148.059271 151.443648,154.311611 C143.847063,154.854776 135.998946,155.134562 128.000001,155.134562 C120.033408,155.134562 112.284171,154.887129 104.822013,154.402745 C100.48306,148.068386 96.285368,141.425078 92.3091341,134.556664 L92.3100455,134.556664 C88.3442923,127.706935 84.6943232,120.799333 81.3870228,113.930466 C84.6934118,107.045648 88.3338117,100.130301 92.276781,93.292874 L92.2758697,93.294241 C96.2293193,86.4385872 100.390102,79.8276317 104.688954,73.5329157 C112.302398,72.9573964 120.109505,72.6571055 127.999545,72.6571055 L128.000001,72.6571055 C135.925583,72.6571055 143.742714,72.9596746 151.353879,73.5402067 C155.587114,79.7888993 159.719645,86.3784378 163.688588,93.2350031 C167.702644,100.168578 171.389978,107.037901 174.724618,113.77508 C171.400003,120.627999 167.720871,127.566587 163.724586,134.496971 L163.724586,134.496971 Z M186.284677,12.3729198 C194.857321,17.3165548 198.191049,37.2542268 192.804953,63.3986692 C192.461372,65.0669011 192.074504,66.7661189 191.654369,68.4881206 C181.03346,66.0374921 169.500286,64.2138746 157.425315,63.0810626 C150.391035,53.0639249 143.101577,43.9572289 135.784778,36.073113 C137.751934,34.1806885 139.716356,32.3762092 141.672575,30.673346 C160.572216,14.2257007 178.236518,7.73185406 186.284677,12.3729198 L186.284677,12.3729198 Z M128.000001,90.8080696 C140.624975,90.8080696 150.859926,101.042565 150.859926,113.667995 C150.859926,126.292969 140.624975,136.527922 128.000001,136.527922 C115.375026,136.527922 105.140075,126.292969 105.140075,113.667995 C105.140075,101.042565 115.375026,90.8080696 128.000001,90.8080696 L128.000001,90.8080696 Z" fill="##26a8ff"></path>
    </g>
</svg>