<svg id="unknown" viewBox="0 0 3167 1150"><g transform="matrix(5.55556,0,0,5.55556,0,0)"><path d="M235.08,121.658C235.145,121.658 235.198,121.688 235.198,121.725C235.198,121.761 235.145,121.791 235.08,121.791C235.015,121.791 236.198,109.021 236.198,108.985C236.198,108.948 235.015,121.658 235.08,121.658Z" style="fill:rgb(235,235,235);"></path><g id="Artboard1" transform="matrix(1,0,0,1,-24.2355,-117.828)"><rect x="24.235" y="117.828" width="569.027" height="206.652" style="fill:none;"></rect><g transform="matrix(0.820002,0,0,0.86069,-24.3644,26.7886)"><path d="M296.816,143.083C296.816,129.588 285.316,118.633 271.152,118.633L107.117,118.633C92.953,118.633 81.454,129.588 81.454,143.083L81.454,312.073C81.454,325.567 92.953,336.523 107.117,336.523L271.152,336.523C285.316,336.523 296.816,325.567 296.816,312.073L296.816,143.083Z" style="fill:rgb(77,141,81);"></path></g><g id="surface1" transform="matrix(0.463807,0,0,0.463807,-26.1927,116.812)"><path d="M319.469,55.289C312.355,72.395 309.984,91.871 314.051,101.188C317.098,108.469 334.035,133.875 335.73,133.875C337.762,133.875 342.844,126.254 347.246,116.602C352.328,105.59 352.328,88.992 347.414,80.184C341.488,69.684 334.711,60.539 328.277,54.441L322.18,48.684L319.469,55.289Z" style="fill:rgb(254,254,254);fill-rule:nonzero;"></path><path d="M411.945,87.809C402.121,89.332 382.984,100 374.176,108.809C362.828,120.156 358.254,129.813 356.055,146.75C354.02,162.84 355.547,194.852 358.594,194.852C361.813,194.852 390.266,174.863 398.734,166.566C408.391,157.082 413.473,146.07 416.352,127.949C418.891,113.215 419.566,88.652 417.535,87.809C416.688,87.469 414.316,87.469 411.945,87.809Z" style="fill:rgb(254,254,254);fill-rule:nonzero;"></path><path d="M245.961,115.414C246.129,150.305 261.715,169.953 299.313,182.656C314.387,187.738 318.453,188.414 319.301,185.875C320.148,183.332 313.711,159.113 309.645,149.965C303.887,136.926 302.871,135.402 296.434,128.797C289.488,121.68 261.543,107.117 251.891,105.59L245.961,104.574L245.961,115.414Z" style="fill:rgb(254,254,254);fill-rule:nonzero;"></path><path d="M334.883,152.848C330.477,169.273 328.105,181.301 324.383,204.168C321.84,220.086 321.332,231.941 321.672,285.805C322.18,351.691 321.5,360.328 314.559,375.063C311,382.516 297.621,396.402 293.895,396.402C292.539,396.402 291.691,397.422 292.199,398.438C292.707,400.129 298.297,400.469 315.066,399.961C347.922,399.113 370.789,402.84 406.867,415.375C424.648,421.641 428.883,422.656 428.883,420.625C428.883,419.777 426.684,417.914 424.141,416.391C413.133,409.953 389.758,384.379 380.781,369.305C365.707,344.066 357.07,321.203 347.246,282.078C341.828,259.891 338.777,225.848 338.609,186.719C338.609,152.168 337.594,143.023 334.883,152.848Z" style="fill:rgb(254,254,254);fill-rule:nonzero;"></path><path d="M424.648,168.09C421.941,169.105 417.027,170.801 413.809,171.984C404.832,175.203 388.402,189.094 378.07,201.965C372.992,208.57 367.91,214.668 367.063,215.684C366.047,216.867 362.66,221.273 359.609,225.676C353.176,234.652 353.852,237.703 362.488,239.395C365.031,239.902 371.637,241.43 377.227,242.953C389.25,246 414.824,246.508 421.602,243.801C436.844,237.531 445.145,232.621 453.613,225C467.5,212.297 496.801,170.121 493.754,167.074C491.891,165.379 430.07,166.227 424.648,168.09Z" style="fill:rgb(254,254,254);fill-rule:nonzero;"></path><path d="M233.766,192.648C229.363,193.328 183.973,215.684 180.922,218.563C178.043,221.441 184.816,226.523 204.125,236.008C229.023,248.371 239.695,251.422 255.445,250.406C273.398,249.219 286.273,242.445 308.461,222.629C315.402,216.359 314.559,213.988 303.211,209.246C299.145,207.723 293.895,205.184 291.184,203.828C288.645,202.473 279.836,199.086 271.875,196.375C257.816,191.633 247.148,190.617 233.766,192.648Z" style="fill:rgb(254,254,254);fill-rule:nonzero;"></path><path d="M294.234,259.891C261.035,278.012 249.348,290.887 242.742,316.289C241.727,320.355 240.203,326.453 239.188,329.84C238.34,333.398 237.152,341.527 236.477,347.965L235.461,359.648L240.035,358.465C242.574,357.785 248.164,355.586 252.566,353.555C294.063,334.246 311.34,309.855 310.152,271.914C309.816,259.551 308.289,254.133 305.41,254.133C304.902,254.133 299.82,256.672 294.234,259.891Z" style="fill:rgb(254,254,254);fill-rule:nonzero;"></path><path d="M352.668,265.309C352.668,271.066 364.691,292.918 371.637,299.691C382.645,310.531 399.75,316.969 416.688,316.629C429.391,316.461 448.363,312.566 447.855,310.191C447.344,307.652 431.934,287.496 424.82,279.875C412.961,267.172 399.242,262.77 370.957,262.602C355.039,262.602 352.668,262.938 352.668,265.309Z" style="fill:rgb(254,254,254);fill-rule:nonzero;"></path></g></g><g><g transform="matrix(1,0,0,1,251.648,133.427)"><g transform="matrix(95.634,0,0,95.634,0,0)"><path d="M0.585,-0.371C0.599,-0.368 0.609,-0.362 0.615,-0.353C0.622,-0.345 0.625,-0.336 0.625,-0.326C0.625,-0.317 0.622,-0.309 0.617,-0.301C0.611,-0.293 0.602,-0.287 0.591,-0.283L0.591,-0.117C0.591,-0.101 0.586,-0.087 0.575,-0.076C0.564,-0.065 0.554,-0.055 0.545,-0.045C0.521,-0.022 0.493,-0.005 0.461,0.006C0.429,0.017 0.397,0.022 0.364,0.022C0.31,0.022 0.263,0.011 0.222,-0.012C0.182,-0.034 0.148,-0.062 0.121,-0.097C0.094,-0.131 0.074,-0.168 0.06,-0.209C0.047,-0.249 0.04,-0.288 0.04,-0.325C0.04,-0.346 0.042,-0.369 0.048,-0.394C0.053,-0.42 0.061,-0.444 0.071,-0.469C0.082,-0.493 0.095,-0.516 0.112,-0.537C0.128,-0.558 0.147,-0.576 0.169,-0.59C0.209,-0.616 0.25,-0.637 0.291,-0.654C0.333,-0.67 0.375,-0.678 0.419,-0.678C0.431,-0.678 0.446,-0.677 0.464,-0.675C0.482,-0.672 0.499,-0.668 0.515,-0.662C0.532,-0.657 0.546,-0.649 0.558,-0.64C0.57,-0.63 0.576,-0.618 0.576,-0.604C0.576,-0.593 0.572,-0.583 0.564,-0.575C0.555,-0.566 0.545,-0.562 0.533,-0.562C0.526,-0.562 0.518,-0.564 0.509,-0.567C0.501,-0.57 0.491,-0.573 0.481,-0.576C0.471,-0.58 0.461,-0.583 0.45,-0.586C0.44,-0.589 0.429,-0.59 0.419,-0.59C0.411,-0.59 0.404,-0.59 0.398,-0.589C0.391,-0.588 0.385,-0.587 0.378,-0.585C0.349,-0.576 0.32,-0.565 0.291,-0.553C0.261,-0.541 0.234,-0.525 0.21,-0.505C0.187,-0.485 0.167,-0.461 0.152,-0.431C0.138,-0.402 0.13,-0.366 0.13,-0.323C0.13,-0.287 0.137,-0.254 0.149,-0.223C0.162,-0.191 0.178,-0.164 0.199,-0.141C0.22,-0.119 0.243,-0.101 0.271,-0.087C0.298,-0.074 0.326,-0.067 0.356,-0.067C0.382,-0.067 0.407,-0.073 0.432,-0.083C0.457,-0.093 0.48,-0.109 0.501,-0.129L0.501,-0.28C0.473,-0.279 0.445,-0.278 0.417,-0.278L0.334,-0.278C0.317,-0.281 0.306,-0.286 0.298,-0.295C0.29,-0.304 0.286,-0.313 0.286,-0.324C0.286,-0.334 0.29,-0.344 0.299,-0.354C0.307,-0.364 0.32,-0.369 0.337,-0.369C0.344,-0.369 0.36,-0.369 0.384,-0.37C0.408,-0.37 0.434,-0.37 0.461,-0.37C0.488,-0.37 0.514,-0.37 0.538,-0.371C0.562,-0.371 0.577,-0.371 0.585,-0.371Z" style="fill:rgb(77,141,81);fill-rule:nonzero;"></path></g><g transform="matrix(95.634,0,0,95.634,63.5094,0)"><path d="M0.083,-0.385C0.072,-0.39 0.064,-0.397 0.059,-0.406C0.053,-0.414 0.051,-0.422 0.051,-0.43C0.051,-0.441 0.055,-0.451 0.063,-0.459C0.071,-0.468 0.082,-0.472 0.096,-0.472C0.106,-0.472 0.119,-0.468 0.135,-0.461C0.15,-0.453 0.162,-0.445 0.171,-0.436C0.194,-0.456 0.218,-0.471 0.242,-0.484C0.266,-0.497 0.291,-0.503 0.316,-0.503C0.323,-0.503 0.334,-0.501 0.348,-0.497C0.362,-0.494 0.376,-0.488 0.39,-0.481C0.403,-0.473 0.415,-0.464 0.425,-0.452C0.436,-0.44 0.441,-0.427 0.441,-0.411C0.441,-0.399 0.437,-0.388 0.429,-0.381C0.421,-0.373 0.411,-0.369 0.399,-0.369C0.391,-0.369 0.384,-0.371 0.377,-0.376C0.371,-0.381 0.365,-0.386 0.359,-0.392C0.352,-0.397 0.346,-0.402 0.339,-0.407C0.332,-0.411 0.324,-0.413 0.315,-0.413C0.305,-0.413 0.293,-0.41 0.281,-0.404C0.269,-0.398 0.257,-0.39 0.245,-0.381C0.233,-0.372 0.221,-0.363 0.21,-0.352C0.199,-0.342 0.189,-0.333 0.181,-0.325L0.181,-0.031C0.18,-0.014 0.176,-0.001 0.166,0.007C0.157,0.016 0.147,0.02 0.136,0.02C0.126,0.02 0.116,0.016 0.107,0.008C0.098,0.001 0.093,-0.011 0.091,-0.028L0.091,-0.329L0.09,-0.339L0.091,-0.349L0.091,-0.381C0.088,-0.383 0.085,-0.384 0.083,-0.385Z" style="fill:rgb(77,141,81);fill-rule:nonzero;"></path></g></g><g transform="matrix(1,0,0,1,359.54,133.427)"><g><g transform="matrix(95.634,0,0,95.634,0,0)"><path d="M0.166,-0.035C0.165,-0.018 0.16,-0.006 0.151,0.003C0.142,0.011 0.131,0.015 0.12,0.015C0.11,0.015 0.101,0.012 0.092,0.004C0.083,-0.004 0.077,-0.016 0.075,-0.032C0.074,-0.101 0.074,-0.172 0.073,-0.244C0.073,-0.316 0.073,-0.387 0.072,-0.456C0.076,-0.471 0.081,-0.482 0.09,-0.49C0.098,-0.497 0.107,-0.501 0.117,-0.501C0.127,-0.501 0.136,-0.497 0.144,-0.491C0.153,-0.484 0.159,-0.474 0.162,-0.46C0.163,-0.39 0.164,-0.32 0.164,-0.248C0.164,-0.175 0.165,-0.105 0.166,-0.035ZM0.064,-0.636C0.064,-0.653 0.069,-0.666 0.08,-0.678C0.09,-0.689 0.102,-0.695 0.117,-0.695C0.132,-0.695 0.145,-0.689 0.155,-0.678C0.166,-0.666 0.171,-0.653 0.171,-0.636C0.171,-0.621 0.166,-0.608 0.155,-0.596C0.145,-0.585 0.132,-0.579 0.117,-0.579C0.102,-0.579 0.09,-0.585 0.08,-0.596C0.069,-0.608 0.064,-0.621 0.064,-0.636Z" style="fill:rgb(77,141,81);fill-rule:nonzero;"></path></g><g transform="matrix(1,0,0,1,23.988,0)"><g transform="matrix(95.634,0,0,95.634,0,0)"><path d="M0.347,-0.463C0.354,-0.476 0.363,-0.484 0.373,-0.488C0.383,-0.492 0.392,-0.493 0.402,-0.49C0.411,-0.487 0.419,-0.482 0.425,-0.472C0.431,-0.463 0.434,-0.452 0.433,-0.438C0.423,-0.398 0.411,-0.359 0.397,-0.321C0.384,-0.283 0.37,-0.245 0.357,-0.207C0.344,-0.171 0.332,-0.136 0.32,-0.102C0.308,-0.068 0.294,-0.034 0.28,0C0.266,0.016 0.252,0.023 0.235,0.021C0.219,0.019 0.207,0.008 0.198,-0.01C0.171,-0.08 0.144,-0.149 0.117,-0.218C0.089,-0.286 0.058,-0.354 0.024,-0.42C0.017,-0.435 0.015,-0.448 0.019,-0.459C0.022,-0.471 0.029,-0.479 0.038,-0.485C0.046,-0.49 0.057,-0.492 0.069,-0.49C0.081,-0.487 0.092,-0.48 0.102,-0.466C0.127,-0.415 0.152,-0.362 0.175,-0.309C0.197,-0.256 0.22,-0.203 0.241,-0.148C0.246,-0.162 0.251,-0.176 0.256,-0.19C0.261,-0.204 0.266,-0.218 0.271,-0.232C0.284,-0.27 0.297,-0.308 0.31,-0.346C0.324,-0.384 0.336,-0.423 0.347,-0.463Z" style="fill:rgb(77,141,81);fill-rule:nonzero;"></path></g><g transform="matrix(95.634,0,0,95.634,43.7486,0)"><path d="M0.434,-0.129C0.45,-0.135 0.463,-0.136 0.474,-0.131C0.485,-0.127 0.493,-0.12 0.498,-0.11C0.503,-0.101 0.503,-0.09 0.5,-0.078C0.497,-0.067 0.488,-0.057 0.474,-0.049C0.45,-0.035 0.424,-0.022 0.396,-0.01C0.368,0.002 0.339,0.01 0.31,0.014C0.282,0.019 0.253,0.019 0.225,0.014C0.197,0.009 0.171,-0.002 0.145,-0.02C0.114,-0.041 0.09,-0.07 0.074,-0.107C0.058,-0.143 0.049,-0.181 0.049,-0.22C0.048,-0.26 0.055,-0.298 0.07,-0.334C0.085,-0.371 0.109,-0.4 0.141,-0.422C0.175,-0.445 0.212,-0.462 0.252,-0.473C0.292,-0.485 0.332,-0.486 0.372,-0.477C0.392,-0.473 0.41,-0.464 0.427,-0.449C0.443,-0.435 0.456,-0.418 0.466,-0.399C0.476,-0.381 0.481,-0.361 0.482,-0.34C0.483,-0.319 0.477,-0.299 0.466,-0.281C0.454,-0.26 0.436,-0.243 0.412,-0.228C0.389,-0.214 0.363,-0.202 0.335,-0.192C0.308,-0.182 0.28,-0.173 0.252,-0.167C0.225,-0.16 0.201,-0.154 0.18,-0.148C0.171,-0.146 0.163,-0.145 0.155,-0.147C0.166,-0.123 0.182,-0.104 0.204,-0.089C0.226,-0.074 0.253,-0.067 0.285,-0.07C0.311,-0.071 0.337,-0.078 0.363,-0.091C0.389,-0.104 0.413,-0.117 0.434,-0.129ZM0.219,-0.365C0.192,-0.351 0.171,-0.331 0.158,-0.306C0.145,-0.28 0.138,-0.253 0.138,-0.225C0.143,-0.229 0.149,-0.232 0.155,-0.234C0.168,-0.238 0.181,-0.242 0.195,-0.246C0.209,-0.25 0.222,-0.254 0.236,-0.257C0.245,-0.26 0.257,-0.263 0.272,-0.267C0.287,-0.272 0.303,-0.277 0.319,-0.283C0.336,-0.289 0.35,-0.296 0.364,-0.303C0.377,-0.311 0.386,-0.32 0.39,-0.329C0.392,-0.354 0.386,-0.37 0.372,-0.379C0.359,-0.388 0.343,-0.392 0.325,-0.392C0.306,-0.392 0.287,-0.389 0.267,-0.383C0.248,-0.377 0.231,-0.371 0.219,-0.365Z" style="fill:rgb(77,141,81);fill-rule:nonzero;"></path></g><g transform="matrix(95.634,0,0,95.634,89.822,0)"><path d="M0.128,-0.389C0.112,-0.391 0.1,-0.397 0.092,-0.406C0.085,-0.414 0.081,-0.424 0.081,-0.434C0.081,-0.445 0.085,-0.455 0.093,-0.465C0.102,-0.475 0.115,-0.48 0.131,-0.48L0.193,-0.48L0.193,-0.654C0.197,-0.669 0.203,-0.68 0.211,-0.687C0.219,-0.695 0.228,-0.698 0.239,-0.698C0.248,-0.698 0.257,-0.695 0.266,-0.688C0.274,-0.682 0.28,-0.671 0.284,-0.657L0.284,-0.48L0.39,-0.48C0.404,-0.476 0.414,-0.47 0.421,-0.461C0.428,-0.453 0.431,-0.444 0.431,-0.434C0.431,-0.424 0.427,-0.415 0.42,-0.407C0.413,-0.399 0.401,-0.393 0.387,-0.389L0.284,-0.389C0.283,-0.332 0.283,-0.274 0.284,-0.214C0.285,-0.154 0.285,-0.095 0.285,-0.039C0.285,-0.022 0.28,-0.009 0.27,-0.001C0.26,0.008 0.25,0.012 0.24,0.012C0.229,0.012 0.22,0.008 0.211,0.001C0.202,-0.007 0.197,-0.019 0.194,-0.035C0.194,-0.093 0.194,-0.152 0.194,-0.212C0.194,-0.273 0.193,-0.331 0.193,-0.389L0.128,-0.389Z" style="fill:rgb(77,141,81);fill-rule:nonzero;"></path></g><g transform="matrix(95.634,0,0,95.634,133.571,0)"><path d="M0.421,-0.473C0.427,-0.483 0.434,-0.491 0.441,-0.495C0.448,-0.499 0.456,-0.502 0.464,-0.502C0.477,-0.502 0.487,-0.497 0.495,-0.487C0.503,-0.478 0.507,-0.464 0.507,-0.448C0.492,-0.388 0.472,-0.33 0.449,-0.274C0.425,-0.218 0.399,-0.163 0.371,-0.109C0.343,-0.056 0.314,-0.002 0.283,0.05C0.252,0.103 0.222,0.156 0.192,0.21C0.186,0.218 0.18,0.224 0.172,0.227C0.165,0.23 0.158,0.232 0.151,0.232C0.14,0.232 0.131,0.228 0.123,0.22C0.115,0.212 0.11,0.2 0.11,0.186L0.11,0.178C0.11,0.176 0.111,0.173 0.112,0.17C0.136,0.125 0.161,0.081 0.187,0.038C0.213,-0.006 0.238,-0.05 0.262,-0.094C0.232,-0.117 0.206,-0.142 0.182,-0.166C0.159,-0.191 0.138,-0.217 0.119,-0.245C0.1,-0.272 0.084,-0.302 0.07,-0.334C0.056,-0.366 0.043,-0.401 0.033,-0.439C0.033,-0.458 0.037,-0.472 0.045,-0.482C0.052,-0.492 0.063,-0.497 0.076,-0.497C0.086,-0.497 0.095,-0.494 0.103,-0.488C0.112,-0.482 0.118,-0.471 0.122,-0.457C0.13,-0.427 0.139,-0.398 0.151,-0.372C0.162,-0.346 0.176,-0.321 0.191,-0.299C0.206,-0.276 0.223,-0.255 0.241,-0.235C0.26,-0.215 0.281,-0.195 0.304,-0.176C0.328,-0.224 0.35,-0.272 0.371,-0.32C0.391,-0.369 0.408,-0.42 0.421,-0.473Z" style="fill:rgb(77,141,81);fill-rule:nonzero;"></path></g></g></g></g></g></g></svg>