<svg id="ux-design" viewBox="0 0 497 497"><path d="m362.667 33.37v430.26c0 18.43-14.94 33.37-33.37 33.37h-233.8c-18.43 0-33.37-14.94-33.37-33.37v-430.26c0-18.43 14.94-33.37 33.37-33.37h35.4l83.939 10.337 79.061-10.337h35.4c18.43 0 33.37 14.94 33.37 33.37z" fill="#bd80e1"></path><g><path d="m206.011 377.177h-52.162c-4.143 0-7.5-3.357-7.5-7.5s3.357-7.5 7.5-7.5h44.662v-36.317c0-12.764 10.385-23.148 23.149-23.148h87.486c4.143 0 7.5 3.357 7.5 7.5s-3.357 7.5-7.5 7.5h-87.486c-4.493 0-8.149 3.655-8.149 8.148v43.816c0 4.143-3.358 7.501-7.5 7.501z" fill="#017297"></path></g><g><path d="m309.146 377.177h-171.539c-4.143 0-7.5-3.357-7.5-7.5s3.357-7.5 7.5-7.5h171.539c4.143 0 7.5 3.357 7.5 7.5s-3.357 7.5-7.5 7.5z" fill="#017297"></path></g><g><path d="m212.397 439.314h-71.607c-12.765 0-23.149-10.385-23.149-23.149v-41.205c0-4.143 3.357-7.5 7.5-7.5s7.5 3.357 7.5 7.5v41.205c0 4.493 3.656 8.149 8.149 8.149h71.607c4.143 0 7.5 3.357 7.5 7.5s-3.357 7.5-7.5 7.5z" fill="#017297"></path></g><path d="m329.297 0h-24.849c18.43 0 33.37 14.94 33.37 33.37v430.26c0 18.43-14.94 33.37-33.37 33.37h24.849c18.43 0 33.37-14.94 33.37-33.37v-430.26c0-18.43-14.94-33.37-33.37-33.37z" fill="#af66da"></path><path d="m293.897 0-4.55 23.76c-2.5 13.05-13.91 22.48-27.19 22.48h-99.52c-13.28 0-24.69-9.43-27.19-22.48l-4.55-23.76z" fill="#017297"></path><path d="m268.812 0-4.55 23.76c-2.5 13.05-13.91 22.48-27.19 22.48h25.085c13.28 0 24.69-9.43 27.19-22.48l4.55-23.76z" fill="#025f80"></path><path d="m417.568 324.844h-109.614c-9.557 0-17.305-7.748-17.305-17.305 0-9.557 7.748-17.305 17.305-17.305h109.614c9.557 0 17.305 7.748 17.305 17.305 0 9.557-7.748 17.305-17.305 17.305z" fill="#d0e7f2"></path><path d="m417.568 290.234h-22.021c9.557 0 17.305 7.748 17.305 17.305 0 9.557-7.748 17.305-17.305 17.305h22.021c9.557 0 17.305-7.748 17.305-17.305 0-9.557-7.748-17.305-17.305-17.305z" fill="#b7d9eb"></path><path d="m417.568 384.982h-109.614c-9.557 0-17.305-7.748-17.305-17.305 0-9.557 7.748-17.305 17.305-17.305h109.614c9.557 0 17.305 7.748 17.305 17.305 0 9.557-7.748 17.305-17.305 17.305z" fill="#d0e7f2"></path><path d="m417.568 350.372h-22.021c9.557 0 17.305 7.748 17.305 17.305s-7.748 17.305-17.305 17.305h22.021c9.557 0 17.305-7.748 17.305-17.305s-7.748-17.305-17.305-17.305z" fill="#b7d9eb"></path><path d="m285.075 449.12h-63.459c-9.557 0-17.305-7.748-17.305-17.305 0-9.557 7.748-17.305 17.305-17.305h63.459c9.557 0 17.305 7.748 17.305 17.305 0 9.557-7.748 17.305-17.305 17.305z" fill="#00f2a6"></path><path d="m285.075 414.51h-22.021c9.557 0 17.305 7.748 17.305 17.305s-7.748 17.305-17.305 17.305h22.021c9.557 0 17.305-7.748 17.305-17.305 0-9.558-7.748-17.305-17.305-17.305z" fill="#05e39c"></path><path d="m136.543 386.982h-22.806c-9.557 0-17.305-7.748-17.305-17.305 0-9.557 7.748-17.305 17.305-17.305h22.806c9.557 0 17.305 7.748 17.305 17.305 0 9.557-7.748 17.305-17.305 17.305z" fill="#30dde5"></path><path d="m136.543 352.372h-22.021c9.557 0 17.305 7.748 17.305 17.305s-7.748 17.305-17.305 17.305h22.021c9.557 0 17.305-7.748 17.305-17.305s-7.748-17.305-17.305-17.305z" fill="#02c7dd"></path><g><g><path d="m227.346 31.8h-29.896c-4.143 0-7.5-3.357-7.5-7.5s3.357-7.5 7.5-7.5h29.896c4.143 0 7.5 3.357 7.5 7.5s-3.358 7.5-7.5 7.5z" fill="#025f80"></path></g></g><g><circle cx="322.806" cy="31.684" fill="#d0e7f2" r="7.384"></circle></g><g><g><g><path d="m142.906 234.368c-.027 0-.053 0-.08 0-9.574-.013-18.371-2.538-26.147-7.506-14.998-9.582-22.289-21.823-22.289-37.423v-82.578c0-4.143 3.357-7.5 7.5-7.5s7.5 3.357 7.5 7.5v82.578c0 10.49 4.595 17.901 15.365 24.782 5.331 3.406 11.418 5.138 18.092 5.146h.058c5.951 0 11.462-1.256 16.384-3.734 12.441-6.266 18.489-14.862 18.489-26.281v-82.491c0-4.143 3.357-7.5 7.5-7.5s7.5 3.357 7.5 7.5v82.491c0 17.146-9.247 30.867-26.743 39.678-7.034 3.542-14.815 5.338-23.129 5.338z" fill="#edf5fa"></path></g></g><g><g><path d="m225.696 232.873c-1.572 0-3.157-.492-4.51-1.512-3.307-2.494-3.967-7.196-1.473-10.504l90.161-119.573c2.492-3.308 7.195-3.967 10.504-1.473 3.307 2.493 3.967 7.196 1.473 10.504l-90.161 119.574c-1.473 1.955-3.72 2.984-5.994 2.984z" fill="#edf5fa"></path></g><g><path d="m322.607 234.996c-2.266 0-4.505-1.022-5.98-2.966l-92.357-121.696c-2.504-3.3-1.859-8.005 1.44-10.509s8.004-1.859 10.509 1.44l92.357 121.696c2.504 3.3 1.859 8.005-1.44 10.509-1.356 1.029-2.948 1.526-4.529 1.526z" fill="#edf5fa"></path></g></g></g></svg>