<svg id="wireframe" viewBox="1 0 511.99999 511"><path d="m502 50.5h-153c-5.519531 0-10 4.476562-10 10s4.480469 10 10 10h143v422h-418.140625c-29.699219 0-53.859375-24.160156-53.859375-53.859375 0-23.503906 19.121094-42.628906 42.628906-42.628906 18.398438 0 33.371094 14.972656 33.371094 33.375 0 14.195312-11.550781 25.742187-25.746094 25.742187-10.726562 0-19.457031-8.726562-19.457031-19.457031 0-5.523437-4.476563-10-10-10s-10 4.476563-10 10c0 21.757813 17.699219 39.457031 39.457031 39.457031 25.226563 0 45.746094-20.519531 45.746094-45.742187v-358.886719h151c5.523438 0 10-4.476562 10-10s-4.476562-10-10-10h-151.117188c-1.75-27.863281-24.960937-50-53.253906-50-34.535156 0-62.628906 28.09375-62.628906 62.628906v366.246094 9.265625c0 40.726563 33.132812 73.855469 73.859375 73.855469h428.140625c5.523438 0 10-4.476563 10-10v-441.996094c0-5.523438-4.476562-10-10-10zm-439.371094-30c18.398438 0 33.371094 14.972656 33.371094 33.371094v333.90625c-9.148438-7.351563-20.75-11.765625-33.371094-11.765625-16.457031 0-31.441406 6.390625-42.628906 16.804687v-329.6875c0-23.507812 19.121094-42.628906 42.628906-42.628906zm0 0"></path><path d="m50 165.5c-2.628906 0-5.210938 1.066406-7.070312 2.929688-1.859376 1.859374-2.929688 4.441406-2.929688 7.070312 0 2.640625 1.070312 5.210938 2.929688 7.066406 1.859374 1.871094 4.441406 2.933594 7.070312 2.933594s5.210938-1.0625 7.070312-2.933594c1.859376-1.855468 2.929688-4.429687 2.929688-7.066406 0-2.628906-1.070312-5.210938-2.929688-7.070312-1.859374-1.863282-4.441406-2.929688-7.070312-2.929688zm0 0"></path><path d="m306.558594 50.308594c-2.632813 0-5.210938 1.070312-7.070313 2.929687-1.863281 1.863281-2.929687 4.441407-2.929687 7.070313 0 2.640625 1.066406 5.210937 2.929687 7.070312 1.859375 1.871094 4.4375 2.929688 7.070313 2.929688 2.628906 0 5.207031-1.058594 7.066406-2.929688 1.859375-1.859375 2.933594-4.429687 2.933594-7.070312 0-2.628906-1.070313-5.207032-2.933594-7.070313-1.859375-1.859375-4.4375-2.929687-7.066406-2.929687zm0 0"></path><path d="m50 144.875c5.523438 0 10-4.476562 10-10v-74.375c0-5.523438-4.476562-10-10-10s-10 4.476562-10 10v74.375c0 5.523438 4.476562 10 10 10zm0 0"></path><path d="m458 128.625c0-5.519531-4.480469-10-10-10h-280c-5.523438 0-10 4.480469-10 10v128c0 5.523438 4.476562 10 10 10h280c5.519531 0 10-4.476562 10-10zm-20 118h-260v-108h260zm0 0"></path><path d="m242 318.5c0-5.523438-4.476562-10-10-10h-64c-5.523438 0-10 4.476562-10 10v64c0 5.519531 4.476562 10 10 10h64c5.523438 0 10-4.480469 10-10zm-20 54h-44v-44h44zm0 0"></path><path d="m350 318.5c0-5.523438-4.476562-10-10-10h-64c-5.523438 0-10 4.476562-10 10v64c0 5.519531 4.476562 10 10 10h64c5.523438 0 10-4.480469 10-10zm-20 54h-44v-44h44zm0 0"></path><path d="m458 318.5c0-5.523438-4.480469-10-10-10h-64c-5.523438 0-10 4.476562-10 10v64c0 5.519531 4.476562 10 10 10h64c5.519531 0 10-4.480469 10-10zm-20 54h-44v-44h44zm0 0"></path><path d="m232 428.5h-64c-5.523438 0-10 4.476562-10 10 0 5.519531 4.476562 10 10 10h64c5.523438 0 10-4.480469 10-10 0-5.523438-4.476562-10-10-10zm0 0"></path><path d="m340 428.5h-64c-5.523438 0-10 4.476562-10 10 0 5.519531 4.476562 10 10 10h64c5.523438 0 10-4.480469 10-10 0-5.523438-4.476562-10-10-10zm0 0"></path><path d="m448 428.5h-64c-5.523438 0-10 4.476562-10 10 0 5.519531 4.476562 10 10 10h64c5.519531 0 10-4.480469 10-10 0-5.523438-4.480469-10-10-10zm0 0"></path></svg>